<?plantuml 1.2026.2?><svg xmlns="http://www.w3.org/2000/svg" xmlns:xlink="http://www.w3.org/1999/xlink" contentStyleType="text/css" data-diagram-type="CLASS" height="851px" preserveAspectRatio="none" style="width:1318px;height:851px;background:#FFFFFF;" version="1.1" viewBox="0 0 1318 851" width="1318px" zoomAndPan="magnify"><defs/><g><!--cluster controller--><g class="cluster" data-qualified-name="controller" data-source-line="6" id="ent0004"><path d="M8.5,6 L74.0654,6 A3.75,3.75 0 0 1 76.5654,8.5 L83.5654,29.6094 L993.5,29.6094 A2.5,2.5 0 0 1 996,32.1094 L996,598.5 A2.5,2.5 0 0 1 993.5,601 L8.5,601 A2.5,2.5 0 0 1 6,598.5 L6,8.5 A2.5,2.5 0 0 1 8.5,6" fill="none" style="stroke:#000000;stroke-width:1.5;"/><line style="stroke:#000000;stroke-width:1.5;" x1="6" x2="83.5654" y1="29.6094" y2="29.6094"/><text fill="#000000" font-family="sans-serif" font-size="14" font-weight="bold" lengthAdjust="spacing" textLength="64.5654" x="10" y="22.5332">controller</text></g><!--cluster activities--><g class="cluster" data-qualified-name="controller.activities" data-source-line="5" id="ent0002"><path d="M423.5,152 L484.4238,152 A3.75,3.75 0 0 1 486.9238,154.5 L493.9238,175.6094 L575.5,175.6094 A2.5,2.5 0 0 1 578,178.1094 L578,479.5 A2.5,2.5 0 0 1 575.5,482 L423.5,482 A2.5,2.5 0 0 1 421,479.5 L421,154.5 A2.5,2.5 0 0 1 423.5,152" fill="none" style="stroke:#000000;stroke-width:1.5;"/><line style="stroke:#000000;stroke-width:1.5;" x1="421" x2="493.9238" y1="175.6094" y2="175.6094"/><text fill="#000000" font-family="sans-serif" font-size="14" font-weight="bold" lengthAdjust="spacing" textLength="59.9238" x="425" y="168.5332">activities</text></g><!--cluster game--><g class="cluster" data-qualified-name="controller.game" data-source-line="12" id="ent0008"><path d="M32.5,493 L70.0723,493 A3.75,3.75 0 0 1 72.5723,495.5 L79.5723,516.6094 L390.5,516.6094 A2.5,2.5 0 0 1 393,519.1094 L393,574.5 A2.5,2.5 0 0 1 390.5,577 L32.5,577 A2.5,2.5 0 0 1 30,574.5 L30,495.5 A2.5,2.5 0 0 1 32.5,493" fill="none" style="stroke:#000000;stroke-width:1.5;"/><line style="stroke:#000000;stroke-width:1.5;" x1="30" x2="79.5723" y1="516.6094" y2="516.6094"/><text fill="#000000" font-family="sans-serif" font-size="14" font-weight="bold" lengthAdjust="spacing" textLength="36.5723" x="34" y="509.5332">game</text></g><!--cluster listeners--><g class="cluster" data-qualified-name="controller.listeners" data-source-line="17" id="ent0011"><path d="M608.5,158 L667.0859,158 A3.75,3.75 0 0 1 669.5859,160.5 L676.5859,181.6094 L807.5,181.6094 A2.5,2.5 0 0 1 810,184.1094 L810,574.5 A2.5,2.5 0 0 1 807.5,577 L608.5,577 A2.5,2.5 0 0 1 606,574.5 L606,160.5 A2.5,2.5 0 0 1 608.5,158" fill="none" style="stroke:#000000;stroke-width:1.5;"/><line style="stroke:#000000;stroke-width:1.5;" x1="606" x2="676.5859" y1="181.6094" y2="181.6094"/><text fill="#000000" font-family="sans-serif" font-size="14" font-weight="bold" lengthAdjust="spacing" textLength="57.5859" x="610" y="174.5332">listeners</text></g><!--cluster persistence--><g class="cluster" data-qualified-name="controller.persistence" data-source-line="26" id="ent0018"><path d="M616,50 L694.8203,50 A3.75,3.75 0 0 1 697.3203,52.5 L704.3203,73.6094 L969.5,73.6094 A2.5,2.5 0 0 1 972,76.1094 L972,131.5 A2.5,2.5 0 0 1 969.5,134 L616,134 A2.5,2.5 0 0 1 613.5,131.5 L613.5,52.5 A2.5,2.5 0 0 1 616,50" fill="none" style="stroke:#000000;stroke-width:1.5;"/><line style="stroke:#000000;stroke-width:1.5;" x1="613.5" x2="704.3203" y1="73.6094" y2="73.6094"/><text fill="#000000" font-family="sans-serif" font-size="14" font-weight="bold" lengthAdjust="spacing" textLength="77.8203" x="617.5" y="66.5332">persistence</text></g><!--cluster model--><g class="cluster" data-qualified-name="model" data-source-line="32" id="ent0023"><path d="M838.5,625 L880.7275,625 A3.75,3.75 0 0 1 883.2275,627.5 L890.2275,648.6094 L1308.5,648.6094 A2.5,2.5 0 0 1 1311,651.1094 L1311,841.5 A2.5,2.5 0 0 1 1308.5,844 L838.5,844 A2.5,2.5 0 0 1 836,841.5 L836,627.5 A2.5,2.5 0 0 1 838.5,625" fill="none" style="stroke:#000000;stroke-width:1.5;"/><line style="stroke:#000000;stroke-width:1.5;" x1="836" x2="890.2275" y1="648.6094" y2="648.6094"/><text fill="#000000" font-family="sans-serif" font-size="14" font-weight="bold" lengthAdjust="spacing" textLength="41.2275" x="840" y="641.5332">model</text></g><!--cluster box--><g class="cluster" data-qualified-name="model.box" data-source-line="31" id="ent0021"><path d="M1201.5,669 L1227.3896,669 A3.75,3.75 0 0 1 1229.8896,671.5 L1236.8896,692.6094 L1284.5,692.6094 A2.5,2.5 0 0 1 1287,695.1094 L1287,750.5 A2.5,2.5 0 0 1 1284.5,753 L1201.5,753 A2.5,2.5 0 0 1 1199,750.5 L1199,671.5 A2.5,2.5 0 0 1 1201.5,669" fill="none" style="stroke:#000000;stroke-width:1.5;"/><line style="stroke:#000000;stroke-width:1.5;" x1="1199" x2="1236.8896" y1="692.6094" y2="692.6094"/><text fill="#000000" font-family="sans-serif" font-size="14" font-weight="bold" lengthAdjust="spacing" textLength="24.8896" x="1203" y="685.5332">box</text></g><!--cluster grid--><g class="cluster" data-qualified-name="model.grid" data-source-line="35" id="ent0024"><path d="M862.5,669 L889.9414,669 A3.75,3.75 0 0 1 892.4414,671.5 L899.4414,692.6094 L1168.5,692.6094 A2.5,2.5 0 0 1 1171,695.1094 L1171,817.5 A2.5,2.5 0 0 1 1168.5,820 L862.5,820 A2.5,2.5 0 0 1 860,817.5 L860,671.5 A2.5,2.5 0 0 1 862.5,669" fill="none" style="stroke:#000000;stroke-width:1.5;"/><line style="stroke:#000000;stroke-width:1.5;" x1="860" x2="899.4414" y1="692.6094" y2="692.6094"/><text fill="#000000" font-family="sans-serif" font-size="14" font-weight="bold" lengthAdjust="spacing" textLength="26.4414" x="864" y="685.5332">grid</text></g><!--cluster view--><g class="cluster" data-qualified-name="view" data-source-line="41" id="ent0028"><path d="M644.5,625 L675.8516,625 A3.75,3.75 0 0 1 678.3516,627.5 L685.3516,648.6094 L771.5,648.6094 A2.5,2.5 0 0 1 774,651.1094 L774,706.5 A2.5,2.5 0 0 1 771.5,709 L644.5,709 A2.5,2.5 0 0 1 642,706.5 L642,627.5 A2.5,2.5 0 0 1 644.5,625" fill="none" style="stroke:#000000;stroke-width:1.5;"/><line style="stroke:#000000;stroke-width:1.5;" x1="642" x2="685.3516" y1="648.6094" y2="648.6094"/><text fill="#000000" font-family="sans-serif" font-size="14" font-weight="bold" lengthAdjust="spacing" textLength="30.3516" x="646" y="641.5332">view</text></g><!--class MainActivity--><g class="entity" data-qualified-name="controller.activities.MainActivity" data-source-line="6" id="ent0003"><rect fill="#F1F1F1" height="42.7031" rx="2.5" ry="2.5" style="stroke:#181818;stroke-width:0.5;" width="106.6826" x="446" y="266.5"/><ellipse cx="461" cy="287.8516" fill="#ADD1B2" rx="11" ry="11" style="stroke:#181818;stroke-width:1;"/><path d="M463.7656,283.7266 Q463.9219,283.5078 464.1094,283.3984 Q464.2969,283.2891 464.5156,283.2891 Q464.8906,283.2891 465.125,283.5547 Q465.3594,283.8047 465.3594,284.4141 L465.3594,285.8672 Q465.3594,286.4766 465.125,286.7422 Q464.8906,287.0078 464.5156,287.0078 Q464.1719,287.0078 463.9688,286.8047 Q463.7656,286.6172 463.6563,286.1016 Q463.6094,285.7422 463.4219,285.5547 Q463.0938,285.1797 462.4844,284.9609 Q461.875,284.7422 461.25,284.7422 Q460.4844,284.7422 459.8438,285.0703 Q459.2188,285.3984 458.7188,286.1484 Q458.2344,286.8984 458.2344,287.9297 L458.2344,289.0234 Q458.2344,290.2578 459.125,291.0859 Q460.0156,291.8984 461.6094,291.8984 Q462.5469,291.8984 463.2031,291.6484 Q463.5938,291.4922 464.0156,291.0547 Q464.2813,290.7891 464.4219,290.7109 Q464.5781,290.6328 464.7813,290.6328 Q465.1094,290.6328 465.3594,290.8984 Q465.625,291.1484 465.625,291.4922 Q465.625,291.8359 465.2813,292.2422 Q464.7813,292.8203 463.9844,293.1484 Q462.9063,293.6016 461.6094,293.6016 Q460.0938,293.6016 458.8906,292.9766 Q457.9063,292.4766 457.2188,291.4141 Q456.5313,290.3359 456.5313,289.0547 L456.5313,287.8984 Q456.5313,286.5703 457.1406,285.4297 Q457.7656,284.2734 458.8594,283.6641 Q459.9531,283.0391 461.1875,283.0391 Q461.9219,283.0391 462.5625,283.2109 Q463.2188,283.3672 463.7656,283.7266 Z " fill="#000000"/><text fill="#000000" font-family="sans-serif" font-size="12" font-style="italic" lengthAdjust="spacing" textLength="51.3516" x="486.6655" y="283.957">&#171;Activity&#187;</text><text fill="#000000" font-family="sans-serif" font-size="14" lengthAdjust="spacing" textLength="74.6826" x="475" y="301.127">MainActivity</text></g><!--class SeedActivity--><g class="entity" data-qualified-name="controller.activities.SeedActivity" data-source-line="7" id="ent0005"><rect fill="#F1F1F1" height="42.7031" rx="2.5" ry="2.5" style="stroke:#181818;stroke-width:0.5;" width="109.0342" x="445" y="422.5"/><ellipse cx="460" cy="443.8516" fill="#ADD1B2" rx="11" ry="11" style="stroke:#181818;stroke-width:1;"/><path d="M462.7656,439.7266 Q462.9219,439.5078 463.1094,439.3984 Q463.2969,439.2891 463.5156,439.2891 Q463.8906,439.2891 464.125,439.5547 Q464.3594,439.8047 464.3594,440.4141 L464.3594,441.8672 Q464.3594,442.4766 464.125,442.7422 Q463.8906,443.0078 463.5156,443.0078 Q463.1719,443.0078 462.9688,442.8047 Q462.7656,442.6172 462.6563,442.1016 Q462.6094,441.7422 462.4219,441.5547 Q462.0938,441.1797 461.4844,440.9609 Q460.875,440.7422 460.25,440.7422 Q459.4844,440.7422 458.8438,441.0703 Q458.2188,441.3984 457.7188,442.1484 Q457.2344,442.8984 457.2344,443.9297 L457.2344,445.0234 Q457.2344,446.2578 458.125,447.0859 Q459.0156,447.8984 460.6094,447.8984 Q461.5469,447.8984 462.2031,447.6484 Q462.5938,447.4922 463.0156,447.0547 Q463.2813,446.7891 463.4219,446.7109 Q463.5781,446.6328 463.7813,446.6328 Q464.1094,446.6328 464.3594,446.8984 Q464.625,447.1484 464.625,447.4922 Q464.625,447.8359 464.2813,448.2422 Q463.7813,448.8203 462.9844,449.1484 Q461.9063,449.6016 460.6094,449.6016 Q459.0938,449.6016 457.8906,448.9766 Q456.9063,448.4766 456.2188,447.4141 Q455.5313,446.3359 455.5313,445.0547 L455.5313,443.8984 Q455.5313,442.5703 456.1406,441.4297 Q456.7656,440.2734 457.8594,439.6641 Q458.9531,439.0391 460.1875,439.0391 Q460.9219,439.0391 461.5625,439.2109 Q462.2188,439.3672 462.7656,439.7266 Z " fill="#000000"/><text fill="#000000" font-family="sans-serif" font-size="12" font-style="italic" lengthAdjust="spacing" textLength="51.3516" x="486.8413" y="439.957">&#171;Activity&#187;</text><text fill="#000000" font-family="sans-serif" font-size="14" lengthAdjust="spacing" textLength="77.0342" x="474" y="457.127">SeedActivity</text></g><!--class GameActivity--><g class="entity" data-qualified-name="controller.activities.GameActivity" data-source-line="8" id="ent0006"><rect fill="#F1F1F1" height="42.7031" rx="2.5" ry="2.5" style="stroke:#181818;stroke-width:0.5;" width="114.4619" x="442.5" y="344.5"/><ellipse cx="457.5" cy="365.8516" fill="#ADD1B2" rx="11" ry="11" style="stroke:#181818;stroke-width:1;"/><path d="M460.2656,361.7266 Q460.4219,361.5078 460.6094,361.3984 Q460.7969,361.2891 461.0156,361.2891 Q461.3906,361.2891 461.625,361.5547 Q461.8594,361.8047 461.8594,362.4141 L461.8594,363.8672 Q461.8594,364.4766 461.625,364.7422 Q461.3906,365.0078 461.0156,365.0078 Q460.6719,365.0078 460.4688,364.8047 Q460.2656,364.6172 460.1563,364.1016 Q460.1094,363.7422 459.9219,363.5547 Q459.5938,363.1797 458.9844,362.9609 Q458.375,362.7422 457.75,362.7422 Q456.9844,362.7422 456.3438,363.0703 Q455.7188,363.3984 455.2188,364.1484 Q454.7344,364.8984 454.7344,365.9297 L454.7344,367.0234 Q454.7344,368.2578 455.625,369.0859 Q456.5156,369.8984 458.1094,369.8984 Q459.0469,369.8984 459.7031,369.6484 Q460.0938,369.4922 460.5156,369.0547 Q460.7813,368.7891 460.9219,368.7109 Q461.0781,368.6328 461.2813,368.6328 Q461.6094,368.6328 461.8594,368.8984 Q462.125,369.1484 462.125,369.4922 Q462.125,369.8359 461.7813,370.2422 Q461.2813,370.8203 460.4844,371.1484 Q459.4063,371.6016 458.1094,371.6016 Q456.5938,371.6016 455.3906,370.9766 Q454.4063,370.4766 453.7188,369.4141 Q453.0313,368.3359 453.0313,367.0547 L453.0313,365.8984 Q453.0313,364.5703 453.6406,363.4297 Q454.2656,362.2734 455.3594,361.6641 Q456.4531,361.0391 457.6875,361.0391 Q458.4219,361.0391 459.0625,361.2109 Q459.7188,361.3672 460.2656,361.7266 Z " fill="#000000"/><text fill="#000000" font-family="sans-serif" font-size="12" font-style="italic" lengthAdjust="spacing" textLength="51.3516" x="487.0552" y="361.957">&#171;Activity&#187;</text><text fill="#000000" font-family="sans-serif" font-size="14" lengthAdjust="spacing" textLength="82.4619" x="471.5" y="379.127">GameActivity</text></g><!--class OptionsActivity--><g class="entity" data-qualified-name="controller.activities.OptionsActivity" data-source-line="9" id="ent0007"><rect fill="#F1F1F1" height="42.7031" rx="2.5" ry="2.5" style="stroke:#181818;stroke-width:0.5;" width="124.5859" x="437" y="188.5"/><ellipse cx="452" cy="209.8516" fill="#ADD1B2" rx="11" ry="11" style="stroke:#181818;stroke-width:1;"/><path d="M454.7656,205.7266 Q454.9219,205.5078 455.1094,205.3984 Q455.2969,205.2891 455.5156,205.2891 Q455.8906,205.2891 456.125,205.5547 Q456.3594,205.8047 456.3594,206.4141 L456.3594,207.8672 Q456.3594,208.4766 456.125,208.7422 Q455.8906,209.0078 455.5156,209.0078 Q455.1719,209.0078 454.9688,208.8047 Q454.7656,208.6172 454.6563,208.1016 Q454.6094,207.7422 454.4219,207.5547 Q454.0938,207.1797 453.4844,206.9609 Q452.875,206.7422 452.25,206.7422 Q451.4844,206.7422 450.8438,207.0703 Q450.2188,207.3984 449.7188,208.1484 Q449.2344,208.8984 449.2344,209.9297 L449.2344,211.0234 Q449.2344,212.2578 450.125,213.0859 Q451.0156,213.8984 452.6094,213.8984 Q453.5469,213.8984 454.2031,213.6484 Q454.5938,213.4922 455.0156,213.0547 Q455.2813,212.7891 455.4219,212.7109 Q455.5781,212.6328 455.7813,212.6328 Q456.1094,212.6328 456.3594,212.8984 Q456.625,213.1484 456.625,213.4922 Q456.625,213.8359 456.2813,214.2422 Q455.7813,214.8203 454.9844,215.1484 Q453.9063,215.6016 452.6094,215.6016 Q451.0938,215.6016 449.8906,214.9766 Q448.9063,214.4766 448.2188,213.4141 Q447.5313,212.3359 447.5313,211.0547 L447.5313,209.8984 Q447.5313,208.5703 448.1406,207.4297 Q448.7656,206.2734 449.8594,205.6641 Q450.9531,205.0391 452.1875,205.0391 Q452.9219,205.0391 453.5625,205.2109 Q454.2188,205.3672 454.7656,205.7266 Z " fill="#000000"/><text fill="#000000" font-family="sans-serif" font-size="12" font-style="italic" lengthAdjust="spacing" textLength="51.3516" x="486.6172" y="205.957">&#171;Activity&#187;</text><text fill="#000000" font-family="sans-serif" font-size="14" lengthAdjust="spacing" textLength="92.5859" x="466" y="223.127">OptionsActivity</text></g><!--class GameLoop--><g class="entity" data-qualified-name="controller.game.GameLoop" data-source-line="13" id="ent0009"><rect fill="#F1F1F1" height="32" rx="2.5" ry="2.5" style="stroke:#181818;stroke-width:0.5;" width="101.2686" x="276" y="529"/><ellipse cx="291" cy="545" fill="#ADD1B2" rx="11" ry="11" style="stroke:#181818;stroke-width:1;"/><path d="M293.7656,540.875 Q293.9219,540.6563 294.1094,540.5469 Q294.2969,540.4375 294.5156,540.4375 Q294.8906,540.4375 295.125,540.7031 Q295.3594,540.9531 295.3594,541.5625 L295.3594,543.0156 Q295.3594,543.625 295.125,543.8906 Q294.8906,544.1563 294.5156,544.1563 Q294.1719,544.1563 293.9688,543.9531 Q293.7656,543.7656 293.6563,543.25 Q293.6094,542.8906 293.4219,542.7031 Q293.0938,542.3281 292.4844,542.1094 Q291.875,541.8906 291.25,541.8906 Q290.4844,541.8906 289.8438,542.2188 Q289.2188,542.5469 288.7188,543.2969 Q288.2344,544.0469 288.2344,545.0781 L288.2344,546.1719 Q288.2344,547.4063 289.125,548.2344 Q290.0156,549.0469 291.6094,549.0469 Q292.5469,549.0469 293.2031,548.7969 Q293.5938,548.6406 294.0156,548.2031 Q294.2813,547.9375 294.4219,547.8594 Q294.5781,547.7813 294.7813,547.7813 Q295.1094,547.7813 295.3594,548.0469 Q295.625,548.2969 295.625,548.6406 Q295.625,548.9844 295.2813,549.3906 Q294.7813,549.9688 293.9844,550.2969 Q292.9063,550.75 291.6094,550.75 Q290.0938,550.75 288.8906,550.125 Q287.9063,549.625 287.2188,548.5625 Q286.5313,547.4844 286.5313,546.2031 L286.5313,545.0469 Q286.5313,543.7188 287.1406,542.5781 Q287.7656,541.4219 288.8594,540.8125 Q289.9531,540.1875 291.1875,540.1875 Q291.9219,540.1875 292.5625,540.3594 Q293.2188,540.5156 293.7656,540.875 Z " fill="#000000"/><text fill="#000000" font-family="sans-serif" font-size="14" lengthAdjust="spacing" textLength="69.2686" x="305" y="550.7285">GameLoop</text></g><!--class GameTouchController--><g class="entity" data-qualified-name="controller.game.GameTouchController" data-source-line="14" id="ent0010"><rect fill="#F1F1F1" height="32" rx="2.5" ry="2.5" style="stroke:#181818;stroke-width:0.5;" width="169.7236" x="46" y="529"/><ellipse cx="61" cy="545" fill="#ADD1B2" rx="11" ry="11" style="stroke:#181818;stroke-width:1;"/><path d="M63.7656,540.875 Q63.9219,540.6563 64.1094,540.5469 Q64.2969,540.4375 64.5156,540.4375 Q64.8906,540.4375 65.125,540.7031 Q65.3594,540.9531 65.3594,541.5625 L65.3594,543.0156 Q65.3594,543.625 65.125,543.8906 Q64.8906,544.1563 64.5156,544.1563 Q64.1719,544.1563 63.9688,543.9531 Q63.7656,543.7656 63.6563,543.25 Q63.6094,542.8906 63.4219,542.7031 Q63.0938,542.3281 62.4844,542.1094 Q61.875,541.8906 61.25,541.8906 Q60.4844,541.8906 59.8438,542.2188 Q59.2188,542.5469 58.7188,543.2969 Q58.2344,544.0469 58.2344,545.0781 L58.2344,546.1719 Q58.2344,547.4063 59.125,548.2344 Q60.0156,549.0469 61.6094,549.0469 Q62.5469,549.0469 63.2031,548.7969 Q63.5938,548.6406 64.0156,548.2031 Q64.2813,547.9375 64.4219,547.8594 Q64.5781,547.7813 64.7813,547.7813 Q65.1094,547.7813 65.3594,548.0469 Q65.625,548.2969 65.625,548.6406 Q65.625,548.9844 65.2813,549.3906 Q64.7813,549.9688 63.9844,550.2969 Q62.9063,550.75 61.6094,550.75 Q60.0938,550.75 58.8906,550.125 Q57.9063,549.625 57.2188,548.5625 Q56.5313,547.4844 56.5313,546.2031 L56.5313,545.0469 Q56.5313,543.7188 57.1406,542.5781 Q57.7656,541.4219 58.8594,540.8125 Q59.9531,540.1875 61.1875,540.1875 Q61.9219,540.1875 62.5625,540.3594 Q63.2188,540.5156 63.7656,540.875 Z " fill="#000000"/><text fill="#000000" font-family="sans-serif" font-size="14" lengthAdjust="spacing" textLength="137.7236" x="75" y="550.7285">GameTouchController</text></g><!--class PlayRandomListener--><g class="entity" data-qualified-name="controller.listeners.PlayRandomListener" data-source-line="18" id="ent0012"><rect fill="#F1F1F1" height="32" rx="2.5" ry="2.5" style="stroke:#181818;stroke-width:0.5;" width="161.958" x="627" y="261"/><ellipse cx="642" cy="277" fill="#ADD1B2" rx="11" ry="11" style="stroke:#181818;stroke-width:1;"/><path d="M644.7656,272.875 Q644.9219,272.6563 645.1094,272.5469 Q645.2969,272.4375 645.5156,272.4375 Q645.8906,272.4375 646.125,272.7031 Q646.3594,272.9531 646.3594,273.5625 L646.3594,275.0156 Q646.3594,275.625 646.125,275.8906 Q645.8906,276.1563 645.5156,276.1563 Q645.1719,276.1563 644.9688,275.9531 Q644.7656,275.7656 644.6563,275.25 Q644.6094,274.8906 644.4219,274.7031 Q644.0938,274.3281 643.4844,274.1094 Q642.875,273.8906 642.25,273.8906 Q641.4844,273.8906 640.8438,274.2188 Q640.2188,274.5469 639.7188,275.2969 Q639.2344,276.0469 639.2344,277.0781 L639.2344,278.1719 Q639.2344,279.4063 640.125,280.2344 Q641.0156,281.0469 642.6094,281.0469 Q643.5469,281.0469 644.2031,280.7969 Q644.5938,280.6406 645.0156,280.2031 Q645.2813,279.9375 645.4219,279.8594 Q645.5781,279.7813 645.7813,279.7813 Q646.1094,279.7813 646.3594,280.0469 Q646.625,280.2969 646.625,280.6406 Q646.625,280.9844 646.2813,281.3906 Q645.7813,281.9688 644.9844,282.2969 Q643.9063,282.75 642.6094,282.75 Q641.0938,282.75 639.8906,282.125 Q638.9063,281.625 638.2188,280.5625 Q637.5313,279.4844 637.5313,278.2031 L637.5313,277.0469 Q637.5313,275.7188 638.1406,274.5781 Q638.7656,273.4219 639.8594,272.8125 Q640.9531,272.1875 642.1875,272.1875 Q642.9219,272.1875 643.5625,272.3594 Q644.2188,272.5156 644.7656,272.875 Z " fill="#000000"/><text fill="#000000" font-family="sans-serif" font-size="14" lengthAdjust="spacing" textLength="129.958" x="656" y="282.7285">PlayRandomListener</text></g><!--class PlaySeedListener--><g class="entity" data-qualified-name="controller.listeners.PlaySeedListener" data-source-line="19" id="ent0013"><rect fill="#F1F1F1" height="32" rx="2.5" ry="2.5" style="stroke:#181818;stroke-width:0.5;" width="141.7373" x="637" y="395"/><ellipse cx="652" cy="411" fill="#ADD1B2" rx="11" ry="11" style="stroke:#181818;stroke-width:1;"/><path d="M654.7656,406.875 Q654.9219,406.6563 655.1094,406.5469 Q655.2969,406.4375 655.5156,406.4375 Q655.8906,406.4375 656.125,406.7031 Q656.3594,406.9531 656.3594,407.5625 L656.3594,409.0156 Q656.3594,409.625 656.125,409.8906 Q655.8906,410.1563 655.5156,410.1563 Q655.1719,410.1563 654.9688,409.9531 Q654.7656,409.7656 654.6563,409.25 Q654.6094,408.8906 654.4219,408.7031 Q654.0938,408.3281 653.4844,408.1094 Q652.875,407.8906 652.25,407.8906 Q651.4844,407.8906 650.8438,408.2188 Q650.2188,408.5469 649.7188,409.2969 Q649.2344,410.0469 649.2344,411.0781 L649.2344,412.1719 Q649.2344,413.4063 650.125,414.2344 Q651.0156,415.0469 652.6094,415.0469 Q653.5469,415.0469 654.2031,414.7969 Q654.5938,414.6406 655.0156,414.2031 Q655.2813,413.9375 655.4219,413.8594 Q655.5781,413.7813 655.7813,413.7813 Q656.1094,413.7813 656.3594,414.0469 Q656.625,414.2969 656.625,414.6406 Q656.625,414.9844 656.2813,415.3906 Q655.7813,415.9688 654.9844,416.2969 Q653.9063,416.75 652.6094,416.75 Q651.0938,416.75 649.8906,416.125 Q648.9063,415.625 648.2188,414.5625 Q647.5313,413.4844 647.5313,412.2031 L647.5313,411.0469 Q647.5313,409.7188 648.1406,408.5781 Q648.7656,407.4219 649.8594,406.8125 Q650.9531,406.1875 652.1875,406.1875 Q652.9219,406.1875 653.5625,406.3594 Q654.2188,406.5156 654.7656,406.875 Z " fill="#000000"/><text fill="#000000" font-family="sans-serif" font-size="14" lengthAdjust="spacing" textLength="109.7373" x="666" y="416.7285">PlaySeedListener</text></g><!--class ResumeGameListener--><g class="entity" data-qualified-name="controller.listeners.ResumeGameListener" data-source-line="20" id="ent0014"><rect fill="#F1F1F1" height="32" rx="2.5" ry="2.5" style="stroke:#181818;stroke-width:0.5;" width="172.0615" x="622" y="328"/><ellipse cx="637" cy="344" fill="#ADD1B2" rx="11" ry="11" style="stroke:#181818;stroke-width:1;"/><path d="M639.7656,339.875 Q639.9219,339.6563 640.1094,339.5469 Q640.2969,339.4375 640.5156,339.4375 Q640.8906,339.4375 641.125,339.7031 Q641.3594,339.9531 641.3594,340.5625 L641.3594,342.0156 Q641.3594,342.625 641.125,342.8906 Q640.8906,343.1563 640.5156,343.1563 Q640.1719,343.1563 639.9688,342.9531 Q639.7656,342.7656 639.6563,342.25 Q639.6094,341.8906 639.4219,341.7031 Q639.0938,341.3281 638.4844,341.1094 Q637.875,340.8906 637.25,340.8906 Q636.4844,340.8906 635.8438,341.2188 Q635.2188,341.5469 634.7188,342.2969 Q634.2344,343.0469 634.2344,344.0781 L634.2344,345.1719 Q634.2344,346.4063 635.125,347.2344 Q636.0156,348.0469 637.6094,348.0469 Q638.5469,348.0469 639.2031,347.7969 Q639.5938,347.6406 640.0156,347.2031 Q640.2813,346.9375 640.4219,346.8594 Q640.5781,346.7813 640.7813,346.7813 Q641.1094,346.7813 641.3594,347.0469 Q641.625,347.2969 641.625,347.6406 Q641.625,347.9844 641.2813,348.3906 Q640.7813,348.9688 639.9844,349.2969 Q638.9063,349.75 637.6094,349.75 Q636.0938,349.75 634.8906,349.125 Q633.9063,348.625 633.2188,347.5625 Q632.5313,346.4844 632.5313,345.2031 L632.5313,344.0469 Q632.5313,342.7188 633.1406,341.5781 Q633.7656,340.4219 634.8594,339.8125 Q635.9531,339.1875 637.1875,339.1875 Q637.9219,339.1875 638.5625,339.3594 Q639.2188,339.5156 639.7656,339.875 Z " fill="#000000"/><text fill="#000000" font-family="sans-serif" font-size="14" lengthAdjust="spacing" textLength="140.0615" x="651" y="349.7285">ResumeGameListener</text></g><!--class OptionsListener--><g class="entity" data-qualified-name="controller.listeners.OptionsListener" data-source-line="21" id="ent0015"><rect fill="#F1F1F1" height="32" rx="2.5" ry="2.5" style="stroke:#181818;stroke-width:0.5;" width="130.0547" x="643" y="194"/><ellipse cx="658" cy="210" fill="#ADD1B2" rx="11" ry="11" style="stroke:#181818;stroke-width:1;"/><path d="M660.7656,205.875 Q660.9219,205.6563 661.1094,205.5469 Q661.2969,205.4375 661.5156,205.4375 Q661.8906,205.4375 662.125,205.7031 Q662.3594,205.9531 662.3594,206.5625 L662.3594,208.0156 Q662.3594,208.625 662.125,208.8906 Q661.8906,209.1563 661.5156,209.1563 Q661.1719,209.1563 660.9688,208.9531 Q660.7656,208.7656 660.6563,208.25 Q660.6094,207.8906 660.4219,207.7031 Q660.0938,207.3281 659.4844,207.1094 Q658.875,206.8906 658.25,206.8906 Q657.4844,206.8906 656.8438,207.2188 Q656.2188,207.5469 655.7188,208.2969 Q655.2344,209.0469 655.2344,210.0781 L655.2344,211.1719 Q655.2344,212.4063 656.125,213.2344 Q657.0156,214.0469 658.6094,214.0469 Q659.5469,214.0469 660.2031,213.7969 Q660.5938,213.6406 661.0156,213.2031 Q661.2813,212.9375 661.4219,212.8594 Q661.5781,212.7813 661.7813,212.7813 Q662.1094,212.7813 662.3594,213.0469 Q662.625,213.2969 662.625,213.6406 Q662.625,213.9844 662.2813,214.3906 Q661.7813,214.9688 660.9844,215.2969 Q659.9063,215.75 658.6094,215.75 Q657.0938,215.75 655.8906,215.125 Q654.9063,214.625 654.2188,213.5625 Q653.5313,212.4844 653.5313,211.2031 L653.5313,210.0469 Q653.5313,208.7188 654.1406,207.5781 Q654.7656,206.4219 655.8594,205.8125 Q656.9531,205.1875 658.1875,205.1875 Q658.9219,205.1875 659.5625,205.3594 Q660.2188,205.5156 660.7656,205.875 Z " fill="#000000"/><text fill="#000000" font-family="sans-serif" font-size="14" lengthAdjust="spacing" textLength="98.0547" x="672" y="215.7285">OptionsListener</text></g><!--class SeedButtonListener--><g class="entity" data-qualified-name="controller.listeners.SeedButtonListener" data-source-line="22" id="ent0016"><rect fill="#F1F1F1" height="32" rx="2.5" ry="2.5" style="stroke:#181818;stroke-width:0.5;" width="154.9785" x="630.5" y="529"/><ellipse cx="645.5" cy="545" fill="#ADD1B2" rx="11" ry="11" style="stroke:#181818;stroke-width:1;"/><path d="M648.2656,540.875 Q648.4219,540.6563 648.6094,540.5469 Q648.7969,540.4375 649.0156,540.4375 Q649.3906,540.4375 649.625,540.7031 Q649.8594,540.9531 649.8594,541.5625 L649.8594,543.0156 Q649.8594,543.625 649.625,543.8906 Q649.3906,544.1563 649.0156,544.1563 Q648.6719,544.1563 648.4688,543.9531 Q648.2656,543.7656 648.1563,543.25 Q648.1094,542.8906 647.9219,542.7031 Q647.5938,542.3281 646.9844,542.1094 Q646.375,541.8906 645.75,541.8906 Q644.9844,541.8906 644.3438,542.2188 Q643.7188,542.5469 643.2188,543.2969 Q642.7344,544.0469 642.7344,545.0781 L642.7344,546.1719 Q642.7344,547.4063 643.625,548.2344 Q644.5156,549.0469 646.1094,549.0469 Q647.0469,549.0469 647.7031,548.7969 Q648.0938,548.6406 648.5156,548.2031 Q648.7813,547.9375 648.9219,547.8594 Q649.0781,547.7813 649.2813,547.7813 Q649.6094,547.7813 649.8594,548.0469 Q650.125,548.2969 650.125,548.6406 Q650.125,548.9844 649.7813,549.3906 Q649.2813,549.9688 648.4844,550.2969 Q647.4063,550.75 646.1094,550.75 Q644.5938,550.75 643.3906,550.125 Q642.4063,549.625 641.7188,548.5625 Q641.0313,547.4844 641.0313,546.2031 L641.0313,545.0469 Q641.0313,543.7188 641.6406,542.5781 Q642.2656,541.4219 643.3594,540.8125 Q644.4531,540.1875 645.6875,540.1875 Q646.4219,540.1875 647.0625,540.3594 Q647.7188,540.5156 648.2656,540.875 Z " fill="#000000"/><text fill="#000000" font-family="sans-serif" font-size="14" lengthAdjust="spacing" textLength="122.9785" x="659.5" y="550.7285">SeedButtonListener</text></g><!--class CopySeedListener--><g class="entity" data-qualified-name="controller.listeners.CopySeedListener" data-source-line="23" id="ent0017"><rect fill="#F1F1F1" height="32" rx="2.5" ry="2.5" style="stroke:#181818;stroke-width:0.5;" width="147.1855" x="634.5" y="462"/><ellipse cx="649.5" cy="478" fill="#ADD1B2" rx="11" ry="11" style="stroke:#181818;stroke-width:1;"/><path d="M652.2656,473.875 Q652.4219,473.6563 652.6094,473.5469 Q652.7969,473.4375 653.0156,473.4375 Q653.3906,473.4375 653.625,473.7031 Q653.8594,473.9531 653.8594,474.5625 L653.8594,476.0156 Q653.8594,476.625 653.625,476.8906 Q653.3906,477.1563 653.0156,477.1563 Q652.6719,477.1563 652.4688,476.9531 Q652.2656,476.7656 652.1563,476.25 Q652.1094,475.8906 651.9219,475.7031 Q651.5938,475.3281 650.9844,475.1094 Q650.375,474.8906 649.75,474.8906 Q648.9844,474.8906 648.3438,475.2188 Q647.7188,475.5469 647.2188,476.2969 Q646.7344,477.0469 646.7344,478.0781 L646.7344,479.1719 Q646.7344,480.4063 647.625,481.2344 Q648.5156,482.0469 650.1094,482.0469 Q651.0469,482.0469 651.7031,481.7969 Q652.0938,481.6406 652.5156,481.2031 Q652.7813,480.9375 652.9219,480.8594 Q653.0781,480.7813 653.2813,480.7813 Q653.6094,480.7813 653.8594,481.0469 Q654.125,481.2969 654.125,481.6406 Q654.125,481.9844 653.7813,482.3906 Q653.2813,482.9688 652.4844,483.2969 Q651.4063,483.75 650.1094,483.75 Q648.5938,483.75 647.3906,483.125 Q646.4063,482.625 645.7188,481.5625 Q645.0313,480.4844 645.0313,479.2031 L645.0313,478.0469 Q645.0313,476.7188 645.6406,475.5781 Q646.2656,474.4219 647.3594,473.8125 Q648.4531,473.1875 649.6875,473.1875 Q650.4219,473.1875 651.0625,473.3594 Q651.7188,473.5156 652.2656,473.875 Z " fill="#000000"/><text fill="#000000" font-family="sans-serif" font-size="14" lengthAdjust="spacing" textLength="115.1855" x="663.5" y="483.7285">CopySeedListener</text></g><!--class SaveGame--><g class="entity" data-qualified-name="controller.persistence.SaveGame" data-source-line="27" id="ent0019"><rect fill="#F1F1F1" height="32" rx="2.5" ry="2.5" style="stroke:#181818;stroke-width:0.5;" width="102.0342" x="854" y="86"/><ellipse cx="869" cy="102" fill="#ADD1B2" rx="11" ry="11" style="stroke:#181818;stroke-width:1;"/><path d="M871.7656,97.875 Q871.9219,97.6563 872.1094,97.5469 Q872.2969,97.4375 872.5156,97.4375 Q872.8906,97.4375 873.125,97.7031 Q873.3594,97.9531 873.3594,98.5625 L873.3594,100.0156 Q873.3594,100.625 873.125,100.8906 Q872.8906,101.1563 872.5156,101.1563 Q872.1719,101.1563 871.9688,100.9531 Q871.7656,100.7656 871.6563,100.25 Q871.6094,99.8906 871.4219,99.7031 Q871.0938,99.3281 870.4844,99.1094 Q869.875,98.8906 869.25,98.8906 Q868.4844,98.8906 867.8438,99.2188 Q867.2188,99.5469 866.7188,100.2969 Q866.2344,101.0469 866.2344,102.0781 L866.2344,103.1719 Q866.2344,104.4063 867.125,105.2344 Q868.0156,106.0469 869.6094,106.0469 Q870.5469,106.0469 871.2031,105.7969 Q871.5938,105.6406 872.0156,105.2031 Q872.2813,104.9375 872.4219,104.8594 Q872.5781,104.7813 872.7813,104.7813 Q873.1094,104.7813 873.3594,105.0469 Q873.625,105.2969 873.625,105.6406 Q873.625,105.9844 873.2813,106.3906 Q872.7813,106.9688 871.9844,107.2969 Q870.9063,107.75 869.6094,107.75 Q868.0938,107.75 866.8906,107.125 Q865.9063,106.625 865.2188,105.5625 Q864.5313,104.4844 864.5313,103.2031 L864.5313,102.0469 Q864.5313,100.7188 865.1406,99.5781 Q865.7656,98.4219 866.8594,97.8125 Q867.9531,97.1875 869.1875,97.1875 Q869.9219,97.1875 870.5625,97.3594 Q871.2188,97.5156 871.7656,97.875 Z " fill="#000000"/><text fill="#000000" font-family="sans-serif" font-size="14" lengthAdjust="spacing" textLength="70.0342" x="883" y="107.7285">SaveGame</text></g><!--class SaveGameManager--><g class="entity" data-qualified-name="controller.persistence.SaveGameManager" data-source-line="28" id="ent0020"><rect fill="#F1F1F1" height="32" rx="2.5" ry="2.5" style="stroke:#181818;stroke-width:0.5;" width="157.2891" x="629.5" y="86"/><ellipse cx="644.5" cy="102" fill="#ADD1B2" rx="11" ry="11" style="stroke:#181818;stroke-width:1;"/><path d="M647.2656,97.875 Q647.4219,97.6563 647.6094,97.5469 Q647.7969,97.4375 648.0156,97.4375 Q648.3906,97.4375 648.625,97.7031 Q648.8594,97.9531 648.8594,98.5625 L648.8594,100.0156 Q648.8594,100.625 648.625,100.8906 Q648.3906,101.1563 648.0156,101.1563 Q647.6719,101.1563 647.4688,100.9531 Q647.2656,100.7656 647.1563,100.25 Q647.1094,99.8906 646.9219,99.7031 Q646.5938,99.3281 645.9844,99.1094 Q645.375,98.8906 644.75,98.8906 Q643.9844,98.8906 643.3438,99.2188 Q642.7188,99.5469 642.2188,100.2969 Q641.7344,101.0469 641.7344,102.0781 L641.7344,103.1719 Q641.7344,104.4063 642.625,105.2344 Q643.5156,106.0469 645.1094,106.0469 Q646.0469,106.0469 646.7031,105.7969 Q647.0938,105.6406 647.5156,105.2031 Q647.7813,104.9375 647.9219,104.8594 Q648.0781,104.7813 648.2813,104.7813 Q648.6094,104.7813 648.8594,105.0469 Q649.125,105.2969 649.125,105.6406 Q649.125,105.9844 648.7813,106.3906 Q648.2813,106.9688 647.4844,107.2969 Q646.4063,107.75 645.1094,107.75 Q643.5938,107.75 642.3906,107.125 Q641.4063,106.625 640.7188,105.5625 Q640.0313,104.4844 640.0313,103.2031 L640.0313,102.0469 Q640.0313,100.7188 640.6406,99.5781 Q641.2656,98.4219 642.3594,97.8125 Q643.4531,97.1875 644.6875,97.1875 Q645.4219,97.1875 646.0625,97.3594 Q646.7188,97.5156 647.2656,97.875 Z " fill="#000000"/><text fill="#000000" font-family="sans-serif" font-size="14" lengthAdjust="spacing" textLength="125.2891" x="658.5" y="107.7285">SaveGameManager</text></g><!--class Box--><g class="entity" data-qualified-name="model.box.Box" data-source-line="32" id="ent0022"><rect fill="#F1F1F1" height="32" rx="2.5" ry="2.5" style="stroke:#181818;stroke-width:0.5;" width="56.124" x="1215" y="705"/><ellipse cx="1230" cy="721" fill="#ADD1B2" rx="11" ry="11" style="stroke:#181818;stroke-width:1;"/><path d="M1232.7656,716.875 Q1232.9219,716.6563 1233.1094,716.5469 Q1233.2969,716.4375 1233.5156,716.4375 Q1233.8906,716.4375 1234.125,716.7031 Q1234.3594,716.9531 1234.3594,717.5625 L1234.3594,719.0156 Q1234.3594,719.625 1234.125,719.8906 Q1233.8906,720.1563 1233.5156,720.1563 Q1233.1719,720.1563 1232.9688,719.9531 Q1232.7656,719.7656 1232.6563,719.25 Q1232.6094,718.8906 1232.4219,718.7031 Q1232.0938,718.3281 1231.4844,718.1094 Q1230.875,717.8906 1230.25,717.8906 Q1229.4844,717.8906 1228.8438,718.2188 Q1228.2188,718.5469 1227.7188,719.2969 Q1227.2344,720.0469 1227.2344,721.0781 L1227.2344,722.1719 Q1227.2344,723.4063 1228.125,724.2344 Q1229.0156,725.0469 1230.6094,725.0469 Q1231.5469,725.0469 1232.2031,724.7969 Q1232.5938,724.6406 1233.0156,724.2031 Q1233.2813,723.9375 1233.4219,723.8594 Q1233.5781,723.7813 1233.7813,723.7813 Q1234.1094,723.7813 1234.3594,724.0469 Q1234.625,724.2969 1234.625,724.6406 Q1234.625,724.9844 1234.2813,725.3906 Q1233.7813,725.9688 1232.9844,726.2969 Q1231.9063,726.75 1230.6094,726.75 Q1229.0938,726.75 1227.8906,726.125 Q1226.9063,725.625 1226.2188,724.5625 Q1225.5313,723.4844 1225.5313,722.2031 L1225.5313,721.0469 Q1225.5313,719.7188 1226.1406,718.5781 Q1226.7656,717.4219 1227.8594,716.8125 Q1228.9531,716.1875 1230.1875,716.1875 Q1230.9219,716.1875 1231.5625,716.3594 Q1232.2188,716.5156 1232.7656,716.875 Z " fill="#000000"/><text fill="#000000" font-family="sans-serif" font-size="14" lengthAdjust="spacing" textLength="24.124" x="1244" y="726.7285">Box</text></g><!--class Grid--><g class="entity" data-qualified-name="model.grid.Grid" data-source-line="36" id="ent0025"><rect fill="#F1F1F1" height="32" rx="2.5" ry="2.5" style="stroke:#181818;stroke-width:0.5;" width="58.4482" x="876" y="705"/><ellipse cx="891" cy="721" fill="#ADD1B2" rx="11" ry="11" style="stroke:#181818;stroke-width:1;"/><path d="M893.7656,716.875 Q893.9219,716.6563 894.1094,716.5469 Q894.2969,716.4375 894.5156,716.4375 Q894.8906,716.4375 895.125,716.7031 Q895.3594,716.9531 895.3594,717.5625 L895.3594,719.0156 Q895.3594,719.625 895.125,719.8906 Q894.8906,720.1563 894.5156,720.1563 Q894.1719,720.1563 893.9688,719.9531 Q893.7656,719.7656 893.6563,719.25 Q893.6094,718.8906 893.4219,718.7031 Q893.0938,718.3281 892.4844,718.1094 Q891.875,717.8906 891.25,717.8906 Q890.4844,717.8906 889.8438,718.2188 Q889.2188,718.5469 888.7188,719.2969 Q888.2344,720.0469 888.2344,721.0781 L888.2344,722.1719 Q888.2344,723.4063 889.125,724.2344 Q890.0156,725.0469 891.6094,725.0469 Q892.5469,725.0469 893.2031,724.7969 Q893.5938,724.6406 894.0156,724.2031 Q894.2813,723.9375 894.4219,723.8594 Q894.5781,723.7813 894.7813,723.7813 Q895.1094,723.7813 895.3594,724.0469 Q895.625,724.2969 895.625,724.6406 Q895.625,724.9844 895.2813,725.3906 Q894.7813,725.9688 893.9844,726.2969 Q892.9063,726.75 891.6094,726.75 Q890.0938,726.75 888.8906,726.125 Q887.9063,725.625 887.2188,724.5625 Q886.5313,723.4844 886.5313,722.2031 L886.5313,721.0469 Q886.5313,719.7188 887.1406,718.5781 Q887.7656,717.4219 888.8594,716.8125 Q889.9531,716.1875 891.1875,716.1875 Q891.9219,716.1875 892.5625,716.3594 Q893.2188,716.5156 893.7656,716.875 Z " fill="#000000"/><text fill="#000000" font-family="sans-serif" font-size="14" lengthAdjust="spacing" textLength="26.4482" x="905" y="726.7285">Grid</text></g><!--class GridPhysics--><g class="entity" data-qualified-name="model.grid.GridPhysics" data-source-line="37" id="ent0026"><rect fill="#F1F1F1" height="32" rx="2.5" ry="2.5" style="stroke:#181818;stroke-width:0.5;" width="106.6826" x="1032" y="772"/><ellipse cx="1047" cy="788" fill="#ADD1B2" rx="11" ry="11" style="stroke:#181818;stroke-width:1;"/><path d="M1049.7656,783.875 Q1049.9219,783.6563 1050.1094,783.5469 Q1050.2969,783.4375 1050.5156,783.4375 Q1050.8906,783.4375 1051.125,783.7031 Q1051.3594,783.9531 1051.3594,784.5625 L1051.3594,786.0156 Q1051.3594,786.625 1051.125,786.8906 Q1050.8906,787.1563 1050.5156,787.1563 Q1050.1719,787.1563 1049.9688,786.9531 Q1049.7656,786.7656 1049.6563,786.25 Q1049.6094,785.8906 1049.4219,785.7031 Q1049.0938,785.3281 1048.4844,785.1094 Q1047.875,784.8906 1047.25,784.8906 Q1046.4844,784.8906 1045.8438,785.2188 Q1045.2188,785.5469 1044.7188,786.2969 Q1044.2344,787.0469 1044.2344,788.0781 L1044.2344,789.1719 Q1044.2344,790.4063 1045.125,791.2344 Q1046.0156,792.0469 1047.6094,792.0469 Q1048.5469,792.0469 1049.2031,791.7969 Q1049.5938,791.6406 1050.0156,791.2031 Q1050.2813,790.9375 1050.4219,790.8594 Q1050.5781,790.7813 1050.7813,790.7813 Q1051.1094,790.7813 1051.3594,791.0469 Q1051.625,791.2969 1051.625,791.6406 Q1051.625,791.9844 1051.2813,792.3906 Q1050.7813,792.9688 1049.9844,793.2969 Q1048.9063,793.75 1047.6094,793.75 Q1046.0938,793.75 1044.8906,793.125 Q1043.9063,792.625 1043.2188,791.5625 Q1042.5313,790.4844 1042.5313,789.2031 L1042.5313,788.0469 Q1042.5313,786.7188 1043.1406,785.5781 Q1043.7656,784.4219 1044.8594,783.8125 Q1045.9531,783.1875 1047.1875,783.1875 Q1047.9219,783.1875 1048.5625,783.3594 Q1049.2188,783.5156 1049.7656,783.875 Z " fill="#000000"/><text fill="#000000" font-family="sans-serif" font-size="14" lengthAdjust="spacing" textLength="74.6826" x="1061" y="793.7285">GridPhysics</text></g><!--class GridMoveAnalyst--><g class="entity" data-qualified-name="model.grid.GridMoveAnalyst" data-source-line="38" id="ent0027"><rect fill="#F1F1F1" height="32" rx="2.5" ry="2.5" style="stroke:#181818;stroke-width:0.5;" width="138.5928" x="1016" y="705"/><ellipse cx="1031" cy="721" fill="#ADD1B2" rx="11" ry="11" style="stroke:#181818;stroke-width:1;"/><path d="M1033.7656,716.875 Q1033.9219,716.6563 1034.1094,716.5469 Q1034.2969,716.4375 1034.5156,716.4375 Q1034.8906,716.4375 1035.125,716.7031 Q1035.3594,716.9531 1035.3594,717.5625 L1035.3594,719.0156 Q1035.3594,719.625 1035.125,719.8906 Q1034.8906,720.1563 1034.5156,720.1563 Q1034.1719,720.1563 1033.9688,719.9531 Q1033.7656,719.7656 1033.6563,719.25 Q1033.6094,718.8906 1033.4219,718.7031 Q1033.0938,718.3281 1032.4844,718.1094 Q1031.875,717.8906 1031.25,717.8906 Q1030.4844,717.8906 1029.8438,718.2188 Q1029.2188,718.5469 1028.7188,719.2969 Q1028.2344,720.0469 1028.2344,721.0781 L1028.2344,722.1719 Q1028.2344,723.4063 1029.125,724.2344 Q1030.0156,725.0469 1031.6094,725.0469 Q1032.5469,725.0469 1033.2031,724.7969 Q1033.5938,724.6406 1034.0156,724.2031 Q1034.2813,723.9375 1034.4219,723.8594 Q1034.5781,723.7813 1034.7813,723.7813 Q1035.1094,723.7813 1035.3594,724.0469 Q1035.625,724.2969 1035.625,724.6406 Q1035.625,724.9844 1035.2813,725.3906 Q1034.7813,725.9688 1033.9844,726.2969 Q1032.9063,726.75 1031.6094,726.75 Q1030.0938,726.75 1028.8906,726.125 Q1027.9063,725.625 1027.2188,724.5625 Q1026.5313,723.4844 1026.5313,722.2031 L1026.5313,721.0469 Q1026.5313,719.7188 1027.1406,718.5781 Q1027.7656,717.4219 1028.8594,716.8125 Q1029.9531,716.1875 1031.1875,716.1875 Q1031.9219,716.1875 1032.5625,716.3594 Q1033.2188,716.5156 1033.7656,716.875 Z " fill="#000000"/><text fill="#000000" font-family="sans-serif" font-size="14" lengthAdjust="spacing" textLength="106.5928" x="1045" y="726.7285">GridMoveAnalyst</text></g><!--class GameView--><g class="entity" data-qualified-name="view.GameView" data-source-line="42" id="ent0029"><rect fill="#F1F1F1" height="32" rx="2.5" ry="2.5" style="stroke:#181818;stroke-width:0.5;" width="100.4688" x="658" y="661"/><ellipse cx="673" cy="677" fill="#ADD1B2" rx="11" ry="11" style="stroke:#181818;stroke-width:1;"/><path d="M675.7656,672.875 Q675.9219,672.6563 676.1094,672.5469 Q676.2969,672.4375 676.5156,672.4375 Q676.8906,672.4375 677.125,672.7031 Q677.3594,672.9531 677.3594,673.5625 L677.3594,675.0156 Q677.3594,675.625 677.125,675.8906 Q676.8906,676.1563 676.5156,676.1563 Q676.1719,676.1563 675.9688,675.9531 Q675.7656,675.7656 675.6563,675.25 Q675.6094,674.8906 675.4219,674.7031 Q675.0938,674.3281 674.4844,674.1094 Q673.875,673.8906 673.25,673.8906 Q672.4844,673.8906 671.8438,674.2188 Q671.2188,674.5469 670.7188,675.2969 Q670.2344,676.0469 670.2344,677.0781 L670.2344,678.1719 Q670.2344,679.4063 671.125,680.2344 Q672.0156,681.0469 673.6094,681.0469 Q674.5469,681.0469 675.2031,680.7969 Q675.5938,680.6406 676.0156,680.2031 Q676.2813,679.9375 676.4219,679.8594 Q676.5781,679.7813 676.7813,679.7813 Q677.1094,679.7813 677.3594,680.0469 Q677.625,680.2969 677.625,680.6406 Q677.625,680.9844 677.2813,681.3906 Q676.7813,681.9688 675.9844,682.2969 Q674.9063,682.75 673.6094,682.75 Q672.0938,682.75 670.8906,682.125 Q669.9063,681.625 669.2188,680.5625 Q668.5313,679.4844 668.5313,678.2031 L668.5313,677.0469 Q668.5313,675.7188 669.1406,674.5781 Q669.7656,673.4219 670.8594,672.8125 Q671.9531,672.1875 673.1875,672.1875 Q673.9219,672.1875 674.5625,672.3594 Q675.2188,672.5156 675.7656,672.875 Z " fill="#000000"/><text fill="#000000" font-family="sans-serif" font-size="14" lengthAdjust="spacing" textLength="68.4688" x="687" y="682.7285">GameView</text></g><!--link MainActivity to PlayRandomListener--><g class="link" data-entity-1="ent0003" data-entity-2="ent0012" data-link-type="dependency" data-source-line="45" id="lnk30"><path codeLine="45" d="M553.14,285.2 C575.49,284.01 596.0484,282.9079 620.7384,281.5979" fill="none" id="MainActivity-to-PlayRandomListener" style="stroke:#181818;stroke-width:1;stroke-dasharray:7,7;"/><polygon fill="#181818" points="626.73,281.28,617.5307,277.7625,621.737,281.5449,617.9546,285.7512,626.73,281.28" style="stroke:#181818;stroke-width:1;"/></g><!--link MainActivity to PlaySeedListener--><g class="link" data-entity-1="ent0003" data-entity-2="ent0013" data-link-type="dependency" data-source-line="46" id="lnk31"><path codeLine="46" d="M553.07,303.04 C565.37,308.78 577.39,316.55 586,327 C600.53,344.64 582.39,360.31 598,377 C608.43,388.15 616.775,393.6931 631.275,398.7531" fill="none" id="MainActivity-to-PlaySeedListener" style="stroke:#181818;stroke-width:1;stroke-dasharray:7,7;"/><polygon fill="#181818" points="636.94,400.73,629.7605,393.988,632.2192,399.0826,627.1246,401.5413,636.94,400.73" style="stroke:#181818;stroke-width:1;"/></g><!--link MainActivity to ResumeGameListener--><g class="link" data-entity-1="ent0003" data-entity-2="ent0014" data-link-type="dependency" data-source-line="47" id="lnk32"><path codeLine="47" d="M553.14,302.28 C582.06,310.12 612.219,318.3002 642.099,326.4002" fill="none" id="MainActivity-to-ResumeGameListener" style="stroke:#181818;stroke-width:1;stroke-dasharray:7,7;"/><polygon fill="#181818" points="647.89,327.97,640.2501,321.7546,643.0642,326.6618,638.1569,329.4759,647.89,327.97" style="stroke:#181818;stroke-width:1;"/></g><!--link MainActivity to OptionsListener--><g class="link" data-entity-1="ent0003" data-entity-2="ent0015" data-link-type="dependency" data-source-line="48" id="lnk33"><path codeLine="48" d="M548.57,266.44 C560.82,260.84 573.93,254.77 586,249 C591.38,246.43 592.46,245.21 598,243 C613.8,236.71 625.5362,232.6545 641.7962,227.7445" fill="none" id="MainActivity-to-OptionsListener" style="stroke:#181818;stroke-width:1;stroke-dasharray:7,7;"/><polygon fill="#181818" points="647.54,226.01,637.7679,224.7825,642.7535,227.4554,640.0805,232.4409,647.54,226.01" style="stroke:#181818;stroke-width:1;"/></g><!--link MainActivity to SaveGameManager--><g class="link" data-entity-1="ent0003" data-entity-2="ent0020" data-link-type="dependency" data-source-line="49" id="lnk34"><path codeLine="49" d="M553.12,273.56 C565.57,267.8 577.65,259.87 586,249 C605.5,223.62 580.87,205.03 598,178 C615.22,150.81 640.7132,133.4513 665.1932,120.7613" fill="none" id="MainActivity-to-SaveGameManager" style="stroke:#181818;stroke-width:1;stroke-dasharray:7,7;"/><polygon fill="#181818" points="670.52,118,660.6889,118.5908,666.081,120.3011,664.3707,125.6932,670.52,118" style="stroke:#181818;stroke-width:1;"/></g><!--link PlayRandomListener to GameActivity--><g class="link" data-entity-1="ent0012" data-entity-2="ent0006" data-link-type="dependency" data-source-line="51" id="lnk35"><path codeLine="51" d="M630.36,293.1 C618.9,297.47 607.7,303 598,310 C590.5,315.41 593.12,321.1 586,327 C577.33,334.18 572.4976,337.6488 562.2076,342.7888" fill="none" id="PlayRandomListener-to-GameActivity" style="stroke:#181818;stroke-width:1;stroke-dasharray:7,7;"/><polygon fill="#181818" points="556.84,345.47,566.6789,345.0266,561.313,343.2357,563.1039,337.8698,556.84,345.47" style="stroke:#181818;stroke-width:1;"/></g><!--link PlaySeedListener to SeedActivity--><g class="link" data-entity-1="ent0013" data-entity-2="ent0005" data-link-type="dependency" data-source-line="52" id="lnk36"><path codeLine="52" d="M636.82,422.22 C609.81,426.53 585.3548,430.4429 560.1448,434.4729" fill="none" id="PlaySeedListener-to-SeedActivity" style="stroke:#181818;stroke-width:1;stroke-dasharray:7,7;"/><polygon fill="#181818" points="554.22,435.42,563.7386,437.9492,559.1573,434.6307,562.4758,430.0495,554.22,435.42" style="stroke:#181818;stroke-width:1;"/></g><!--link ResumeGameListener to GameActivity--><g class="link" data-entity-1="ent0014" data-entity-2="ent0006" data-link-type="dependency" data-source-line="53" id="lnk37"><path codeLine="53" d="M621.77,353.08 C599.8,355.42 582.6862,357.2438 562.6162,359.3838" fill="none" id="ResumeGameListener-to-GameActivity" style="stroke:#181818;stroke-width:1;stroke-dasharray:7,7;"/><polygon fill="#181818" points="556.65,360.02,566.0234,363.0432,561.6218,359.4899,565.1752,355.0883,556.65,360.02" style="stroke:#181818;stroke-width:1;"/></g><!--link OptionsListener to OptionsActivity--><g class="link" data-entity-1="ent0015" data-entity-2="ent0007" data-link-type="dependency" data-source-line="54" id="lnk38"><path codeLine="54" d="M642.78,210 C617.08,210 593.61,210 568.18,210" fill="none" id="OptionsListener-to-OptionsActivity" style="stroke:#181818;stroke-width:1;stroke-dasharray:7,7;"/><polygon fill="#181818" points="562.18,210,571.18,214,567.18,210,571.18,206,562.18,210" style="stroke:#181818;stroke-width:1;"/></g><!--link SeedActivity to SeedButtonListener--><g class="link" data-entity-1="ent0005" data-entity-2="ent0016" data-link-type="dependency" data-source-line="56" id="lnk39"><path codeLine="56" d="M527.3,465.69 C546.17,480.11 572.51,498.62 598,511 C612.53,518.06 623.1401,522.2581 638.6401,527.1681" fill="none" id="SeedActivity-to-SeedButtonListener" style="stroke:#181818;stroke-width:1;stroke-dasharray:7,7;"/><polygon fill="#181818" points="644.36,528.98,636.9881,522.4489,639.5934,527.4701,634.5722,530.0754,644.36,528.98" style="stroke:#181818;stroke-width:1;"/></g><!--link SeedButtonListener to GameActivity--><g class="link" data-entity-1="ent0016" data-entity-2="ent0006" data-link-type="dependency" data-source-line="57" id="lnk40"><path codeLine="57" d="M630.32,533.51 C617.96,528.45 606.46,521.24 598,511 C567.8,474.45 613.85,443.37 586,405 C578.62,394.83 573.3241,389.9181 562.0041,384.2981" fill="none" id="SeedButtonListener-to-GameActivity" style="stroke:#181818;stroke-width:1;stroke-dasharray:7,7;"/><polygon fill="#181818" points="556.63,381.63,562.9125,389.2149,561.1084,383.8534,566.4699,382.0494,556.63,381.63" style="stroke:#181818;stroke-width:1;"/></g><!--link GameActivity to GameView--><g class="link" data-entity-1="ent0006" data-entity-2="ent0029" data-link-type="dependency" data-source-line="59" id="lnk41"><path codeLine="59" d="M556.51,381.18 C567.98,386.84 578.75,394.54 586,405 C607.83,436.49 581.37,542.48 598,577 C615.84,614.02 648.9477,640.522 675.0277,657.682" fill="none" id="GameActivity-to-GameView" style="stroke:#181818;stroke-width:1;stroke-dasharray:7,7;"/><polygon fill="#181818" points="680.04,660.98,674.7202,652.6915,675.8631,658.2317,670.3229,659.3746,680.04,660.98" style="stroke:#181818;stroke-width:1;"/></g><!--link GameActivity to GameLoop--><g class="link" data-entity-1="ent0006" data-entity-2="ent0009" data-link-type="dependency" data-source-line="60" id="lnk42"><path codeLine="60" d="M442.22,368.22 C431.81,373.08 421.55,379.42 413,387 C368.24,426.67 340.9306,489.6638 332.0006,523.0438" fill="none" id="GameActivity-to-GameLoop" style="stroke:#181818;stroke-width:1;stroke-dasharray:7,7;"/><polygon fill="#181818" points="330.45,528.84,336.64,521.1795,331.7422,524.0099,328.9118,519.112,330.45,528.84" style="stroke:#181818;stroke-width:1;"/></g><!--link GameLoop to GameActivity--><g class="link" data-entity-1="ent0009" data-entity-2="ent0006" data-link-type="dependency" data-source-line="69" id="lnk49"><path codeLine="69" d="M338.9,528.77 C352.48,502.32 377.83,453.17 413,422 C430.09,406.85 448.6764,399.2589 466.8864,390.2989" fill="none" id="GameLoop-to-GameActivity" style="stroke:#181818;stroke-width:1;stroke-dasharray:7,7;"/><polygon fill="#181818" points="472.27,387.65,462.4286,388.0343,467.7837,389.8574,465.9606,395.2125,472.27,387.65" style="stroke:#181818;stroke-width:1;"/></g><!--link GameActivity to SaveGameManager--><g class="link" data-entity-1="ent0006" data-entity-2="ent0020" data-link-type="dependency" data-source-line="61" id="lnk43"><path codeLine="61" d="M556.87,350.55 C568.18,344.91 578.79,337.29 586,327 C605.07,299.8 581.46,206.81 598,178 C613.79,150.49 638.7209,133.328 663.3609,120.808" fill="none" id="GameActivity-to-SaveGameManager" style="stroke:#181818;stroke-width:1;stroke-dasharray:7,7;"/><polygon fill="#181818" points="668.71,118.09,658.8744,118.6009,664.2524,120.355,662.4983,125.733,668.71,118.09" style="stroke:#181818;stroke-width:1;"/></g><!--link GameActivity to CopySeedListener--><g class="link" data-entity-1="ent0006" data-entity-2="ent0017" data-link-type="dependency" data-source-line="62" id="lnk44"><path codeLine="62" d="M556.62,383.35 C567.53,388.84 578.03,395.93 586,405 C597.97,418.63 585.2,431.15 598,444 C608,454.04 615.2957,459.0402 628.7257,464.0302" fill="none" id="GameActivity-to-CopySeedListener" style="stroke:#181818;stroke-width:1;stroke-dasharray:7,7;"/><polygon fill="#181818" points="634.35,466.12,627.3067,459.2358,629.6631,464.3785,624.5204,466.7349,634.35,466.12" style="stroke:#181818;stroke-width:1;"/></g><!--link GameTouchController to GameLoop--><g class="link" data-entity-1="ent0010" data-entity-2="ent0009" data-link-type="dependency" data-source-line="64" id="lnk45"><path codeLine="64" d="M216.03,545 C236.43,545 251.59,545 269.81,545" fill="none" id="GameTouchController-to-GameLoop" style="stroke:#181818;stroke-width:1;stroke-dasharray:7,7;"/><polygon fill="#181818" points="275.81,545,266.81,541,270.81,545,266.81,549,275.81,545" style="stroke:#181818;stroke-width:1;"/></g><!--link GameTouchController to GameView--><g class="link" data-entity-1="ent0010" data-entity-2="ent0029" data-link-type="dependency" data-source-line="65" id="lnk46"><path codeLine="65" d="M169.4,561.03 C222.52,583.1 323.36,622.45 413,643 C497.76,662.43 592.9612,670.6636 651.8112,674.2636" fill="none" id="GameTouchController-to-GameView" style="stroke:#181818;stroke-width:1;stroke-dasharray:7,7;"/><polygon fill="#181818" points="657.8,674.63,649.061,670.0879,652.8093,674.3247,648.5726,678.073,657.8,674.63" style="stroke:#181818;stroke-width:1;"/></g><!--link GameLoop to Grid--><g class="link" data-entity-1="ent0009" data-entity-2="ent0025" data-link-type="dependency" data-source-line="67" id="lnk47"><path codeLine="67" d="M337.71,561.17 C352.06,582.7 380.16,620.63 413,643 C562.26,744.69 789.5891,732.8402 869.8191,724.9102" fill="none" id="GameLoop-to-Grid" style="stroke:#181818;stroke-width:1;stroke-dasharray:7,7;"/><polygon fill="#181818" points="875.79,724.32,866.4402,721.2247,870.8142,724.8118,867.2271,729.1859,875.79,724.32" style="stroke:#181818;stroke-width:1;"/></g><!--link GameLoop to GameView--><g class="link" data-entity-1="ent0009" data-entity-2="ent0029" data-link-type="dependency" data-source-line="68" id="lnk48"><path codeLine="68" d="M373.65,561.05 C446.64,586.44 582.233,633.5989 655.203,658.9789" fill="none" id="GameLoop-to-GameView" style="stroke:#181818;stroke-width:1;stroke-dasharray:7,7;"/><polygon fill="#181818" points="660.87,660.95,653.6835,654.2154,656.1475,659.3074,651.0555,661.7714,660.87,660.95" style="stroke:#181818;stroke-width:1;"/></g><!--link SaveGameManager to SaveGame--><g class="link" data-entity-1="ent0020" data-entity-2="ent0019" data-link-type="dependency" data-source-line="71" id="lnk50"><path codeLine="71" d="M786.63,102 C809.25,102 827.37,102 847.81,102" fill="none" id="SaveGameManager-to-SaveGame" style="stroke:#181818;stroke-width:1;stroke-dasharray:7,7;"/><polygon fill="#181818" points="853.81,102,844.81,98,848.81,102,844.81,106,853.81,102" style="stroke:#181818;stroke-width:1;"/></g><!--link SaveGameManager to Grid--><g class="link" data-entity-1="ent0020" data-entity-2="ent0025" data-link-type="dependency" data-source-line="72" id="lnk51"><path codeLine="72" d="M747.91,118.04 C772.65,130.47 802.8,150.29 818,178 C830.89,201.5 824.15,392.48 828,419 C844.14,530.29 882.3747,654.3908 896.8447,699.1608" fill="none" id="SaveGameManager-to-Grid" style="stroke:#181818;stroke-width:1;stroke-dasharray:7,7;"/><polygon fill="#181818" points="898.69,704.87,899.7282,695.076,897.1523,700.1123,892.116,697.5364,898.69,704.87" style="stroke:#181818;stroke-width:1;"/></g><!--link SaveGameManager to Box--><g class="link" data-entity-1="ent0020" data-entity-2="ent0022" data-link-type="dependency" data-source-line="73" id="lnk52"><path codeLine="73" d="M736.67,118.06 C759.77,132.2 792.88,154.2 818,178 C1011.2,361.02 1185.6616,631.0073 1228.8516,699.8573" fill="none" id="SaveGameManager-to-Box" style="stroke:#181818;stroke-width:1;stroke-dasharray:7,7;"/><polygon fill="#181818" points="1232.04,704.94,1230.6459,695.1903,1229.383,700.7044,1223.8689,699.4415,1232.04,704.94" style="stroke:#181818;stroke-width:1;"/></g><!--link GameView to Grid--><g class="link" data-entity-1="ent0029" data-entity-2="ent0025" data-link-type="dependency" data-source-line="75" id="lnk53"><path codeLine="75" d="M758.21,688.1 C795.44,696.5 839.3873,706.4188 870.0873,713.3488" fill="none" id="GameView-to-Grid" style="stroke:#181818;stroke-width:1;stroke-dasharray:7,7;"/><polygon fill="#181818" points="875.94,714.67,868.0417,708.7864,871.0627,713.569,866.2801,716.5901,875.94,714.67" style="stroke:#181818;stroke-width:1;"/></g><!--reverse link Grid to Box--><g class="link" data-entity-1="ent0025" data-entity-2="ent0022" data-link-type="composition" data-source-line="77" id="lnk54"><path codeLine="77" d="M945.6509,705.4665 C967.5409,697.3465 987.54,691.3 1016,687 C1087.63,676.18 1108.76,669.26 1179,687 C1193.1,690.56 1207.47,697.97 1218.92,704.96" fill="none" id="Grid-backto-Box" style="stroke:#181818;stroke-width:1;"/><polygon fill="#181818" points="934.4,709.64,941.4166,711.3036,945.6509,705.4665,938.6343,703.803,934.4,709.64" style="stroke:#181818;stroke-width:1;"/></g><!--reverse link Grid to GridPhysics--><g class="link" data-entity-1="ent0025" data-entity-2="ent0026" data-link-type="composition" data-source-line="78" id="lnk55"><path codeLine="78" d="M945.5161,735.8331 C974.4261,746.6731 1008.43,759.45 1041.71,771.94" fill="none" id="Grid-backto-GridPhysics" style="stroke:#181818;stroke-width:1;"/><polygon fill="#181818" points="934.28,731.62,938.4937,737.4719,945.5161,735.8331,941.3024,729.9812,934.28,731.62" style="stroke:#181818;stroke-width:1;"/></g><!--link Grid to GridMoveAnalyst--><g class="link" data-entity-1="ent0025" data-entity-2="ent0027" data-link-type="dependency" data-source-line="79" id="lnk56"><path codeLine="79" d="M934.28,721 C956.21,721 981.53,721 1009.9,721" fill="none" id="Grid-to-GridMoveAnalyst" style="stroke:#181818;stroke-width:1;stroke-dasharray:7,7;"/><polygon fill="#181818" points="1015.9,721,1006.9,717,1010.9,721,1006.9,725,1015.9,721" style="stroke:#181818;stroke-width:1;"/></g><!--link GridPhysics to Box--><g class="link" data-entity-1="ent0026" data-entity-2="ent0022" data-link-type="dependency" data-source-line="81" id="lnk57"><path codeLine="81" d="M1134.03,771.87 C1148.62,766.57 1164.61,760.38 1179,754 C1190.96,748.69 1198.5308,744.9528 1209.4908,739.0828" fill="none" id="GridPhysics-to-Box" style="stroke:#181818;stroke-width:1;stroke-dasharray:7,7;"/><polygon fill="#181818" points="1214.78,736.25,1204.9577,736.9731,1210.3724,738.6107,1208.7348,744.0253,1214.78,736.25" style="stroke:#181818;stroke-width:1;"/></g><!--link GridMoveAnalyst to Box--><g class="link" data-entity-1="ent0027" data-entity-2="ent0022" data-link-type="dependency" data-source-line="82" id="lnk58"><path codeLine="82" d="M1155.16,721 C1176.31,721 1192.37,721 1208.97,721" fill="none" id="GridMoveAnalyst-to-Box" style="stroke:#181818;stroke-width:1;stroke-dasharray:7,7;"/><polygon fill="#181818" points="1214.97,721,1205.97,717,1209.97,721,1205.97,725,1214.97,721" style="stroke:#181818;stroke-width:1;"/></g><?plantuml-src VLFBRi8m4BpxAooEbOZw0GW9E5ILG4LGzMwIRR1mx2XsKjAg_zx48QdNDboYU6QyEzw7ld1PieeLD1LCwvKn5J_L1bvJ9O_y6-WpEVCCQ0752IfD17mQQXIjU7usDECLf8OhIKZ9qWlBWSwwYwPIGa2Li8vhkE6WP_I7q245tJ4kLmFJqiLY_5qk9yKH87kiU645F5QybRql7HVznltcNLJNQPzbgrI9W7TLf-VDTEbUBC6r0TcLp0su5wmzC9cfOdkZ4TM_Eo0EeEi2h1MVkhqnmFiuwzeO9GDgeqgSvexzidDk9Icgo94rrae0x9ZiGk1mXSf092TrTIEirJKYoYkUeSftPtJOdrlDKusmdMfW9PbejK4X6mvVVXi_EgmNeU5BacMi9L4DAbgWY3GfqFZT2WH-BKdepUhSuIU-jo6Iiq0az1P6yRovVYSDGMivfl7cB8J2P0HjxqZR3aKPku81urSh40IZJYBh6oQv9x3-o2WTu7vACU8-1A5E6R5nz9WeQTF4Y7wNo9ZoNqhwBtsQpwrWEhXhPC7nWhj7n55DEJpHXFy1?></g></svg>