<?plantuml 1.2026.2?><svg xmlns="http://www.w3.org/2000/svg" xmlns:xlink="http://www.w3.org/1999/xlink" contentStyleType="text/css" data-diagram-type="CLASS" height="998px" preserveAspectRatio="none" style="width:1535px;height:998px;background:#FFFFFF;" version="1.1" viewBox="0 0 1535 998" width="1535px" zoomAndPan="magnify"><defs/><g><!--cluster controller--><g class="cluster" data-qualified-name="controller" data-source-line="6" id="ent0004"><path d="M8.5,6 L74.0654,6 A3.75,3.75 0 0 1 76.5654,8.5 L83.5654,29.6094 L1210.5,29.6094 A2.5,2.5 0 0 1 1213,32.1094 L1213,745.5 A2.5,2.5 0 0 1 1210.5,748 L8.5,748 A2.5,2.5 0 0 1 6,745.5 L6,8.5 A2.5,2.5 0 0 1 8.5,6" fill="none" style="stroke:#000000;stroke-width:1.5;"/><line style="stroke:#000000;stroke-width:1.5;" x1="6" x2="83.5654" y1="29.6094" y2="29.6094"/><text fill="#000000" font-family="sans-serif" font-size="14" font-weight="bold" lengthAdjust="spacing" textLength="64.5654" x="10" y="22.5332">controller</text></g><!--cluster activities--><g class="cluster" data-qualified-name="controller.activities" data-source-line="5" id="ent0002"><path d="M423.5,50 L484.4238,50 A3.75,3.75 0 0 1 486.9238,52.5 L493.9238,73.6094 L775,73.6094 A2.5,2.5 0 0 1 777.5,76.1094 L777.5,265.5 A2.5,2.5 0 0 1 775,268 L423.5,268 A2.5,2.5 0 0 1 421,265.5 L421,52.5 A2.5,2.5 0 0 1 423.5,50" fill="none" style="stroke:#000000;stroke-width:1.5;"/><line style="stroke:#000000;stroke-width:1.5;" x1="421" x2="493.9238" y1="73.6094" y2="73.6094"/><text fill="#000000" font-family="sans-serif" font-size="14" font-weight="bold" lengthAdjust="spacing" textLength="59.9238" x="425" y="66.5332">activities</text></g><!--cluster game--><g class="cluster" data-qualified-name="controller.game" data-source-line="12" id="ent0008"><path d="M32.5,640 L70.0723,640 A3.75,3.75 0 0 1 72.5723,642.5 L79.5723,663.6094 L390.5,663.6094 A2.5,2.5 0 0 1 393,666.1094 L393,721.5 A2.5,2.5 0 0 1 390.5,724 L32.5,724 A2.5,2.5 0 0 1 30,721.5 L30,642.5 A2.5,2.5 0 0 1 32.5,640" fill="none" style="stroke:#000000;stroke-width:1.5;"/><line style="stroke:#000000;stroke-width:1.5;" x1="30" x2="79.5723" y1="663.6094" y2="663.6094"/><text fill="#000000" font-family="sans-serif" font-size="14" font-weight="bold" lengthAdjust="spacing" textLength="36.5723" x="34" y="656.5332">game</text></g><!--cluster listeners--><g class="cluster" data-qualified-name="controller.listeners" data-source-line="17" id="ent0011"><path d="M608.5,292 L667.0859,292 A3.75,3.75 0 0 1 669.5859,294.5 L676.5859,315.6094 L807.5,315.6094 A2.5,2.5 0 0 1 810,318.1094 L810,708.5 A2.5,2.5 0 0 1 807.5,711 L608.5,711 A2.5,2.5 0 0 1 606,708.5 L606,294.5 A2.5,2.5 0 0 1 608.5,292" fill="none" style="stroke:#000000;stroke-width:1.5;"/><line style="stroke:#000000;stroke-width:1.5;" x1="606" x2="676.5859" y1="315.6094" y2="315.6094"/><text fill="#000000" font-family="sans-serif" font-size="14" font-weight="bold" lengthAdjust="spacing" textLength="57.5859" x="610" y="308.5332">listeners</text></g><!--cluster persistence--><g class="cluster" data-qualified-name="controller.persistence" data-source-line="26" id="ent0018"><path d="M840.5,640 L919.3203,640 A3.75,3.75 0 0 1 921.8203,642.5 L928.8203,663.6094 L1186.5,663.6094 A2.5,2.5 0 0 1 1189,666.1094 L1189,721.5 A2.5,2.5 0 0 1 1186.5,724 L840.5,724 A2.5,2.5 0 0 1 838,721.5 L838,642.5 A2.5,2.5 0 0 1 840.5,640" fill="none" style="stroke:#000000;stroke-width:1.5;"/><line style="stroke:#000000;stroke-width:1.5;" x1="838" x2="928.8203" y1="663.6094" y2="663.6094"/><text fill="#000000" font-family="sans-serif" font-size="14" font-weight="bold" lengthAdjust="spacing" textLength="77.8203" x="842" y="656.5332">persistence</text></g><!--cluster model--><g class="cluster" data-qualified-name="model" data-source-line="32" id="ent0023"><path d="M1055.5,772 L1097.7275,772 A3.75,3.75 0 0 1 1100.2275,774.5 L1107.2275,795.6094 L1525.5,795.6094 A2.5,2.5 0 0 1 1528,798.1094 L1528,988.5 A2.5,2.5 0 0 1 1525.5,991 L1055.5,991 A2.5,2.5 0 0 1 1053,988.5 L1053,774.5 A2.5,2.5 0 0 1 1055.5,772" fill="none" style="stroke:#000000;stroke-width:1.5;"/><line style="stroke:#000000;stroke-width:1.5;" x1="1053" x2="1107.2275" y1="795.6094" y2="795.6094"/><text fill="#000000" font-family="sans-serif" font-size="14" font-weight="bold" lengthAdjust="spacing" textLength="41.2275" x="1057" y="788.5332">model</text></g><!--cluster box--><g class="cluster" data-qualified-name="model.box" data-source-line="31" id="ent0021"><path d="M1418.5,816 L1444.3896,816 A3.75,3.75 0 0 1 1446.8896,818.5 L1453.8896,839.6094 L1501.5,839.6094 A2.5,2.5 0 0 1 1504,842.1094 L1504,897.5 A2.5,2.5 0 0 1 1501.5,900 L1418.5,900 A2.5,2.5 0 0 1 1416,897.5 L1416,818.5 A2.5,2.5 0 0 1 1418.5,816" fill="none" style="stroke:#000000;stroke-width:1.5;"/><line style="stroke:#000000;stroke-width:1.5;" x1="1416" x2="1453.8896" y1="839.6094" y2="839.6094"/><text fill="#000000" font-family="sans-serif" font-size="14" font-weight="bold" lengthAdjust="spacing" textLength="24.8896" x="1420" y="832.5332">box</text></g><!--cluster grid--><g class="cluster" data-qualified-name="model.grid" data-source-line="35" id="ent0024"><path d="M1079.5,816 L1106.9414,816 A3.75,3.75 0 0 1 1109.4414,818.5 L1116.4414,839.6094 L1385.5,839.6094 A2.5,2.5 0 0 1 1388,842.1094 L1388,964.5 A2.5,2.5 0 0 1 1385.5,967 L1079.5,967 A2.5,2.5 0 0 1 1077,964.5 L1077,818.5 A2.5,2.5 0 0 1 1079.5,816" fill="none" style="stroke:#000000;stroke-width:1.5;"/><line style="stroke:#000000;stroke-width:1.5;" x1="1077" x2="1116.4414" y1="839.6094" y2="839.6094"/><text fill="#000000" font-family="sans-serif" font-size="14" font-weight="bold" lengthAdjust="spacing" textLength="26.4414" x="1081" y="832.5332">grid</text></g><!--cluster view--><g class="cluster" data-qualified-name="view" data-source-line="41" id="ent0028"><path d="M644.5,890 L675.8516,890 A3.75,3.75 0 0 1 678.3516,892.5 L685.3516,913.6094 L771.5,913.6094 A2.5,2.5 0 0 1 774,916.1094 L774,971.5 A2.5,2.5 0 0 1 771.5,974 L644.5,974 A2.5,2.5 0 0 1 642,971.5 L642,892.5 A2.5,2.5 0 0 1 644.5,890" fill="none" style="stroke:#000000;stroke-width:1.5;"/><line style="stroke:#000000;stroke-width:1.5;" x1="642" x2="685.3516" y1="913.6094" y2="913.6094"/><text fill="#000000" font-family="sans-serif" font-size="14" font-weight="bold" lengthAdjust="spacing" textLength="30.3516" x="646" y="906.5332">view</text></g><!--class MainActivity--><g class="entity" data-qualified-name="controller.activities.MainActivity" data-source-line="6" id="ent0003"><rect fill="#F1F1F1" height="32" rx="2.5" ry="2.5" style="stroke:#181818;stroke-width:0.5;" width="106.6826" x="654.5" y="220"/><ellipse cx="669.5" cy="236" fill="#ADD1B2" rx="11" ry="11" style="stroke:#181818;stroke-width:1;"/><path d="M672.2656,231.875 Q672.4219,231.6563 672.6094,231.5469 Q672.7969,231.4375 673.0156,231.4375 Q673.3906,231.4375 673.625,231.7031 Q673.8594,231.9531 673.8594,232.5625 L673.8594,234.0156 Q673.8594,234.625 673.625,234.8906 Q673.3906,235.1563 673.0156,235.1563 Q672.6719,235.1563 672.4688,234.9531 Q672.2656,234.7656 672.1563,234.25 Q672.1094,233.8906 671.9219,233.7031 Q671.5938,233.3281 670.9844,233.1094 Q670.375,232.8906 669.75,232.8906 Q668.9844,232.8906 668.3438,233.2188 Q667.7188,233.5469 667.2188,234.2969 Q666.7344,235.0469 666.7344,236.0781 L666.7344,237.1719 Q666.7344,238.4063 667.625,239.2344 Q668.5156,240.0469 670.1094,240.0469 Q671.0469,240.0469 671.7031,239.7969 Q672.0938,239.6406 672.5156,239.2031 Q672.7813,238.9375 672.9219,238.8594 Q673.0781,238.7813 673.2813,238.7813 Q673.6094,238.7813 673.8594,239.0469 Q674.125,239.2969 674.125,239.6406 Q674.125,239.9844 673.7813,240.3906 Q673.2813,240.9688 672.4844,241.2969 Q671.4063,241.75 670.1094,241.75 Q668.5938,241.75 667.3906,241.125 Q666.4063,240.625 665.7188,239.5625 Q665.0313,238.4844 665.0313,237.2031 L665.0313,236.0469 Q665.0313,234.7188 665.6406,233.5781 Q666.2656,232.4219 667.3594,231.8125 Q668.4531,231.1875 669.6875,231.1875 Q670.4219,231.1875 671.0625,231.3594 Q671.7188,231.5156 672.2656,231.875 Z " fill="#000000"/><text fill="#000000" font-family="sans-serif" font-size="14" lengthAdjust="spacing" textLength="74.6826" x="683.5" y="241.7285">MainActivity</text></g><!--class SeedActivity--><g class="entity" data-qualified-name="controller.activities.SeedActivity" data-source-line="7" id="ent0005"><rect fill="#F1F1F1" height="32" rx="2.5" ry="2.5" style="stroke:#181818;stroke-width:0.5;" width="109.0342" x="445" y="153"/><ellipse cx="460" cy="169" fill="#ADD1B2" rx="11" ry="11" style="stroke:#181818;stroke-width:1;"/><path d="M462.7656,164.875 Q462.9219,164.6563 463.1094,164.5469 Q463.2969,164.4375 463.5156,164.4375 Q463.8906,164.4375 464.125,164.7031 Q464.3594,164.9531 464.3594,165.5625 L464.3594,167.0156 Q464.3594,167.625 464.125,167.8906 Q463.8906,168.1563 463.5156,168.1563 Q463.1719,168.1563 462.9688,167.9531 Q462.7656,167.7656 462.6563,167.25 Q462.6094,166.8906 462.4219,166.7031 Q462.0938,166.3281 461.4844,166.1094 Q460.875,165.8906 460.25,165.8906 Q459.4844,165.8906 458.8438,166.2188 Q458.2188,166.5469 457.7188,167.2969 Q457.2344,168.0469 457.2344,169.0781 L457.2344,170.1719 Q457.2344,171.4063 458.125,172.2344 Q459.0156,173.0469 460.6094,173.0469 Q461.5469,173.0469 462.2031,172.7969 Q462.5938,172.6406 463.0156,172.2031 Q463.2813,171.9375 463.4219,171.8594 Q463.5781,171.7813 463.7813,171.7813 Q464.1094,171.7813 464.3594,172.0469 Q464.625,172.2969 464.625,172.6406 Q464.625,172.9844 464.2813,173.3906 Q463.7813,173.9688 462.9844,174.2969 Q461.9063,174.75 460.6094,174.75 Q459.0938,174.75 457.8906,174.125 Q456.9063,173.625 456.2188,172.5625 Q455.5313,171.4844 455.5313,170.2031 L455.5313,169.0469 Q455.5313,167.7188 456.1406,166.5781 Q456.7656,165.4219 457.8594,164.8125 Q458.9531,164.1875 460.1875,164.1875 Q460.9219,164.1875 461.5625,164.3594 Q462.2188,164.5156 462.7656,164.875 Z " fill="#000000"/><text fill="#000000" font-family="sans-serif" font-size="14" lengthAdjust="spacing" textLength="77.0342" x="474" y="174.7285">SeedActivity</text></g><!--class GameActivity--><g class="entity" data-qualified-name="controller.activities.GameActivity" data-source-line="8" id="ent0006"><rect fill="#F1F1F1" height="32" rx="2.5" ry="2.5" style="stroke:#181818;stroke-width:0.5;" width="114.4619" x="442.5" y="220"/><ellipse cx="457.5" cy="236" fill="#ADD1B2" rx="11" ry="11" style="stroke:#181818;stroke-width:1;"/><path d="M460.2656,231.875 Q460.4219,231.6563 460.6094,231.5469 Q460.7969,231.4375 461.0156,231.4375 Q461.3906,231.4375 461.625,231.7031 Q461.8594,231.9531 461.8594,232.5625 L461.8594,234.0156 Q461.8594,234.625 461.625,234.8906 Q461.3906,235.1563 461.0156,235.1563 Q460.6719,235.1563 460.4688,234.9531 Q460.2656,234.7656 460.1563,234.25 Q460.1094,233.8906 459.9219,233.7031 Q459.5938,233.3281 458.9844,233.1094 Q458.375,232.8906 457.75,232.8906 Q456.9844,232.8906 456.3438,233.2188 Q455.7188,233.5469 455.2188,234.2969 Q454.7344,235.0469 454.7344,236.0781 L454.7344,237.1719 Q454.7344,238.4063 455.625,239.2344 Q456.5156,240.0469 458.1094,240.0469 Q459.0469,240.0469 459.7031,239.7969 Q460.0938,239.6406 460.5156,239.2031 Q460.7813,238.9375 460.9219,238.8594 Q461.0781,238.7813 461.2813,238.7813 Q461.6094,238.7813 461.8594,239.0469 Q462.125,239.2969 462.125,239.6406 Q462.125,239.9844 461.7813,240.3906 Q461.2813,240.9688 460.4844,241.2969 Q459.4063,241.75 458.1094,241.75 Q456.5938,241.75 455.3906,241.125 Q454.4063,240.625 453.7188,239.5625 Q453.0313,238.4844 453.0313,237.2031 L453.0313,236.0469 Q453.0313,234.7188 453.6406,233.5781 Q454.2656,232.4219 455.3594,231.8125 Q456.4531,231.1875 457.6875,231.1875 Q458.4219,231.1875 459.0625,231.3594 Q459.7188,231.5156 460.2656,231.875 Z " fill="#000000"/><text fill="#000000" font-family="sans-serif" font-size="14" lengthAdjust="spacing" textLength="82.4619" x="471.5" y="241.7285">GameActivity</text></g><!--class OptionsActivity--><g class="entity" data-qualified-name="controller.activities.OptionsActivity" data-source-line="9" id="ent0007"><rect fill="#F1F1F1" height="32" rx="2.5" ry="2.5" style="stroke:#181818;stroke-width:0.5;" width="124.5859" x="437" y="86"/><ellipse cx="452" cy="102" fill="#ADD1B2" rx="11" ry="11" style="stroke:#181818;stroke-width:1;"/><path d="M454.7656,97.875 Q454.9219,97.6563 455.1094,97.5469 Q455.2969,97.4375 455.5156,97.4375 Q455.8906,97.4375 456.125,97.7031 Q456.3594,97.9531 456.3594,98.5625 L456.3594,100.0156 Q456.3594,100.625 456.125,100.8906 Q455.8906,101.1563 455.5156,101.1563 Q455.1719,101.1563 454.9688,100.9531 Q454.7656,100.7656 454.6563,100.25 Q454.6094,99.8906 454.4219,99.7031 Q454.0938,99.3281 453.4844,99.1094 Q452.875,98.8906 452.25,98.8906 Q451.4844,98.8906 450.8438,99.2188 Q450.2188,99.5469 449.7188,100.2969 Q449.2344,101.0469 449.2344,102.0781 L449.2344,103.1719 Q449.2344,104.4063 450.125,105.2344 Q451.0156,106.0469 452.6094,106.0469 Q453.5469,106.0469 454.2031,105.7969 Q454.5938,105.6406 455.0156,105.2031 Q455.2813,104.9375 455.4219,104.8594 Q455.5781,104.7813 455.7813,104.7813 Q456.1094,104.7813 456.3594,105.0469 Q456.625,105.2969 456.625,105.6406 Q456.625,105.9844 456.2813,106.3906 Q455.7813,106.9688 454.9844,107.2969 Q453.9063,107.75 452.6094,107.75 Q451.0938,107.75 449.8906,107.125 Q448.9063,106.625 448.2188,105.5625 Q447.5313,104.4844 447.5313,103.2031 L447.5313,102.0469 Q447.5313,100.7188 448.1406,99.5781 Q448.7656,98.4219 449.8594,97.8125 Q450.9531,97.1875 452.1875,97.1875 Q452.9219,97.1875 453.5625,97.3594 Q454.2188,97.5156 454.7656,97.875 Z " fill="#000000"/><text fill="#000000" font-family="sans-serif" font-size="14" lengthAdjust="spacing" textLength="92.5859" x="466" y="107.7285">OptionsActivity</text></g><!--class GameLoop--><g class="entity" data-qualified-name="controller.game.GameLoop" data-source-line="13" id="ent0009"><rect fill="#F1F1F1" height="32" rx="2.5" ry="2.5" style="stroke:#181818;stroke-width:0.5;" width="101.2686" x="276" y="676"/><ellipse cx="291" cy="692" fill="#ADD1B2" rx="11" ry="11" style="stroke:#181818;stroke-width:1;"/><path d="M293.7656,687.875 Q293.9219,687.6563 294.1094,687.5469 Q294.2969,687.4375 294.5156,687.4375 Q294.8906,687.4375 295.125,687.7031 Q295.3594,687.9531 295.3594,688.5625 L295.3594,690.0156 Q295.3594,690.625 295.125,690.8906 Q294.8906,691.1563 294.5156,691.1563 Q294.1719,691.1563 293.9688,690.9531 Q293.7656,690.7656 293.6563,690.25 Q293.6094,689.8906 293.4219,689.7031 Q293.0938,689.3281 292.4844,689.1094 Q291.875,688.8906 291.25,688.8906 Q290.4844,688.8906 289.8438,689.2188 Q289.2188,689.5469 288.7188,690.2969 Q288.2344,691.0469 288.2344,692.0781 L288.2344,693.1719 Q288.2344,694.4063 289.125,695.2344 Q290.0156,696.0469 291.6094,696.0469 Q292.5469,696.0469 293.2031,695.7969 Q293.5938,695.6406 294.0156,695.2031 Q294.2813,694.9375 294.4219,694.8594 Q294.5781,694.7813 294.7813,694.7813 Q295.1094,694.7813 295.3594,695.0469 Q295.625,695.2969 295.625,695.6406 Q295.625,695.9844 295.2813,696.3906 Q294.7813,696.9688 293.9844,697.2969 Q292.9063,697.75 291.6094,697.75 Q290.0938,697.75 288.8906,697.125 Q287.9063,696.625 287.2188,695.5625 Q286.5313,694.4844 286.5313,693.2031 L286.5313,692.0469 Q286.5313,690.7188 287.1406,689.5781 Q287.7656,688.4219 288.8594,687.8125 Q289.9531,687.1875 291.1875,687.1875 Q291.9219,687.1875 292.5625,687.3594 Q293.2188,687.5156 293.7656,687.875 Z " fill="#000000"/><text fill="#000000" font-family="sans-serif" font-size="14" lengthAdjust="spacing" textLength="69.2686" x="305" y="697.7285">GameLoop</text></g><!--class GameTouchController--><g class="entity" data-qualified-name="controller.game.GameTouchController" data-source-line="14" id="ent0010"><rect fill="#F1F1F1" height="32" rx="2.5" ry="2.5" style="stroke:#181818;stroke-width:0.5;" width="169.7236" x="46" y="676"/><ellipse cx="61" cy="692" fill="#ADD1B2" rx="11" ry="11" style="stroke:#181818;stroke-width:1;"/><path d="M63.7656,687.875 Q63.9219,687.6563 64.1094,687.5469 Q64.2969,687.4375 64.5156,687.4375 Q64.8906,687.4375 65.125,687.7031 Q65.3594,687.9531 65.3594,688.5625 L65.3594,690.0156 Q65.3594,690.625 65.125,690.8906 Q64.8906,691.1563 64.5156,691.1563 Q64.1719,691.1563 63.9688,690.9531 Q63.7656,690.7656 63.6563,690.25 Q63.6094,689.8906 63.4219,689.7031 Q63.0938,689.3281 62.4844,689.1094 Q61.875,688.8906 61.25,688.8906 Q60.4844,688.8906 59.8438,689.2188 Q59.2188,689.5469 58.7188,690.2969 Q58.2344,691.0469 58.2344,692.0781 L58.2344,693.1719 Q58.2344,694.4063 59.125,695.2344 Q60.0156,696.0469 61.6094,696.0469 Q62.5469,696.0469 63.2031,695.7969 Q63.5938,695.6406 64.0156,695.2031 Q64.2813,694.9375 64.4219,694.8594 Q64.5781,694.7813 64.7813,694.7813 Q65.1094,694.7813 65.3594,695.0469 Q65.625,695.2969 65.625,695.6406 Q65.625,695.9844 65.2813,696.3906 Q64.7813,696.9688 63.9844,697.2969 Q62.9063,697.75 61.6094,697.75 Q60.0938,697.75 58.8906,697.125 Q57.9063,696.625 57.2188,695.5625 Q56.5313,694.4844 56.5313,693.2031 L56.5313,692.0469 Q56.5313,690.7188 57.1406,689.5781 Q57.7656,688.4219 58.8594,687.8125 Q59.9531,687.1875 61.1875,687.1875 Q61.9219,687.1875 62.5625,687.3594 Q63.2188,687.5156 63.7656,687.875 Z " fill="#000000"/><text fill="#000000" font-family="sans-serif" font-size="14" lengthAdjust="spacing" textLength="137.7236" x="75" y="697.7285">GameTouchController</text></g><!--class PlayRandomListener--><g class="entity" data-qualified-name="controller.listeners.PlayRandomListener" data-source-line="18" id="ent0012"><rect fill="#F1F1F1" height="32" rx="2.5" ry="2.5" style="stroke:#181818;stroke-width:0.5;" width="161.958" x="627" y="663"/><ellipse cx="642" cy="679" fill="#ADD1B2" rx="11" ry="11" style="stroke:#181818;stroke-width:1;"/><path d="M644.7656,674.875 Q644.9219,674.6563 645.1094,674.5469 Q645.2969,674.4375 645.5156,674.4375 Q645.8906,674.4375 646.125,674.7031 Q646.3594,674.9531 646.3594,675.5625 L646.3594,677.0156 Q646.3594,677.625 646.125,677.8906 Q645.8906,678.1563 645.5156,678.1563 Q645.1719,678.1563 644.9688,677.9531 Q644.7656,677.7656 644.6563,677.25 Q644.6094,676.8906 644.4219,676.7031 Q644.0938,676.3281 643.4844,676.1094 Q642.875,675.8906 642.25,675.8906 Q641.4844,675.8906 640.8438,676.2188 Q640.2188,676.5469 639.7188,677.2969 Q639.2344,678.0469 639.2344,679.0781 L639.2344,680.1719 Q639.2344,681.4063 640.125,682.2344 Q641.0156,683.0469 642.6094,683.0469 Q643.5469,683.0469 644.2031,682.7969 Q644.5938,682.6406 645.0156,682.2031 Q645.2813,681.9375 645.4219,681.8594 Q645.5781,681.7813 645.7813,681.7813 Q646.1094,681.7813 646.3594,682.0469 Q646.625,682.2969 646.625,682.6406 Q646.625,682.9844 646.2813,683.3906 Q645.7813,683.9688 644.9844,684.2969 Q643.9063,684.75 642.6094,684.75 Q641.0938,684.75 639.8906,684.125 Q638.9063,683.625 638.2188,682.5625 Q637.5313,681.4844 637.5313,680.2031 L637.5313,679.0469 Q637.5313,677.7188 638.1406,676.5781 Q638.7656,675.4219 639.8594,674.8125 Q640.9531,674.1875 642.1875,674.1875 Q642.9219,674.1875 643.5625,674.3594 Q644.2188,674.5156 644.7656,674.875 Z " fill="#000000"/><text fill="#000000" font-family="sans-serif" font-size="14" lengthAdjust="spacing" textLength="129.958" x="656" y="684.7285">PlayRandomListener</text></g><!--class PlaySeedListener--><g class="entity" data-qualified-name="controller.listeners.PlaySeedListener" data-source-line="19" id="ent0013"><rect fill="#F1F1F1" height="32" rx="2.5" ry="2.5" style="stroke:#181818;stroke-width:0.5;" width="141.7373" x="637" y="395"/><ellipse cx="652" cy="411" fill="#ADD1B2" rx="11" ry="11" style="stroke:#181818;stroke-width:1;"/><path d="M654.7656,406.875 Q654.9219,406.6563 655.1094,406.5469 Q655.2969,406.4375 655.5156,406.4375 Q655.8906,406.4375 656.125,406.7031 Q656.3594,406.9531 656.3594,407.5625 L656.3594,409.0156 Q656.3594,409.625 656.125,409.8906 Q655.8906,410.1563 655.5156,410.1563 Q655.1719,410.1563 654.9688,409.9531 Q654.7656,409.7656 654.6563,409.25 Q654.6094,408.8906 654.4219,408.7031 Q654.0938,408.3281 653.4844,408.1094 Q652.875,407.8906 652.25,407.8906 Q651.4844,407.8906 650.8438,408.2188 Q650.2188,408.5469 649.7188,409.2969 Q649.2344,410.0469 649.2344,411.0781 L649.2344,412.1719 Q649.2344,413.4063 650.125,414.2344 Q651.0156,415.0469 652.6094,415.0469 Q653.5469,415.0469 654.2031,414.7969 Q654.5938,414.6406 655.0156,414.2031 Q655.2813,413.9375 655.4219,413.8594 Q655.5781,413.7813 655.7813,413.7813 Q656.1094,413.7813 656.3594,414.0469 Q656.625,414.2969 656.625,414.6406 Q656.625,414.9844 656.2813,415.3906 Q655.7813,415.9688 654.9844,416.2969 Q653.9063,416.75 652.6094,416.75 Q651.0938,416.75 649.8906,416.125 Q648.9063,415.625 648.2188,414.5625 Q647.5313,413.4844 647.5313,412.2031 L647.5313,411.0469 Q647.5313,409.7188 648.1406,408.5781 Q648.7656,407.4219 649.8594,406.8125 Q650.9531,406.1875 652.1875,406.1875 Q652.9219,406.1875 653.5625,406.3594 Q654.2188,406.5156 654.7656,406.875 Z " fill="#000000"/><text fill="#000000" font-family="sans-serif" font-size="14" lengthAdjust="spacing" textLength="109.7373" x="666" y="416.7285">PlaySeedListener</text></g><!--class ResumeGameListener--><g class="entity" data-qualified-name="controller.listeners.ResumeGameListener" data-source-line="20" id="ent0014"><rect fill="#F1F1F1" height="32" rx="2.5" ry="2.5" style="stroke:#181818;stroke-width:0.5;" width="172.0615" x="622" y="596"/><ellipse cx="637" cy="612" fill="#ADD1B2" rx="11" ry="11" style="stroke:#181818;stroke-width:1;"/><path d="M639.7656,607.875 Q639.9219,607.6563 640.1094,607.5469 Q640.2969,607.4375 640.5156,607.4375 Q640.8906,607.4375 641.125,607.7031 Q641.3594,607.9531 641.3594,608.5625 L641.3594,610.0156 Q641.3594,610.625 641.125,610.8906 Q640.8906,611.1563 640.5156,611.1563 Q640.1719,611.1563 639.9688,610.9531 Q639.7656,610.7656 639.6563,610.25 Q639.6094,609.8906 639.4219,609.7031 Q639.0938,609.3281 638.4844,609.1094 Q637.875,608.8906 637.25,608.8906 Q636.4844,608.8906 635.8438,609.2188 Q635.2188,609.5469 634.7188,610.2969 Q634.2344,611.0469 634.2344,612.0781 L634.2344,613.1719 Q634.2344,614.4063 635.125,615.2344 Q636.0156,616.0469 637.6094,616.0469 Q638.5469,616.0469 639.2031,615.7969 Q639.5938,615.6406 640.0156,615.2031 Q640.2813,614.9375 640.4219,614.8594 Q640.5781,614.7813 640.7813,614.7813 Q641.1094,614.7813 641.3594,615.0469 Q641.625,615.2969 641.625,615.6406 Q641.625,615.9844 641.2813,616.3906 Q640.7813,616.9688 639.9844,617.2969 Q638.9063,617.75 637.6094,617.75 Q636.0938,617.75 634.8906,617.125 Q633.9063,616.625 633.2188,615.5625 Q632.5313,614.4844 632.5313,613.2031 L632.5313,612.0469 Q632.5313,610.7188 633.1406,609.5781 Q633.7656,608.4219 634.8594,607.8125 Q635.9531,607.1875 637.1875,607.1875 Q637.9219,607.1875 638.5625,607.3594 Q639.2188,607.5156 639.7656,607.875 Z " fill="#000000"/><text fill="#000000" font-family="sans-serif" font-size="14" lengthAdjust="spacing" textLength="140.0615" x="651" y="617.7285">ResumeGameListener</text></g><!--class OptionsListener--><g class="entity" data-qualified-name="controller.listeners.OptionsListener" data-source-line="21" id="ent0015"><rect fill="#F1F1F1" height="32" rx="2.5" ry="2.5" style="stroke:#181818;stroke-width:0.5;" width="130.0547" x="643" y="328"/><ellipse cx="658" cy="344" fill="#ADD1B2" rx="11" ry="11" style="stroke:#181818;stroke-width:1;"/><path d="M660.7656,339.875 Q660.9219,339.6563 661.1094,339.5469 Q661.2969,339.4375 661.5156,339.4375 Q661.8906,339.4375 662.125,339.7031 Q662.3594,339.9531 662.3594,340.5625 L662.3594,342.0156 Q662.3594,342.625 662.125,342.8906 Q661.8906,343.1563 661.5156,343.1563 Q661.1719,343.1563 660.9688,342.9531 Q660.7656,342.7656 660.6563,342.25 Q660.6094,341.8906 660.4219,341.7031 Q660.0938,341.3281 659.4844,341.1094 Q658.875,340.8906 658.25,340.8906 Q657.4844,340.8906 656.8438,341.2188 Q656.2188,341.5469 655.7188,342.2969 Q655.2344,343.0469 655.2344,344.0781 L655.2344,345.1719 Q655.2344,346.4063 656.125,347.2344 Q657.0156,348.0469 658.6094,348.0469 Q659.5469,348.0469 660.2031,347.7969 Q660.5938,347.6406 661.0156,347.2031 Q661.2813,346.9375 661.4219,346.8594 Q661.5781,346.7813 661.7813,346.7813 Q662.1094,346.7813 662.3594,347.0469 Q662.625,347.2969 662.625,347.6406 Q662.625,347.9844 662.2813,348.3906 Q661.7813,348.9688 660.9844,349.2969 Q659.9063,349.75 658.6094,349.75 Q657.0938,349.75 655.8906,349.125 Q654.9063,348.625 654.2188,347.5625 Q653.5313,346.4844 653.5313,345.2031 L653.5313,344.0469 Q653.5313,342.7188 654.1406,341.5781 Q654.7656,340.4219 655.8594,339.8125 Q656.9531,339.1875 658.1875,339.1875 Q658.9219,339.1875 659.5625,339.3594 Q660.2188,339.5156 660.7656,339.875 Z " fill="#000000"/><text fill="#000000" font-family="sans-serif" font-size="14" lengthAdjust="spacing" textLength="98.0547" x="672" y="349.7285">OptionsListener</text></g><!--class SeedButtonListener--><g class="entity" data-qualified-name="controller.listeners.SeedButtonListener" data-source-line="22" id="ent0016"><rect fill="#F1F1F1" height="32" rx="2.5" ry="2.5" style="stroke:#181818;stroke-width:0.5;" width="154.9785" x="630.5" y="462"/><ellipse cx="645.5" cy="478" fill="#ADD1B2" rx="11" ry="11" style="stroke:#181818;stroke-width:1;"/><path d="M648.2656,473.875 Q648.4219,473.6563 648.6094,473.5469 Q648.7969,473.4375 649.0156,473.4375 Q649.3906,473.4375 649.625,473.7031 Q649.8594,473.9531 649.8594,474.5625 L649.8594,476.0156 Q649.8594,476.625 649.625,476.8906 Q649.3906,477.1563 649.0156,477.1563 Q648.6719,477.1563 648.4688,476.9531 Q648.2656,476.7656 648.1563,476.25 Q648.1094,475.8906 647.9219,475.7031 Q647.5938,475.3281 646.9844,475.1094 Q646.375,474.8906 645.75,474.8906 Q644.9844,474.8906 644.3438,475.2188 Q643.7188,475.5469 643.2188,476.2969 Q642.7344,477.0469 642.7344,478.0781 L642.7344,479.1719 Q642.7344,480.4063 643.625,481.2344 Q644.5156,482.0469 646.1094,482.0469 Q647.0469,482.0469 647.7031,481.7969 Q648.0938,481.6406 648.5156,481.2031 Q648.7813,480.9375 648.9219,480.8594 Q649.0781,480.7813 649.2813,480.7813 Q649.6094,480.7813 649.8594,481.0469 Q650.125,481.2969 650.125,481.6406 Q650.125,481.9844 649.7813,482.3906 Q649.2813,482.9688 648.4844,483.2969 Q647.4063,483.75 646.1094,483.75 Q644.5938,483.75 643.3906,483.125 Q642.4063,482.625 641.7188,481.5625 Q641.0313,480.4844 641.0313,479.2031 L641.0313,478.0469 Q641.0313,476.7188 641.6406,475.5781 Q642.2656,474.4219 643.3594,473.8125 Q644.4531,473.1875 645.6875,473.1875 Q646.4219,473.1875 647.0625,473.3594 Q647.7188,473.5156 648.2656,473.875 Z " fill="#000000"/><text fill="#000000" font-family="sans-serif" font-size="14" lengthAdjust="spacing" textLength="122.9785" x="659.5" y="483.7285">SeedButtonListener</text></g><!--class CopySeedListener--><g class="entity" data-qualified-name="controller.listeners.CopySeedListener" data-source-line="23" id="ent0017"><rect fill="#F1F1F1" height="32" rx="2.5" ry="2.5" style="stroke:#181818;stroke-width:0.5;" width="147.1855" x="634.5" y="529"/><ellipse cx="649.5" cy="545" fill="#ADD1B2" rx="11" ry="11" style="stroke:#181818;stroke-width:1;"/><path d="M652.2656,540.875 Q652.4219,540.6563 652.6094,540.5469 Q652.7969,540.4375 653.0156,540.4375 Q653.3906,540.4375 653.625,540.7031 Q653.8594,540.9531 653.8594,541.5625 L653.8594,543.0156 Q653.8594,543.625 653.625,543.8906 Q653.3906,544.1563 653.0156,544.1563 Q652.6719,544.1563 652.4688,543.9531 Q652.2656,543.7656 652.1563,543.25 Q652.1094,542.8906 651.9219,542.7031 Q651.5938,542.3281 650.9844,542.1094 Q650.375,541.8906 649.75,541.8906 Q648.9844,541.8906 648.3438,542.2188 Q647.7188,542.5469 647.2188,543.2969 Q646.7344,544.0469 646.7344,545.0781 L646.7344,546.1719 Q646.7344,547.4063 647.625,548.2344 Q648.5156,549.0469 650.1094,549.0469 Q651.0469,549.0469 651.7031,548.7969 Q652.0938,548.6406 652.5156,548.2031 Q652.7813,547.9375 652.9219,547.8594 Q653.0781,547.7813 653.2813,547.7813 Q653.6094,547.7813 653.8594,548.0469 Q654.125,548.2969 654.125,548.6406 Q654.125,548.9844 653.7813,549.3906 Q653.2813,549.9688 652.4844,550.2969 Q651.4063,550.75 650.1094,550.75 Q648.5938,550.75 647.3906,550.125 Q646.4063,549.625 645.7188,548.5625 Q645.0313,547.4844 645.0313,546.2031 L645.0313,545.0469 Q645.0313,543.7188 645.6406,542.5781 Q646.2656,541.4219 647.3594,540.8125 Q648.4531,540.1875 649.6875,540.1875 Q650.4219,540.1875 651.0625,540.3594 Q651.7188,540.5156 652.2656,540.875 Z " fill="#000000"/><text fill="#000000" font-family="sans-serif" font-size="14" lengthAdjust="spacing" textLength="115.1855" x="663.5" y="550.7285">CopySeedListener</text></g><!--class SaveGame--><g class="entity" data-qualified-name="controller.persistence.SaveGame" data-source-line="27" id="ent0019"><rect fill="#F1F1F1" height="32" rx="2.5" ry="2.5" style="stroke:#181818;stroke-width:0.5;" width="102.0342" x="1071" y="676"/><ellipse cx="1086" cy="692" fill="#ADD1B2" rx="11" ry="11" style="stroke:#181818;stroke-width:1;"/><path d="M1088.7656,687.875 Q1088.9219,687.6563 1089.1094,687.5469 Q1089.2969,687.4375 1089.5156,687.4375 Q1089.8906,687.4375 1090.125,687.7031 Q1090.3594,687.9531 1090.3594,688.5625 L1090.3594,690.0156 Q1090.3594,690.625 1090.125,690.8906 Q1089.8906,691.1563 1089.5156,691.1563 Q1089.1719,691.1563 1088.9688,690.9531 Q1088.7656,690.7656 1088.6563,690.25 Q1088.6094,689.8906 1088.4219,689.7031 Q1088.0938,689.3281 1087.4844,689.1094 Q1086.875,688.8906 1086.25,688.8906 Q1085.4844,688.8906 1084.8438,689.2188 Q1084.2188,689.5469 1083.7188,690.2969 Q1083.2344,691.0469 1083.2344,692.0781 L1083.2344,693.1719 Q1083.2344,694.4063 1084.125,695.2344 Q1085.0156,696.0469 1086.6094,696.0469 Q1087.5469,696.0469 1088.2031,695.7969 Q1088.5938,695.6406 1089.0156,695.2031 Q1089.2813,694.9375 1089.4219,694.8594 Q1089.5781,694.7813 1089.7813,694.7813 Q1090.1094,694.7813 1090.3594,695.0469 Q1090.625,695.2969 1090.625,695.6406 Q1090.625,695.9844 1090.2813,696.3906 Q1089.7813,696.9688 1088.9844,697.2969 Q1087.9063,697.75 1086.6094,697.75 Q1085.0938,697.75 1083.8906,697.125 Q1082.9063,696.625 1082.2188,695.5625 Q1081.5313,694.4844 1081.5313,693.2031 L1081.5313,692.0469 Q1081.5313,690.7188 1082.1406,689.5781 Q1082.7656,688.4219 1083.8594,687.8125 Q1084.9531,687.1875 1086.1875,687.1875 Q1086.9219,687.1875 1087.5625,687.3594 Q1088.2188,687.5156 1088.7656,687.875 Z " fill="#000000"/><text fill="#000000" font-family="sans-serif" font-size="14" lengthAdjust="spacing" textLength="70.0342" x="1100" y="697.7285">SaveGame</text></g><!--class SaveGameManager--><g class="entity" data-qualified-name="controller.persistence.SaveGameManager" data-source-line="28" id="ent0020"><rect fill="#F1F1F1" height="32" rx="2.5" ry="2.5" style="stroke:#181818;stroke-width:0.5;" width="157.2891" x="854" y="676"/><ellipse cx="869" cy="692" fill="#ADD1B2" rx="11" ry="11" style="stroke:#181818;stroke-width:1;"/><path d="M871.7656,687.875 Q871.9219,687.6563 872.1094,687.5469 Q872.2969,687.4375 872.5156,687.4375 Q872.8906,687.4375 873.125,687.7031 Q873.3594,687.9531 873.3594,688.5625 L873.3594,690.0156 Q873.3594,690.625 873.125,690.8906 Q872.8906,691.1563 872.5156,691.1563 Q872.1719,691.1563 871.9688,690.9531 Q871.7656,690.7656 871.6563,690.25 Q871.6094,689.8906 871.4219,689.7031 Q871.0938,689.3281 870.4844,689.1094 Q869.875,688.8906 869.25,688.8906 Q868.4844,688.8906 867.8438,689.2188 Q867.2188,689.5469 866.7188,690.2969 Q866.2344,691.0469 866.2344,692.0781 L866.2344,693.1719 Q866.2344,694.4063 867.125,695.2344 Q868.0156,696.0469 869.6094,696.0469 Q870.5469,696.0469 871.2031,695.7969 Q871.5938,695.6406 872.0156,695.2031 Q872.2813,694.9375 872.4219,694.8594 Q872.5781,694.7813 872.7813,694.7813 Q873.1094,694.7813 873.3594,695.0469 Q873.625,695.2969 873.625,695.6406 Q873.625,695.9844 873.2813,696.3906 Q872.7813,696.9688 871.9844,697.2969 Q870.9063,697.75 869.6094,697.75 Q868.0938,697.75 866.8906,697.125 Q865.9063,696.625 865.2188,695.5625 Q864.5313,694.4844 864.5313,693.2031 L864.5313,692.0469 Q864.5313,690.7188 865.1406,689.5781 Q865.7656,688.4219 866.8594,687.8125 Q867.9531,687.1875 869.1875,687.1875 Q869.9219,687.1875 870.5625,687.3594 Q871.2188,687.5156 871.7656,687.875 Z " fill="#000000"/><text fill="#000000" font-family="sans-serif" font-size="14" lengthAdjust="spacing" textLength="125.2891" x="883" y="697.7285">SaveGameManager</text></g><!--class Box--><g class="entity" data-qualified-name="model.box.Box" data-source-line="32" id="ent0022"><rect fill="#F1F1F1" height="32" rx="2.5" ry="2.5" style="stroke:#181818;stroke-width:0.5;" width="56.124" x="1432" y="852"/><ellipse cx="1447" cy="868" fill="#ADD1B2" rx="11" ry="11" style="stroke:#181818;stroke-width:1;"/><path d="M1449.7656,863.875 Q1449.9219,863.6563 1450.1094,863.5469 Q1450.2969,863.4375 1450.5156,863.4375 Q1450.8906,863.4375 1451.125,863.7031 Q1451.3594,863.9531 1451.3594,864.5625 L1451.3594,866.0156 Q1451.3594,866.625 1451.125,866.8906 Q1450.8906,867.1563 1450.5156,867.1563 Q1450.1719,867.1563 1449.9688,866.9531 Q1449.7656,866.7656 1449.6563,866.25 Q1449.6094,865.8906 1449.4219,865.7031 Q1449.0938,865.3281 1448.4844,865.1094 Q1447.875,864.8906 1447.25,864.8906 Q1446.4844,864.8906 1445.8438,865.2188 Q1445.2188,865.5469 1444.7188,866.2969 Q1444.2344,867.0469 1444.2344,868.0781 L1444.2344,869.1719 Q1444.2344,870.4063 1445.125,871.2344 Q1446.0156,872.0469 1447.6094,872.0469 Q1448.5469,872.0469 1449.2031,871.7969 Q1449.5938,871.6406 1450.0156,871.2031 Q1450.2813,870.9375 1450.4219,870.8594 Q1450.5781,870.7813 1450.7813,870.7813 Q1451.1094,870.7813 1451.3594,871.0469 Q1451.625,871.2969 1451.625,871.6406 Q1451.625,871.9844 1451.2813,872.3906 Q1450.7813,872.9688 1449.9844,873.2969 Q1448.9063,873.75 1447.6094,873.75 Q1446.0938,873.75 1444.8906,873.125 Q1443.9063,872.625 1443.2188,871.5625 Q1442.5313,870.4844 1442.5313,869.2031 L1442.5313,868.0469 Q1442.5313,866.7188 1443.1406,865.5781 Q1443.7656,864.4219 1444.8594,863.8125 Q1445.9531,863.1875 1447.1875,863.1875 Q1447.9219,863.1875 1448.5625,863.3594 Q1449.2188,863.5156 1449.7656,863.875 Z " fill="#000000"/><text fill="#000000" font-family="sans-serif" font-size="14" lengthAdjust="spacing" textLength="24.124" x="1461" y="873.7285">Box</text></g><!--class Grid--><g class="entity" data-qualified-name="model.grid.Grid" data-source-line="36" id="ent0025"><rect fill="#F1F1F1" height="32" rx="2.5" ry="2.5" style="stroke:#181818;stroke-width:0.5;" width="58.4482" x="1093" y="852"/><ellipse cx="1108" cy="868" fill="#ADD1B2" rx="11" ry="11" style="stroke:#181818;stroke-width:1;"/><path d="M1110.7656,863.875 Q1110.9219,863.6563 1111.1094,863.5469 Q1111.2969,863.4375 1111.5156,863.4375 Q1111.8906,863.4375 1112.125,863.7031 Q1112.3594,863.9531 1112.3594,864.5625 L1112.3594,866.0156 Q1112.3594,866.625 1112.125,866.8906 Q1111.8906,867.1563 1111.5156,867.1563 Q1111.1719,867.1563 1110.9688,866.9531 Q1110.7656,866.7656 1110.6563,866.25 Q1110.6094,865.8906 1110.4219,865.7031 Q1110.0938,865.3281 1109.4844,865.1094 Q1108.875,864.8906 1108.25,864.8906 Q1107.4844,864.8906 1106.8438,865.2188 Q1106.2188,865.5469 1105.7188,866.2969 Q1105.2344,867.0469 1105.2344,868.0781 L1105.2344,869.1719 Q1105.2344,870.4063 1106.125,871.2344 Q1107.0156,872.0469 1108.6094,872.0469 Q1109.5469,872.0469 1110.2031,871.7969 Q1110.5938,871.6406 1111.0156,871.2031 Q1111.2813,870.9375 1111.4219,870.8594 Q1111.5781,870.7813 1111.7813,870.7813 Q1112.1094,870.7813 1112.3594,871.0469 Q1112.625,871.2969 1112.625,871.6406 Q1112.625,871.9844 1112.2813,872.3906 Q1111.7813,872.9688 1110.9844,873.2969 Q1109.9063,873.75 1108.6094,873.75 Q1107.0938,873.75 1105.8906,873.125 Q1104.9063,872.625 1104.2188,871.5625 Q1103.5313,870.4844 1103.5313,869.2031 L1103.5313,868.0469 Q1103.5313,866.7188 1104.1406,865.5781 Q1104.7656,864.4219 1105.8594,863.8125 Q1106.9531,863.1875 1108.1875,863.1875 Q1108.9219,863.1875 1109.5625,863.3594 Q1110.2188,863.5156 1110.7656,863.875 Z " fill="#000000"/><text fill="#000000" font-family="sans-serif" font-size="14" lengthAdjust="spacing" textLength="26.4482" x="1122" y="873.7285">Grid</text></g><!--class GridPhysics--><g class="entity" data-qualified-name="model.grid.GridPhysics" data-source-line="37" id="ent0026"><rect fill="#F1F1F1" height="32" rx="2.5" ry="2.5" style="stroke:#181818;stroke-width:0.5;" width="106.6826" x="1249" y="919"/><ellipse cx="1264" cy="935" fill="#ADD1B2" rx="11" ry="11" style="stroke:#181818;stroke-width:1;"/><path d="M1266.7656,930.875 Q1266.9219,930.6563 1267.1094,930.5469 Q1267.2969,930.4375 1267.5156,930.4375 Q1267.8906,930.4375 1268.125,930.7031 Q1268.3594,930.9531 1268.3594,931.5625 L1268.3594,933.0156 Q1268.3594,933.625 1268.125,933.8906 Q1267.8906,934.1563 1267.5156,934.1563 Q1267.1719,934.1563 1266.9688,933.9531 Q1266.7656,933.7656 1266.6563,933.25 Q1266.6094,932.8906 1266.4219,932.7031 Q1266.0938,932.3281 1265.4844,932.1094 Q1264.875,931.8906 1264.25,931.8906 Q1263.4844,931.8906 1262.8438,932.2188 Q1262.2188,932.5469 1261.7188,933.2969 Q1261.2344,934.0469 1261.2344,935.0781 L1261.2344,936.1719 Q1261.2344,937.4063 1262.125,938.2344 Q1263.0156,939.0469 1264.6094,939.0469 Q1265.5469,939.0469 1266.2031,938.7969 Q1266.5938,938.6406 1267.0156,938.2031 Q1267.2813,937.9375 1267.4219,937.8594 Q1267.5781,937.7813 1267.7813,937.7813 Q1268.1094,937.7813 1268.3594,938.0469 Q1268.625,938.2969 1268.625,938.6406 Q1268.625,938.9844 1268.2813,939.3906 Q1267.7813,939.9688 1266.9844,940.2969 Q1265.9063,940.75 1264.6094,940.75 Q1263.0938,940.75 1261.8906,940.125 Q1260.9063,939.625 1260.2188,938.5625 Q1259.5313,937.4844 1259.5313,936.2031 L1259.5313,935.0469 Q1259.5313,933.7188 1260.1406,932.5781 Q1260.7656,931.4219 1261.8594,930.8125 Q1262.9531,930.1875 1264.1875,930.1875 Q1264.9219,930.1875 1265.5625,930.3594 Q1266.2188,930.5156 1266.7656,930.875 Z " fill="#000000"/><text fill="#000000" font-family="sans-serif" font-size="14" lengthAdjust="spacing" textLength="74.6826" x="1278" y="940.7285">GridPhysics</text></g><!--class GridMoveAnalyst--><g class="entity" data-qualified-name="model.grid.GridMoveAnalyst" data-source-line="38" id="ent0027"><rect fill="#F1F1F1" height="32" rx="2.5" ry="2.5" style="stroke:#181818;stroke-width:0.5;" width="138.5928" x="1233" y="852"/><ellipse cx="1248" cy="868" fill="#ADD1B2" rx="11" ry="11" style="stroke:#181818;stroke-width:1;"/><path d="M1250.7656,863.875 Q1250.9219,863.6563 1251.1094,863.5469 Q1251.2969,863.4375 1251.5156,863.4375 Q1251.8906,863.4375 1252.125,863.7031 Q1252.3594,863.9531 1252.3594,864.5625 L1252.3594,866.0156 Q1252.3594,866.625 1252.125,866.8906 Q1251.8906,867.1563 1251.5156,867.1563 Q1251.1719,867.1563 1250.9688,866.9531 Q1250.7656,866.7656 1250.6563,866.25 Q1250.6094,865.8906 1250.4219,865.7031 Q1250.0938,865.3281 1249.4844,865.1094 Q1248.875,864.8906 1248.25,864.8906 Q1247.4844,864.8906 1246.8438,865.2188 Q1246.2188,865.5469 1245.7188,866.2969 Q1245.2344,867.0469 1245.2344,868.0781 L1245.2344,869.1719 Q1245.2344,870.4063 1246.125,871.2344 Q1247.0156,872.0469 1248.6094,872.0469 Q1249.5469,872.0469 1250.2031,871.7969 Q1250.5938,871.6406 1251.0156,871.2031 Q1251.2813,870.9375 1251.4219,870.8594 Q1251.5781,870.7813 1251.7813,870.7813 Q1252.1094,870.7813 1252.3594,871.0469 Q1252.625,871.2969 1252.625,871.6406 Q1252.625,871.9844 1252.2813,872.3906 Q1251.7813,872.9688 1250.9844,873.2969 Q1249.9063,873.75 1248.6094,873.75 Q1247.0938,873.75 1245.8906,873.125 Q1244.9063,872.625 1244.2188,871.5625 Q1243.5313,870.4844 1243.5313,869.2031 L1243.5313,868.0469 Q1243.5313,866.7188 1244.1406,865.5781 Q1244.7656,864.4219 1245.8594,863.8125 Q1246.9531,863.1875 1248.1875,863.1875 Q1248.9219,863.1875 1249.5625,863.3594 Q1250.2188,863.5156 1250.7656,863.875 Z " fill="#000000"/><text fill="#000000" font-family="sans-serif" font-size="14" lengthAdjust="spacing" textLength="106.5928" x="1262" y="873.7285">GridMoveAnalyst</text></g><!--class GameView--><g class="entity" data-qualified-name="view.GameView" data-source-line="42" id="ent0029"><rect fill="#F1F1F1" height="32" rx="2.5" ry="2.5" style="stroke:#181818;stroke-width:0.5;" width="100.4688" x="658" y="926"/><ellipse cx="673" cy="942" fill="#ADD1B2" rx="11" ry="11" style="stroke:#181818;stroke-width:1;"/><path d="M675.7656,937.875 Q675.9219,937.6563 676.1094,937.5469 Q676.2969,937.4375 676.5156,937.4375 Q676.8906,937.4375 677.125,937.7031 Q677.3594,937.9531 677.3594,938.5625 L677.3594,940.0156 Q677.3594,940.625 677.125,940.8906 Q676.8906,941.1563 676.5156,941.1563 Q676.1719,941.1563 675.9688,940.9531 Q675.7656,940.7656 675.6563,940.25 Q675.6094,939.8906 675.4219,939.7031 Q675.0938,939.3281 674.4844,939.1094 Q673.875,938.8906 673.25,938.8906 Q672.4844,938.8906 671.8438,939.2188 Q671.2188,939.5469 670.7188,940.2969 Q670.2344,941.0469 670.2344,942.0781 L670.2344,943.1719 Q670.2344,944.4063 671.125,945.2344 Q672.0156,946.0469 673.6094,946.0469 Q674.5469,946.0469 675.2031,945.7969 Q675.5938,945.6406 676.0156,945.2031 Q676.2813,944.9375 676.4219,944.8594 Q676.5781,944.7813 676.7813,944.7813 Q677.1094,944.7813 677.3594,945.0469 Q677.625,945.2969 677.625,945.6406 Q677.625,945.9844 677.2813,946.3906 Q676.7813,946.9688 675.9844,947.2969 Q674.9063,947.75 673.6094,947.75 Q672.0938,947.75 670.8906,947.125 Q669.9063,946.625 669.2188,945.5625 Q668.5313,944.4844 668.5313,943.2031 L668.5313,942.0469 Q668.5313,940.7188 669.1406,939.5781 Q669.7656,938.4219 670.8594,937.8125 Q671.9531,937.1875 673.1875,937.1875 Q673.9219,937.1875 674.5625,937.3594 Q675.2188,937.5156 675.7656,937.875 Z " fill="#000000"/><text fill="#000000" font-family="sans-serif" font-size="14" lengthAdjust="spacing" textLength="68.4688" x="687" y="947.7285">GameView</text></g><!--link MainActivity to PlayRandomListener--><g class="link" data-entity-1="ent0003" data-entity-2="ent0012" data-link-type="dependency" data-source-line="45" id="lnk30"><path codeLine="45" d="M666.71,252.15 C635.61,266.94 595.74,292.24 580,329.5 C567.11,360 567.11,597 580,627.5 C588.39,647.36 601.0791,657.5212 621.2991,665.0712" fill="none" id="MainActivity-to-PlayRandomListener" style="stroke:#181818;stroke-width:1;stroke-dasharray:7,7;"/><polygon fill="#181818" points="626.92,667.17,619.8878,660.2745,622.2359,665.421,617.0894,667.7691,626.92,667.17" style="stroke:#181818;stroke-width:1;"/></g><!--link MainActivity to PlaySeedListener--><g class="link" data-entity-1="ent0003" data-entity-2="ent0013" data-link-type="dependency" data-source-line="46" id="lnk31"><path codeLine="46" d="M667.45,252.08 C622.72,272.55 559.57,311.14 580,359.5 C589.74,382.56 607.1068,393.6669 631.0568,400.7569" fill="none" id="MainActivity-to-PlaySeedListener" style="stroke:#181818;stroke-width:1;stroke-dasharray:7,7;"/><polygon fill="#181818" points="636.81,402.46,629.3156,396.0698,632.0157,401.0407,627.0448,403.7408,636.81,402.46" style="stroke:#181818;stroke-width:1;"/></g><!--link MainActivity to ResumeGameListener--><g class="link" data-entity-1="ent0003" data-entity-2="ent0014" data-link-type="dependency" data-source-line="47" id="lnk32"><path codeLine="47" d="M666.71,252.15 C635.61,266.94 595.74,292.24 580,329.5 C560.02,376.79 560.02,513.21 580,560.5 C587.69,578.7 598.1903,588.1914 616.3803,595.8514" fill="none" id="MainActivity-to-ResumeGameListener" style="stroke:#181818;stroke-width:1;stroke-dasharray:7,7;"/><polygon fill="#181818" points="621.91,598.18,615.1679,591.0006,617.3019,596.2395,612.063,598.3735,621.91,598.18" style="stroke:#181818;stroke-width:1;"/></g><!--link MainActivity to OptionsListener--><g class="link" data-entity-1="ent0003" data-entity-2="ent0015" data-link-type="dependency" data-source-line="48" id="lnk33"><path codeLine="48" d="M708,252.17 C708,277.43 708,296.7 708,321.97" fill="none" id="MainActivity-to-OptionsListener" style="stroke:#181818;stroke-width:1;stroke-dasharray:7,7;"/><polygon fill="#181818" points="708,327.97,712,318.97,708,322.97,704,318.97,708,327.97" style="stroke:#181818;stroke-width:1;"/></g><!--link MainActivity to SaveGameManager--><g class="link" data-entity-1="ent0003" data-entity-2="ent0020" data-link-type="dependency" data-source-line="49" id="lnk34"><path codeLine="49" d="M743.43,252.14 C767.59,265.12 798.87,285.55 818,312 C905.15,432.51 925.5675,614.2086 929.9675,669.9086" fill="none" id="MainActivity-to-SaveGameManager" style="stroke:#181818;stroke-width:1;stroke-dasharray:7,7;"/><polygon fill="#181818" points="930.44,675.89,933.7188,666.603,930.0463,670.9055,925.7437,667.2329,930.44,675.89" style="stroke:#181818;stroke-width:1;"/></g><!--link PlayRandomListener to GameActivity--><g class="link" data-entity-1="ent0012" data-entity-2="ent0006" data-link-type="dependency" data-source-line="51" id="lnk35"><path codeLine="51" d="M626.88,664.77 C616.08,659.96 605.98,653.55 598,645 C542.57,585.65 510.5045,326.4731 502.8845,258.0931" fill="none" id="PlayRandomListener-to-GameActivity" style="stroke:#181818;stroke-width:1;stroke-dasharray:7,7;"/><polygon fill="#181818" points="502.22,252.13,499.2414,261.5176,502.7738,257.0992,507.1921,260.6316,502.22,252.13" style="stroke:#181818;stroke-width:1;"/></g><!--link PlaySeedListener to SeedActivity--><g class="link" data-entity-1="ent0013" data-entity-2="ent0005" data-link-type="dependency" data-source-line="52" id="lnk36"><path codeLine="52" d="M636.96,401.07 C622.37,396 608.31,388.39 598,377 C544.71,318.13 609.46,265.66 562,202 C556.93,195.2 555.1664,192.7677 547.8164,188.2977" fill="none" id="PlaySeedListener-to-SeedActivity" style="stroke:#181818;stroke-width:1;stroke-dasharray:7,7;"/><polygon fill="#181818" points="542.69,185.18,548.3011,193.2741,546.962,187.7781,552.4581,186.4389,542.69,185.18" style="stroke:#181818;stroke-width:1;"/></g><!--link ResumeGameListener to GameActivity--><g class="link" data-entity-1="ent0014" data-entity-2="ent0006" data-link-type="dependency" data-source-line="53" id="lnk37"><path codeLine="53" d="M623.92,595.95 C614.31,591.38 605.34,585.52 598,578 C505.3,482.99 499.4813,312.3397 500.0113,258.1997" fill="none" id="ResumeGameListener-to-GameActivity" style="stroke:#181818;stroke-width:1;stroke-dasharray:7,7;"/><polygon fill="#181818" points="500.07,252.2,495.9821,261.1604,500.0211,257.1998,503.9817,261.2387,500.07,252.2" style="stroke:#181818;stroke-width:1;"/></g><!--link OptionsListener to OptionsActivity--><g class="link" data-entity-1="ent0015" data-entity-2="ent0007" data-link-type="dependency" data-source-line="54" id="lnk38"><path codeLine="54" d="M672.11,327.87 C647.88,314.96 616.72,294.6 598,268 C562.76,217.92 600.09,182.95 562,135 C556.57,128.17 554.4869,125.637 546.8869,121.117" fill="none" id="OptionsListener-to-OptionsActivity" style="stroke:#181818;stroke-width:1;stroke-dasharray:7,7;"/><polygon fill="#181818" points="541.73,118.05,547.4207,126.0884,546.0274,120.6058,551.51,119.2126,541.73,118.05" style="stroke:#181818;stroke-width:1;"/></g><!--link SeedActivity to SeedButtonListener--><g class="link" data-entity-1="ent0005" data-entity-2="ent0016" data-link-type="dependency" data-source-line="56" id="lnk39"><path codeLine="56" d="M543.31,185.15 C550.5,189.61 557.19,195.16 562,202 C624.56,290.94 527.28,361.4 598,444 C606.57,454.01 612.4971,458.8473 624.7871,463.8773" fill="none" id="SeedActivity-to-SeedButtonListener" style="stroke:#181818;stroke-width:1;stroke-dasharray:7,7;"/><polygon fill="#181818" points="630.34,466.15,623.5257,459.039,625.7126,464.2561,620.4955,466.4429,630.34,466.15" style="stroke:#181818;stroke-width:1;"/></g><!--link SeedButtonListener to GameActivity--><g class="link" data-entity-1="ent0016" data-entity-2="ent0006" data-link-type="dependency" data-source-line="57" id="lnk40"><path codeLine="57" d="M630.32,463.05 C618.61,458.34 607.34,452.15 598,444 C537,390.77 512.6325,297.0483 504.6625,258.0883" fill="none" id="SeedButtonListener-to-GameActivity" style="stroke:#181818;stroke-width:1;stroke-dasharray:7,7;"/><polygon fill="#181818" points="503.46,252.21,501.3449,261.8291,504.4621,257.1086,509.1826,260.2257,503.46,252.21" style="stroke:#181818;stroke-width:1;"/></g><!--reverse link GameActivity to GameView--><g class="link" data-entity-1="ent0006" data-entity-2="ent0029" data-link-type="aggregation" data-source-line="59" id="lnk41"><path codeLine="59" d="M500.1516,264.4497 C499.6316,335.0697 503.89,606.32 598,811 C619.88,858.58 663.61,902.99 688.52,925.87" fill="none" id="GameActivity-backto-GameView" style="stroke:#181818;stroke-width:1;"/><polygon fill="none" points="500.24,252.45,496.1959,258.4204,500.1516,264.4497,504.1957,258.4793,500.24,252.45" style="stroke:#181818;stroke-width:1;"/><text fill="#000000" font-family="sans-serif" font-size="13" lengthAdjust="spacing" textLength="7.23" x="492.3592" y="273.4868">1</text><text fill="#000000" font-family="sans-serif" font-size="13" lengthAdjust="spacing" textLength="7.23" x="673.5796" y="915.1309">1</text></g><!--reverse link GameActivity to GameLoop--><g class="link" data-entity-1="ent0006" data-entity-2="ent0009" data-link-type="aggregation" data-source-line="60" id="lnk42"><path codeLine="60" d="M485.3467,263.2413 C454.6767,334.8713 354.42,604.33 331.81,675.87" fill="none" id="GameActivity-backto-GameLoop" style="stroke:#181818;stroke-width:1;"/><polygon fill="none" points="490.07,252.21,484.0312,256.1512,485.3467,263.2413,491.3855,259.3001,490.07,252.21" style="stroke:#181818;stroke-width:1;"/><text fill="#000000" font-family="sans-serif" font-size="13" lengthAdjust="spacing" textLength="7.23" x="478.9116" y="273.4781">1</text><text fill="#000000" font-family="sans-serif" font-size="13" lengthAdjust="spacing" textLength="7.23" x="325.4256" y="665.1309">1</text></g><!--link GameLoop to GameActivity--><g class="link" data-entity-1="ent0009" data-entity-2="ent0006" data-link-type="dependency" data-source-line="73" id="lnk52"><path codeLine="73" d="M335.75,675.88 C366.1,604.55 469.212,329.9647 492.202,258.0947" fill="none" id="GameLoop-to-GameActivity" style="stroke:#181818;stroke-width:1;stroke-dasharray:7,7;"/><polygon fill="#181818" points="494.03,252.38,487.4781,259.7334,492.5066,257.1423,495.0978,262.1708,494.03,252.38" style="stroke:#181818;stroke-width:1;"/><text fill="#000000" font-family="sans-serif" font-size="13" lengthAdjust="spacing" textLength="7.23" x="340.1262" y="665.1443">1</text><text fill="#000000" font-family="sans-serif" font-size="13" lengthAdjust="spacing" textLength="7.23" x="484.2474" y="273.3953">1</text></g><!--link GameActivity to Grid--><g class="link" data-entity-1="ent0006" data-entity-2="ent0025" data-link-type="dependency" data-source-line="61" id="lnk43"><path codeLine="61" d="M501.14,252.24 C504.61,332.26 523.94,683.68 598,757 C730.47,888.14 830.57,783.2 1011,830 C1039.36,837.36 1065.2693,846.444 1087.2793,854.784" fill="none" id="GameActivity-to-Grid" style="stroke:#181818;stroke-width:1;stroke-dasharray:7,7;"/><polygon fill="#181818" points="1092.89,856.91,1085.8913,849.9805,1088.2144,855.1383,1083.0566,857.4615,1092.89,856.91" style="stroke:#181818;stroke-width:1;"/></g><!--link GameActivity to SaveGameManager--><g class="link" data-entity-1="ent0006" data-entity-2="ent0020" data-link-type="dependency" data-source-line="62" id="lnk44"><path codeLine="62" d="M501.19,252.07 C504.82,328.15 524.44,651.01 598,711 C684.4,781.47 823.5575,737.6536 890.2775,710.3336" fill="none" id="GameActivity-to-SaveGameManager" style="stroke:#181818;stroke-width:1;stroke-dasharray:7,7;"/><polygon fill="#181818" points="895.83,708.06,885.9855,707.7687,891.2029,709.9547,889.0169,715.1721,895.83,708.06" style="stroke:#181818;stroke-width:1;"/></g><!--link GameActivity to CopySeedListener--><g class="link" data-entity-1="ent0006" data-entity-2="ent0017" data-link-type="dependency" data-source-line="63" id="lnk45"><path codeLine="63" d="M501.39,252.3 C504.85,299.44 521.35,437.24 598,511 C608.14,520.76 615.417,525.6267 628.767,530.5967" fill="none" id="GameActivity-to-CopySeedListener" style="stroke:#181818;stroke-width:1;stroke-dasharray:7,7;"/><polygon fill="#181818" points="634.39,532.69,627.3511,525.8013,629.7042,530.9455,624.56,533.2986,634.39,532.69" style="stroke:#181818;stroke-width:1;"/></g><!--link GameActivity to MainActivity--><g class="link" data-entity-1="ent0006" data-entity-2="ent0003" data-link-type="dependency" data-source-line="64" id="lnk46"><path codeLine="64" d="M556.65,236 C587.11,236 618.52,236 648.41,236" fill="none" id="GameActivity-to-MainActivity" style="stroke:#181818;stroke-width:1;stroke-dasharray:7,7;"/><polygon fill="#181818" points="654.41,236,645.41,232,649.41,236,645.41,240,654.41,236" style="stroke:#181818;stroke-width:1;"/></g><!--link CopySeedListener to SeedActivity--><g class="link" data-entity-1="ent0017" data-entity-2="ent0005" data-link-type="dependency" data-source-line="66" id="lnk47"><path codeLine="66" d="M634.25,535 C620.42,529.9 607.36,522.29 598,511 C509.76,404.56 639.74,316.34 562,202 C557.3,195.09 555.7536,192.6711 548.5736,188.2011" fill="none" id="CopySeedListener-to-SeedActivity" style="stroke:#181818;stroke-width:1;stroke-dasharray:7,7;"/><polygon fill="#181818" points="543.48,185.03,549.0063,193.1823,547.7246,187.6726,553.2344,186.3909,543.48,185.03" style="stroke:#181818;stroke-width:1;"/></g><!--link GameTouchController to GameLoop--><g class="link" data-entity-1="ent0010" data-entity-2="ent0009" data-link-type="dependency" data-source-line="68" id="lnk48"><path codeLine="68" d="M216.03,692 C236.43,692 251.59,692 269.81,692" fill="none" id="GameTouchController-to-GameLoop" style="stroke:#181818;stroke-width:1;stroke-dasharray:7,7;"/><polygon fill="#181818" points="275.81,692,266.81,688,270.81,692,266.81,696,275.81,692" style="stroke:#181818;stroke-width:1;"/></g><!--link GameTouchController to GameView--><g class="link" data-entity-1="ent0010" data-entity-2="ent0029" data-link-type="dependency" data-source-line="69" id="lnk49"><path codeLine="69" d="M142.96,708.29 C176.45,756.41 283.15,897.72 413,948 C494.29,979.48 592.0516,967.4917 652.0716,955.2217" fill="none" id="GameTouchController-to-GameView" style="stroke:#181818;stroke-width:1;stroke-dasharray:7,7;"/><polygon fill="#181818" points="657.95,954.02,648.3312,951.9037,653.0513,955.0214,649.9335,959.7416,657.95,954.02" style="stroke:#181818;stroke-width:1;"/></g><!--link GameLoop to Grid--><g class="link" data-entity-1="ent0009" data-entity-2="ent0025" data-link-type="dependency" data-source-line="71" id="lnk50"><path codeLine="71" d="M349.98,708.05 C394.68,738.96 498.95,806.14 598,834 C780.85,885.43 1007.2637,875.9948 1086.8237,870.6148" fill="none" id="GameLoop-to-Grid" style="stroke:#181818;stroke-width:1;stroke-dasharray:7,7;"/><polygon fill="#181818" points="1092.81,870.21,1083.5606,866.8263,1087.8214,870.5473,1084.1004,874.8081,1092.81,870.21" style="stroke:#181818;stroke-width:1;"/><text fill="#000000" font-family="sans-serif" font-size="13" lengthAdjust="spacing" textLength="7.23" x="349.592" y="729.5699">1</text><text fill="#000000" font-family="sans-serif" font-size="13" lengthAdjust="spacing" textLength="7.23" x="1077.8152" y="886.2367">1</text></g><!--link GameLoop to GameView--><g class="link" data-entity-1="ent0009" data-entity-2="ent0029" data-link-type="dependency" data-source-line="72" id="lnk51"><path codeLine="72" d="M329.78,708.25 C335.89,745.36 356.22,836.59 413,882 C483.89,938.7 588.4909,946.115 651.8909,945.005" fill="none" id="GameLoop-to-GameView" style="stroke:#181818;stroke-width:1;stroke-dasharray:7,7;"/><polygon fill="#181818" points="657.89,944.9,648.8214,941.0582,652.8908,944.9875,648.9614,949.0569,657.89,944.9" style="stroke:#181818;stroke-width:1;"/><text fill="#000000" font-family="sans-serif" font-size="13" lengthAdjust="spacing" textLength="7.23" x="322.7037" y="729.5308">1</text><text fill="#000000" font-family="sans-serif" font-size="13" lengthAdjust="spacing" textLength="7.23" x="642.6627" y="960.0911">1</text></g><!--link SaveGameManager to SaveGame--><g class="link" data-entity-1="ent0020" data-entity-2="ent0019" data-link-type="dependency" data-source-line="75" id="lnk53"><path codeLine="75" d="M1011.12,692 C1031.27,692 1046.44,692 1064.76,692" fill="none" id="SaveGameManager-to-SaveGame" style="stroke:#181818;stroke-width:1;stroke-dasharray:7,7;"/><polygon fill="#181818" points="1070.76,692,1061.76,688,1065.76,692,1061.76,696,1070.76,692" style="stroke:#181818;stroke-width:1;"/></g><!--link SaveGameManager to Grid--><g class="link" data-entity-1="ent0020" data-entity-2="ent0025" data-link-type="dependency" data-source-line="76" id="lnk54"><path codeLine="76" d="M952.93,708.16 C968.8,721.52 991.68,741.12 1011,759 C1045.53,790.96 1080.0634,825.862 1101.1134,847.472" fill="none" id="SaveGameManager-to-Grid" style="stroke:#181818;stroke-width:1;stroke-dasharray:7,7;"/><polygon fill="#181818" points="1105.3,851.77,1101.8854,842.532,1101.8112,848.1884,1096.1548,848.1141,1105.3,851.77" style="stroke:#181818;stroke-width:1;"/></g><!--link SaveGameManager to Box--><g class="link" data-entity-1="ent0020" data-entity-2="ent0022" data-link-type="dependency" data-source-line="77" id="lnk55"><path codeLine="77" d="M973.04,675.99 C1029.82,655.48 1136.85,626.18 1221,658 C1327.44,698.24 1413.4713,805.3619 1444.1313,847.1619" fill="none" id="SaveGameManager-to-Box" style="stroke:#181818;stroke-width:1;stroke-dasharray:7,7;"/><polygon fill="#181818" points="1447.68,852,1445.5823,842.3771,1444.7228,847.9683,1439.1316,847.1087,1447.68,852" style="stroke:#181818;stroke-width:1;"/></g><!--link GameView to Grid--><g class="link" data-entity-1="ent0029" data-entity-2="ent0025" data-link-type="dependency" data-source-line="79" id="lnk56"><path codeLine="79" d="M758.29,933.15 C845.43,917.5 1018.1146,886.4812 1087.0646,874.0912" fill="none" id="GameView-to-Grid" style="stroke:#181818;stroke-width:1;stroke-dasharray:7,7;"/><polygon fill="#181818" points="1092.97,873.03,1083.4044,870.6848,1088.0488,873.9143,1084.8193,878.5587,1092.97,873.03" style="stroke:#181818;stroke-width:1;"/></g><!--reverse link Grid to Box--><g class="link" data-entity-1="ent0025" data-entity-2="ent0022" data-link-type="composition" data-source-line="81" id="lnk57"><path codeLine="81" d="M1162.6509,852.4665 C1184.5409,844.3465 1204.54,838.3 1233,834 C1304.63,823.18 1325.76,816.26 1396,834 C1410.1,837.56 1424.47,844.97 1435.92,851.96" fill="none" id="Grid-backto-Box" style="stroke:#181818;stroke-width:1;"/><polygon fill="#181818" points="1151.4,856.64,1158.4166,858.3036,1162.6509,852.4665,1155.6343,850.803,1151.4,856.64" style="stroke:#181818;stroke-width:1;"/><text fill="#000000" font-family="sans-serif" font-size="13" lengthAdjust="spacing" textLength="7.23" x="1159.3928" y="869.359">1</text><text fill="#000000" font-family="sans-serif" font-size="13" lengthAdjust="spacing" textLength="14.46" x="1411.294" y="841.2518">36</text></g><!--reverse link Grid to GridPhysics--><g class="link" data-entity-1="ent0025" data-entity-2="ent0026" data-link-type="composition" data-source-line="82" id="lnk58"><path codeLine="82" d="M1162.5161,882.8331 C1191.4261,893.6731 1225.43,906.45 1258.71,918.94" fill="none" id="Grid-backto-GridPhysics" style="stroke:#181818;stroke-width:1;"/><polygon fill="#181818" points="1151.28,878.62,1155.4937,884.4719,1162.5161,882.8331,1158.3024,876.9812,1151.28,878.62" style="stroke:#181818;stroke-width:1;"/><text fill="#000000" font-family="sans-serif" font-size="13" lengthAdjust="spacing" textLength="7.23" x="1159.6519" y="896.9315">1</text><text fill="#000000" font-family="sans-serif" font-size="13" lengthAdjust="spacing" textLength="7.23" x="1235.5481" y="908.2249">1</text></g><!--link Grid to GridMoveAnalyst--><g class="link" data-entity-1="ent0025" data-entity-2="ent0027" data-link-type="dependency" data-source-line="83" id="lnk59"><path codeLine="83" d="M1151.28,868 C1173.21,868 1198.53,868 1226.9,868" fill="none" id="Grid-to-GridMoveAnalyst" style="stroke:#181818;stroke-width:1;stroke-dasharray:7,7;"/><polygon fill="#181818" points="1232.9,868,1223.9,864,1227.9,868,1223.9,872,1232.9,868" style="stroke:#181818;stroke-width:1;"/></g><!--link GridPhysics to Box--><g class="link" data-entity-1="ent0026" data-entity-2="ent0022" data-link-type="dependency" data-source-line="85" id="lnk60"><path codeLine="85" d="M1351.03,918.87 C1365.62,913.57 1381.61,907.38 1396,901 C1407.96,895.69 1415.5308,891.9528 1426.4908,886.0828" fill="none" id="GridPhysics-to-Box" style="stroke:#181818;stroke-width:1;stroke-dasharray:7,7;"/><polygon fill="#181818" points="1431.78,883.25,1421.9577,883.9731,1427.3724,885.6107,1425.7348,891.0253,1431.78,883.25" style="stroke:#181818;stroke-width:1;"/></g><!--link GridMoveAnalyst to Box--><g class="link" data-entity-1="ent0027" data-entity-2="ent0022" data-link-type="dependency" data-source-line="86" id="lnk61"><path codeLine="86" d="M1372.16,868 C1393.31,868 1409.37,868 1425.97,868" fill="none" id="GridMoveAnalyst-to-Box" style="stroke:#181818;stroke-width:1;stroke-dasharray:7,7;"/><polygon fill="#181818" points="1431.97,868,1422.97,864,1426.97,868,1422.97,872,1431.97,868" style="stroke:#181818;stroke-width:1;"/></g><?plantuml-src VLHTIyCm57tFhmXz53OKmKTXyq643SSclcVjTGrhazAaTLNyxpRP6fFSp9UDd7DoxbTkrP6BXhMifdd5b5fetV9zf-4bbsB7lu3Uaf8NG6kezz0gKi67fbhIbXzAJGlUGgwv58GqB3-o0z1ilAXRMLNGpjd8zLnpK1dz9lGSWguP5uipCpXm1r0Wy9dLWC3NnWHK3lz9npwCT_sencibPHC0RxBBooTtwPfNnPK6CPRl6sugDcoPA6Izkj01PGf2n1PKLuDD9QOkPI7S-2mxhQL0r9DimZ1Nqc_6pAqa3pgoOxrD1G5h9aQBqAwM1LJplJpv3ajvIeWEBI-2pe_duB0f1yLp5M1hsSD2i6fGEh3iENp6OtmVCIFo7nATpnzJ8qbgWgOXHM98I1DF2mdYNXASczK5JppExUpaRmRE3Rj4kVdvEWtnNLsOw9rX20SZ_ebcTncLivdzTvFwLs5NCb3O4ER983JkAHAWXK2AuDj3OZtkDqby9LmJNExN1BPyCabjpOQojKyLOiRlMvBrfXXs9EXIahHXKuHPPJA5_fCIysi3tvYXtJzaLXcYbtAcjRRavE3lDV5KBcWaSlWl?></g></svg>