<?plantuml 1.2026.2?><svg xmlns="http://www.w3.org/2000/svg" xmlns:xlink="http://www.w3.org/1999/xlink" contentStyleType="text/css" data-diagram-type="CLASS" height="782px" preserveAspectRatio="none" style="width:750px;height:782px;background:#FFFFFF;" version="1.1" viewBox="0 0 750 782" width="750px" zoomAndPan="magnify"><defs/><g><!--class MainActivity--><g class="entity" data-qualified-name="MainActivity" data-source-line="4" id="ent0002"><rect fill="#F1F1F1" height="32" rx="2.5" ry="2.5" style="stroke:#181818;stroke-width:0.5;" width="106.6826" x="360" y="7"/><ellipse cx="375" cy="23" fill="#ADD1B2" rx="11" ry="11" style="stroke:#181818;stroke-width:1;"/><path d="M377.7656,18.875 Q377.9219,18.6563 378.1094,18.5469 Q378.2969,18.4375 378.5156,18.4375 Q378.8906,18.4375 379.125,18.7031 Q379.3594,18.9531 379.3594,19.5625 L379.3594,21.0156 Q379.3594,21.625 379.125,21.8906 Q378.8906,22.1563 378.5156,22.1563 Q378.1719,22.1563 377.9688,21.9531 Q377.7656,21.7656 377.6563,21.25 Q377.6094,20.8906 377.4219,20.7031 Q377.0938,20.3281 376.4844,20.1094 Q375.875,19.8906 375.25,19.8906 Q374.4844,19.8906 373.8438,20.2188 Q373.2188,20.5469 372.7188,21.2969 Q372.2344,22.0469 372.2344,23.0781 L372.2344,24.1719 Q372.2344,25.4063 373.125,26.2344 Q374.0156,27.0469 375.6094,27.0469 Q376.5469,27.0469 377.2031,26.7969 Q377.5938,26.6406 378.0156,26.2031 Q378.2813,25.9375 378.4219,25.8594 Q378.5781,25.7813 378.7813,25.7813 Q379.1094,25.7813 379.3594,26.0469 Q379.625,26.2969 379.625,26.6406 Q379.625,26.9844 379.2813,27.3906 Q378.7813,27.9688 377.9844,28.2969 Q376.9063,28.75 375.6094,28.75 Q374.0938,28.75 372.8906,28.125 Q371.9063,27.625 371.2188,26.5625 Q370.5313,25.4844 370.5313,24.2031 L370.5313,23.0469 Q370.5313,21.7188 371.1406,20.5781 Q371.7656,19.4219 372.8594,18.8125 Q373.9531,18.1875 375.1875,18.1875 Q375.9219,18.1875 376.5625,18.3594 Q377.2188,18.5156 377.7656,18.875 Z " fill="#000000"/><text fill="#000000" font-family="sans-serif" font-size="14" lengthAdjust="spacing" textLength="74.6826" x="389" y="28.7285">MainActivity</text></g><!--class SeedActivity--><g class="entity" data-qualified-name="SeedActivity" data-source-line="5" id="ent0003"><rect fill="#F1F1F1" height="32" rx="2.5" ry="2.5" style="stroke:#181818;stroke-width:0.5;" width="109.0342" x="235" y="191"/><ellipse cx="250" cy="207" fill="#ADD1B2" rx="11" ry="11" style="stroke:#181818;stroke-width:1;"/><path d="M252.7656,202.875 Q252.9219,202.6563 253.1094,202.5469 Q253.2969,202.4375 253.5156,202.4375 Q253.8906,202.4375 254.125,202.7031 Q254.3594,202.9531 254.3594,203.5625 L254.3594,205.0156 Q254.3594,205.625 254.125,205.8906 Q253.8906,206.1563 253.5156,206.1563 Q253.1719,206.1563 252.9688,205.9531 Q252.7656,205.7656 252.6563,205.25 Q252.6094,204.8906 252.4219,204.7031 Q252.0938,204.3281 251.4844,204.1094 Q250.875,203.8906 250.25,203.8906 Q249.4844,203.8906 248.8438,204.2188 Q248.2188,204.5469 247.7188,205.2969 Q247.2344,206.0469 247.2344,207.0781 L247.2344,208.1719 Q247.2344,209.4063 248.125,210.2344 Q249.0156,211.0469 250.6094,211.0469 Q251.5469,211.0469 252.2031,210.7969 Q252.5938,210.6406 253.0156,210.2031 Q253.2813,209.9375 253.4219,209.8594 Q253.5781,209.7813 253.7813,209.7813 Q254.1094,209.7813 254.3594,210.0469 Q254.625,210.2969 254.625,210.6406 Q254.625,210.9844 254.2813,211.3906 Q253.7813,211.9688 252.9844,212.2969 Q251.9063,212.75 250.6094,212.75 Q249.0938,212.75 247.8906,212.125 Q246.9063,211.625 246.2188,210.5625 Q245.5313,209.4844 245.5313,208.2031 L245.5313,207.0469 Q245.5313,205.7188 246.1406,204.5781 Q246.7656,203.4219 247.8594,202.8125 Q248.9531,202.1875 250.1875,202.1875 Q250.9219,202.1875 251.5625,202.3594 Q252.2188,202.5156 252.7656,202.875 Z " fill="#000000"/><text fill="#000000" font-family="sans-serif" font-size="14" lengthAdjust="spacing" textLength="77.0342" x="264" y="212.7285">SeedActivity</text></g><!--class GameActivity--><g class="entity" data-qualified-name="GameActivity" data-source-line="6" id="ent0004"><rect fill="#F1F1F1" height="32" rx="2.5" ry="2.5" style="stroke:#181818;stroke-width:0.5;" width="114.4619" x="192.5" y="375"/><ellipse cx="207.5" cy="391" fill="#ADD1B2" rx="11" ry="11" style="stroke:#181818;stroke-width:1;"/><path d="M210.2656,386.875 Q210.4219,386.6563 210.6094,386.5469 Q210.7969,386.4375 211.0156,386.4375 Q211.3906,386.4375 211.625,386.7031 Q211.8594,386.9531 211.8594,387.5625 L211.8594,389.0156 Q211.8594,389.625 211.625,389.8906 Q211.3906,390.1563 211.0156,390.1563 Q210.6719,390.1563 210.4688,389.9531 Q210.2656,389.7656 210.1563,389.25 Q210.1094,388.8906 209.9219,388.7031 Q209.5938,388.3281 208.9844,388.1094 Q208.375,387.8906 207.75,387.8906 Q206.9844,387.8906 206.3438,388.2188 Q205.7188,388.5469 205.2188,389.2969 Q204.7344,390.0469 204.7344,391.0781 L204.7344,392.1719 Q204.7344,393.4063 205.625,394.2344 Q206.5156,395.0469 208.1094,395.0469 Q209.0469,395.0469 209.7031,394.7969 Q210.0938,394.6406 210.5156,394.2031 Q210.7813,393.9375 210.9219,393.8594 Q211.0781,393.7813 211.2813,393.7813 Q211.6094,393.7813 211.8594,394.0469 Q212.125,394.2969 212.125,394.6406 Q212.125,394.9844 211.7813,395.3906 Q211.2813,395.9688 210.4844,396.2969 Q209.4063,396.75 208.1094,396.75 Q206.5938,396.75 205.3906,396.125 Q204.4063,395.625 203.7188,394.5625 Q203.0313,393.4844 203.0313,392.2031 L203.0313,391.0469 Q203.0313,389.7188 203.6406,388.5781 Q204.2656,387.4219 205.3594,386.8125 Q206.4531,386.1875 207.6875,386.1875 Q208.4219,386.1875 209.0625,386.3594 Q209.7188,386.5156 210.2656,386.875 Z " fill="#000000"/><text fill="#000000" font-family="sans-serif" font-size="14" lengthAdjust="spacing" textLength="82.4619" x="221.5" y="396.7285">GameActivity</text></g><!--class OptionsActivity--><g class="entity" data-qualified-name="OptionsActivity" data-source-line="7" id="ent0005"><rect fill="#F1F1F1" height="32" rx="2.5" ry="2.5" style="stroke:#181818;stroke-width:0.5;" width="124.5859" x="469" y="191"/><ellipse cx="484" cy="207" fill="#ADD1B2" rx="11" ry="11" style="stroke:#181818;stroke-width:1;"/><path d="M486.7656,202.875 Q486.9219,202.6563 487.1094,202.5469 Q487.2969,202.4375 487.5156,202.4375 Q487.8906,202.4375 488.125,202.7031 Q488.3594,202.9531 488.3594,203.5625 L488.3594,205.0156 Q488.3594,205.625 488.125,205.8906 Q487.8906,206.1563 487.5156,206.1563 Q487.1719,206.1563 486.9688,205.9531 Q486.7656,205.7656 486.6563,205.25 Q486.6094,204.8906 486.4219,204.7031 Q486.0938,204.3281 485.4844,204.1094 Q484.875,203.8906 484.25,203.8906 Q483.4844,203.8906 482.8438,204.2188 Q482.2188,204.5469 481.7188,205.2969 Q481.2344,206.0469 481.2344,207.0781 L481.2344,208.1719 Q481.2344,209.4063 482.125,210.2344 Q483.0156,211.0469 484.6094,211.0469 Q485.5469,211.0469 486.2031,210.7969 Q486.5938,210.6406 487.0156,210.2031 Q487.2813,209.9375 487.4219,209.8594 Q487.5781,209.7813 487.7813,209.7813 Q488.1094,209.7813 488.3594,210.0469 Q488.625,210.2969 488.625,210.6406 Q488.625,210.9844 488.2813,211.3906 Q487.7813,211.9688 486.9844,212.2969 Q485.9063,212.75 484.6094,212.75 Q483.0938,212.75 481.8906,212.125 Q480.9063,211.625 480.2188,210.5625 Q479.5313,209.4844 479.5313,208.2031 L479.5313,207.0469 Q479.5313,205.7188 480.1406,204.5781 Q480.7656,203.4219 481.8594,202.8125 Q482.9531,202.1875 484.1875,202.1875 Q484.9219,202.1875 485.5625,202.3594 Q486.2188,202.5156 486.7656,202.875 Z " fill="#000000"/><text fill="#000000" font-family="sans-serif" font-size="14" lengthAdjust="spacing" textLength="92.5859" x="498" y="212.7285">OptionsActivity</text></g><!--class PlayRandomListener--><g class="entity" data-qualified-name="PlayRandomListener" data-source-line="8" id="ent0006"><rect fill="#F1F1F1" height="32" rx="2.5" ry="2.5" style="stroke:#181818;stroke-width:0.5;" width="161.958" x="37.5" y="191"/><ellipse cx="52.5" cy="207" fill="#ADD1B2" rx="11" ry="11" style="stroke:#181818;stroke-width:1;"/><path d="M55.2656,202.875 Q55.4219,202.6563 55.6094,202.5469 Q55.7969,202.4375 56.0156,202.4375 Q56.3906,202.4375 56.625,202.7031 Q56.8594,202.9531 56.8594,203.5625 L56.8594,205.0156 Q56.8594,205.625 56.625,205.8906 Q56.3906,206.1563 56.0156,206.1563 Q55.6719,206.1563 55.4688,205.9531 Q55.2656,205.7656 55.1563,205.25 Q55.1094,204.8906 54.9219,204.7031 Q54.5938,204.3281 53.9844,204.1094 Q53.375,203.8906 52.75,203.8906 Q51.9844,203.8906 51.3438,204.2188 Q50.7188,204.5469 50.2188,205.2969 Q49.7344,206.0469 49.7344,207.0781 L49.7344,208.1719 Q49.7344,209.4063 50.625,210.2344 Q51.5156,211.0469 53.1094,211.0469 Q54.0469,211.0469 54.7031,210.7969 Q55.0938,210.6406 55.5156,210.2031 Q55.7813,209.9375 55.9219,209.8594 Q56.0781,209.7813 56.2813,209.7813 Q56.6094,209.7813 56.8594,210.0469 Q57.125,210.2969 57.125,210.6406 Q57.125,210.9844 56.7813,211.3906 Q56.2813,211.9688 55.4844,212.2969 Q54.4063,212.75 53.1094,212.75 Q51.5938,212.75 50.3906,212.125 Q49.4063,211.625 48.7188,210.5625 Q48.0313,209.4844 48.0313,208.2031 L48.0313,207.0469 Q48.0313,205.7188 48.6406,204.5781 Q49.2656,203.4219 50.3594,202.8125 Q51.4531,202.1875 52.6875,202.1875 Q53.4219,202.1875 54.0625,202.3594 Q54.7188,202.5156 55.2656,202.875 Z " fill="#000000"/><text fill="#000000" font-family="sans-serif" font-size="14" lengthAdjust="spacing" textLength="129.958" x="66.5" y="212.7285">PlayRandomListener</text></g><!--class PlaySeedListener--><g class="entity" data-qualified-name="PlaySeedListener" data-source-line="9" id="ent0007"><rect fill="#F1F1F1" height="32" rx="2.5" ry="2.5" style="stroke:#181818;stroke-width:0.5;" width="141.7373" x="218.5" y="99"/><ellipse cx="233.5" cy="115" fill="#ADD1B2" rx="11" ry="11" style="stroke:#181818;stroke-width:1;"/><path d="M236.2656,110.875 Q236.4219,110.6563 236.6094,110.5469 Q236.7969,110.4375 237.0156,110.4375 Q237.3906,110.4375 237.625,110.7031 Q237.8594,110.9531 237.8594,111.5625 L237.8594,113.0156 Q237.8594,113.625 237.625,113.8906 Q237.3906,114.1563 237.0156,114.1563 Q236.6719,114.1563 236.4688,113.9531 Q236.2656,113.7656 236.1563,113.25 Q236.1094,112.8906 235.9219,112.7031 Q235.5938,112.3281 234.9844,112.1094 Q234.375,111.8906 233.75,111.8906 Q232.9844,111.8906 232.3438,112.2188 Q231.7188,112.5469 231.2188,113.2969 Q230.7344,114.0469 230.7344,115.0781 L230.7344,116.1719 Q230.7344,117.4063 231.625,118.2344 Q232.5156,119.0469 234.1094,119.0469 Q235.0469,119.0469 235.7031,118.7969 Q236.0938,118.6406 236.5156,118.2031 Q236.7813,117.9375 236.9219,117.8594 Q237.0781,117.7813 237.2813,117.7813 Q237.6094,117.7813 237.8594,118.0469 Q238.125,118.2969 238.125,118.6406 Q238.125,118.9844 237.7813,119.3906 Q237.2813,119.9688 236.4844,120.2969 Q235.4063,120.75 234.1094,120.75 Q232.5938,120.75 231.3906,120.125 Q230.4063,119.625 229.7188,118.5625 Q229.0313,117.4844 229.0313,116.2031 L229.0313,115.0469 Q229.0313,113.7188 229.6406,112.5781 Q230.2656,111.4219 231.3594,110.8125 Q232.4531,110.1875 233.6875,110.1875 Q234.4219,110.1875 235.0625,110.3594 Q235.7188,110.5156 236.2656,110.875 Z " fill="#000000"/><text fill="#000000" font-family="sans-serif" font-size="14" lengthAdjust="spacing" textLength="109.7373" x="247.5" y="120.7285">PlaySeedListener</text></g><!--class ResumeGameListener--><g class="entity" data-qualified-name="ResumeGameListener" data-source-line="10" id="ent0008"><rect fill="#F1F1F1" height="32" rx="2.5" ry="2.5" style="stroke:#181818;stroke-width:0.5;" width="172.0615" x="362.5" y="283"/><ellipse cx="377.5" cy="299" fill="#ADD1B2" rx="11" ry="11" style="stroke:#181818;stroke-width:1;"/><path d="M380.2656,294.875 Q380.4219,294.6563 380.6094,294.5469 Q380.7969,294.4375 381.0156,294.4375 Q381.3906,294.4375 381.625,294.7031 Q381.8594,294.9531 381.8594,295.5625 L381.8594,297.0156 Q381.8594,297.625 381.625,297.8906 Q381.3906,298.1563 381.0156,298.1563 Q380.6719,298.1563 380.4688,297.9531 Q380.2656,297.7656 380.1563,297.25 Q380.1094,296.8906 379.9219,296.7031 Q379.5938,296.3281 378.9844,296.1094 Q378.375,295.8906 377.75,295.8906 Q376.9844,295.8906 376.3438,296.2188 Q375.7188,296.5469 375.2188,297.2969 Q374.7344,298.0469 374.7344,299.0781 L374.7344,300.1719 Q374.7344,301.4063 375.625,302.2344 Q376.5156,303.0469 378.1094,303.0469 Q379.0469,303.0469 379.7031,302.7969 Q380.0938,302.6406 380.5156,302.2031 Q380.7813,301.9375 380.9219,301.8594 Q381.0781,301.7813 381.2813,301.7813 Q381.6094,301.7813 381.8594,302.0469 Q382.125,302.2969 382.125,302.6406 Q382.125,302.9844 381.7813,303.3906 Q381.2813,303.9688 380.4844,304.2969 Q379.4063,304.75 378.1094,304.75 Q376.5938,304.75 375.3906,304.125 Q374.4063,303.625 373.7188,302.5625 Q373.0313,301.4844 373.0313,300.2031 L373.0313,299.0469 Q373.0313,297.7188 373.6406,296.5781 Q374.2656,295.4219 375.3594,294.8125 Q376.4531,294.1875 377.6875,294.1875 Q378.4219,294.1875 379.0625,294.3594 Q379.7188,294.5156 380.2656,294.875 Z " fill="#000000"/><text fill="#000000" font-family="sans-serif" font-size="14" lengthAdjust="spacing" textLength="140.0615" x="391.5" y="304.7285">ResumeGameListener</text></g><!--class OptionsListener--><g class="entity" data-qualified-name="OptionsListener" data-source-line="11" id="ent0009"><rect fill="#F1F1F1" height="32" rx="2.5" ry="2.5" style="stroke:#181818;stroke-width:0.5;" width="130.0547" x="466.5" y="99"/><ellipse cx="481.5" cy="115" fill="#ADD1B2" rx="11" ry="11" style="stroke:#181818;stroke-width:1;"/><path d="M484.2656,110.875 Q484.4219,110.6563 484.6094,110.5469 Q484.7969,110.4375 485.0156,110.4375 Q485.3906,110.4375 485.625,110.7031 Q485.8594,110.9531 485.8594,111.5625 L485.8594,113.0156 Q485.8594,113.625 485.625,113.8906 Q485.3906,114.1563 485.0156,114.1563 Q484.6719,114.1563 484.4688,113.9531 Q484.2656,113.7656 484.1563,113.25 Q484.1094,112.8906 483.9219,112.7031 Q483.5938,112.3281 482.9844,112.1094 Q482.375,111.8906 481.75,111.8906 Q480.9844,111.8906 480.3438,112.2188 Q479.7188,112.5469 479.2188,113.2969 Q478.7344,114.0469 478.7344,115.0781 L478.7344,116.1719 Q478.7344,117.4063 479.625,118.2344 Q480.5156,119.0469 482.1094,119.0469 Q483.0469,119.0469 483.7031,118.7969 Q484.0938,118.6406 484.5156,118.2031 Q484.7813,117.9375 484.9219,117.8594 Q485.0781,117.7813 485.2813,117.7813 Q485.6094,117.7813 485.8594,118.0469 Q486.125,118.2969 486.125,118.6406 Q486.125,118.9844 485.7813,119.3906 Q485.2813,119.9688 484.4844,120.2969 Q483.4063,120.75 482.1094,120.75 Q480.5938,120.75 479.3906,120.125 Q478.4063,119.625 477.7188,118.5625 Q477.0313,117.4844 477.0313,116.2031 L477.0313,115.0469 Q477.0313,113.7188 477.6406,112.5781 Q478.2656,111.4219 479.3594,110.8125 Q480.4531,110.1875 481.6875,110.1875 Q482.4219,110.1875 483.0625,110.3594 Q483.7188,110.5156 484.2656,110.875 Z " fill="#000000"/><text fill="#000000" font-family="sans-serif" font-size="14" lengthAdjust="spacing" textLength="98.0547" x="495.5" y="120.7285">OptionsListener</text></g><!--class SeedButtonListener--><g class="entity" data-qualified-name="SeedButtonListener" data-source-line="12" id="ent0010"><rect fill="#F1F1F1" height="32" rx="2.5" ry="2.5" style="stroke:#181818;stroke-width:0.5;" width="154.9785" x="172" y="283"/><ellipse cx="187" cy="299" fill="#ADD1B2" rx="11" ry="11" style="stroke:#181818;stroke-width:1;"/><path d="M189.7656,294.875 Q189.9219,294.6563 190.1094,294.5469 Q190.2969,294.4375 190.5156,294.4375 Q190.8906,294.4375 191.125,294.7031 Q191.3594,294.9531 191.3594,295.5625 L191.3594,297.0156 Q191.3594,297.625 191.125,297.8906 Q190.8906,298.1563 190.5156,298.1563 Q190.1719,298.1563 189.9688,297.9531 Q189.7656,297.7656 189.6563,297.25 Q189.6094,296.8906 189.4219,296.7031 Q189.0938,296.3281 188.4844,296.1094 Q187.875,295.8906 187.25,295.8906 Q186.4844,295.8906 185.8438,296.2188 Q185.2188,296.5469 184.7188,297.2969 Q184.2344,298.0469 184.2344,299.0781 L184.2344,300.1719 Q184.2344,301.4063 185.125,302.2344 Q186.0156,303.0469 187.6094,303.0469 Q188.5469,303.0469 189.2031,302.7969 Q189.5938,302.6406 190.0156,302.2031 Q190.2813,301.9375 190.4219,301.8594 Q190.5781,301.7813 190.7813,301.7813 Q191.1094,301.7813 191.3594,302.0469 Q191.625,302.2969 191.625,302.6406 Q191.625,302.9844 191.2813,303.3906 Q190.7813,303.9688 189.9844,304.2969 Q188.9063,304.75 187.6094,304.75 Q186.0938,304.75 184.8906,304.125 Q183.9063,303.625 183.2188,302.5625 Q182.5313,301.4844 182.5313,300.2031 L182.5313,299.0469 Q182.5313,297.7188 183.1406,296.5781 Q183.7656,295.4219 184.8594,294.8125 Q185.9531,294.1875 187.1875,294.1875 Q187.9219,294.1875 188.5625,294.3594 Q189.2188,294.5156 189.7656,294.875 Z " fill="#000000"/><text fill="#000000" font-family="sans-serif" font-size="14" lengthAdjust="spacing" textLength="122.9785" x="201" y="304.7285">SeedButtonListener</text></g><!--class CopySeedListener--><g class="entity" data-qualified-name="CopySeedListener" data-source-line="13" id="ent0011"><rect fill="#F1F1F1" height="32" rx="2.5" ry="2.5" style="stroke:#181818;stroke-width:0.5;" width="147.1855" x="7" y="467"/><ellipse cx="22" cy="483" fill="#ADD1B2" rx="11" ry="11" style="stroke:#181818;stroke-width:1;"/><path d="M24.7656,478.875 Q24.9219,478.6563 25.1094,478.5469 Q25.2969,478.4375 25.5156,478.4375 Q25.8906,478.4375 26.125,478.7031 Q26.3594,478.9531 26.3594,479.5625 L26.3594,481.0156 Q26.3594,481.625 26.125,481.8906 Q25.8906,482.1563 25.5156,482.1563 Q25.1719,482.1563 24.9688,481.9531 Q24.7656,481.7656 24.6563,481.25 Q24.6094,480.8906 24.4219,480.7031 Q24.0938,480.3281 23.4844,480.1094 Q22.875,479.8906 22.25,479.8906 Q21.4844,479.8906 20.8438,480.2188 Q20.2188,480.5469 19.7188,481.2969 Q19.2344,482.0469 19.2344,483.0781 L19.2344,484.1719 Q19.2344,485.4063 20.125,486.2344 Q21.0156,487.0469 22.6094,487.0469 Q23.5469,487.0469 24.2031,486.7969 Q24.5938,486.6406 25.0156,486.2031 Q25.2813,485.9375 25.4219,485.8594 Q25.5781,485.7813 25.7813,485.7813 Q26.1094,485.7813 26.3594,486.0469 Q26.625,486.2969 26.625,486.6406 Q26.625,486.9844 26.2813,487.3906 Q25.7813,487.9688 24.9844,488.2969 Q23.9063,488.75 22.6094,488.75 Q21.0938,488.75 19.8906,488.125 Q18.9063,487.625 18.2188,486.5625 Q17.5313,485.4844 17.5313,484.2031 L17.5313,483.0469 Q17.5313,481.7188 18.1406,480.5781 Q18.7656,479.4219 19.8594,478.8125 Q20.9531,478.1875 22.1875,478.1875 Q22.9219,478.1875 23.5625,478.3594 Q24.2188,478.5156 24.7656,478.875 Z " fill="#000000"/><text fill="#000000" font-family="sans-serif" font-size="14" lengthAdjust="spacing" textLength="115.1855" x="36" y="488.7285">CopySeedListener</text></g><!--class GameTouchController--><g class="entity" data-qualified-name="GameTouchController" data-source-line="14" id="ent0012"><rect fill="#F1F1F1" height="32" rx="2.5" ry="2.5" style="stroke:#181818;stroke-width:0.5;" width="169.7236" x="294.5" y="467"/><ellipse cx="309.5" cy="483" fill="#ADD1B2" rx="11" ry="11" style="stroke:#181818;stroke-width:1;"/><path d="M312.2656,478.875 Q312.4219,478.6563 312.6094,478.5469 Q312.7969,478.4375 313.0156,478.4375 Q313.3906,478.4375 313.625,478.7031 Q313.8594,478.9531 313.8594,479.5625 L313.8594,481.0156 Q313.8594,481.625 313.625,481.8906 Q313.3906,482.1563 313.0156,482.1563 Q312.6719,482.1563 312.4688,481.9531 Q312.2656,481.7656 312.1563,481.25 Q312.1094,480.8906 311.9219,480.7031 Q311.5938,480.3281 310.9844,480.1094 Q310.375,479.8906 309.75,479.8906 Q308.9844,479.8906 308.3438,480.2188 Q307.7188,480.5469 307.2188,481.2969 Q306.7344,482.0469 306.7344,483.0781 L306.7344,484.1719 Q306.7344,485.4063 307.625,486.2344 Q308.5156,487.0469 310.1094,487.0469 Q311.0469,487.0469 311.7031,486.7969 Q312.0938,486.6406 312.5156,486.2031 Q312.7813,485.9375 312.9219,485.8594 Q313.0781,485.7813 313.2813,485.7813 Q313.6094,485.7813 313.8594,486.0469 Q314.125,486.2969 314.125,486.6406 Q314.125,486.9844 313.7813,487.3906 Q313.2813,487.9688 312.4844,488.2969 Q311.4063,488.75 310.1094,488.75 Q308.5938,488.75 307.3906,488.125 Q306.4063,487.625 305.7188,486.5625 Q305.0313,485.4844 305.0313,484.2031 L305.0313,483.0469 Q305.0313,481.7188 305.6406,480.5781 Q306.2656,479.4219 307.3594,478.8125 Q308.4531,478.1875 309.6875,478.1875 Q310.4219,478.1875 311.0625,478.3594 Q311.7188,478.5156 312.2656,478.875 Z " fill="#000000"/><text fill="#000000" font-family="sans-serif" font-size="14" lengthAdjust="spacing" textLength="137.7236" x="323.5" y="488.7285">GameTouchController</text></g><!--class GameLoop--><g class="entity" data-qualified-name="GameLoop" data-source-line="15" id="ent0013"><rect fill="#F1F1F1" height="32" rx="2.5" ry="2.5" style="stroke:#181818;stroke-width:0.5;" width="101.2686" x="259" y="559"/><ellipse cx="274" cy="575" fill="#ADD1B2" rx="11" ry="11" style="stroke:#181818;stroke-width:1;"/><path d="M276.7656,570.875 Q276.9219,570.6563 277.1094,570.5469 Q277.2969,570.4375 277.5156,570.4375 Q277.8906,570.4375 278.125,570.7031 Q278.3594,570.9531 278.3594,571.5625 L278.3594,573.0156 Q278.3594,573.625 278.125,573.8906 Q277.8906,574.1563 277.5156,574.1563 Q277.1719,574.1563 276.9688,573.9531 Q276.7656,573.7656 276.6563,573.25 Q276.6094,572.8906 276.4219,572.7031 Q276.0938,572.3281 275.4844,572.1094 Q274.875,571.8906 274.25,571.8906 Q273.4844,571.8906 272.8438,572.2188 Q272.2188,572.5469 271.7188,573.2969 Q271.2344,574.0469 271.2344,575.0781 L271.2344,576.1719 Q271.2344,577.4063 272.125,578.2344 Q273.0156,579.0469 274.6094,579.0469 Q275.5469,579.0469 276.2031,578.7969 Q276.5938,578.6406 277.0156,578.2031 Q277.2813,577.9375 277.4219,577.8594 Q277.5781,577.7813 277.7813,577.7813 Q278.1094,577.7813 278.3594,578.0469 Q278.625,578.2969 278.625,578.6406 Q278.625,578.9844 278.2813,579.3906 Q277.7813,579.9688 276.9844,580.2969 Q275.9063,580.75 274.6094,580.75 Q273.0938,580.75 271.8906,580.125 Q270.9063,579.625 270.2188,578.5625 Q269.5313,577.4844 269.5313,576.2031 L269.5313,575.0469 Q269.5313,573.7188 270.1406,572.5781 Q270.7656,571.4219 271.8594,570.8125 Q272.9531,570.1875 274.1875,570.1875 Q274.9219,570.1875 275.5625,570.3594 Q276.2188,570.5156 276.7656,570.875 Z " fill="#000000"/><text fill="#000000" font-family="sans-serif" font-size="14" lengthAdjust="spacing" textLength="69.2686" x="288" y="580.7285">GameLoop</text></g><!--class GameView--><g class="entity" data-qualified-name="GameView" data-source-line="16" id="ent0014"><rect fill="#F1F1F1" height="32" rx="2.5" ry="2.5" style="stroke:#181818;stroke-width:0.5;" width="100.4688" x="363.5" y="651"/><ellipse cx="378.5" cy="667" fill="#ADD1B2" rx="11" ry="11" style="stroke:#181818;stroke-width:1;"/><path d="M381.2656,662.875 Q381.4219,662.6563 381.6094,662.5469 Q381.7969,662.4375 382.0156,662.4375 Q382.3906,662.4375 382.625,662.7031 Q382.8594,662.9531 382.8594,663.5625 L382.8594,665.0156 Q382.8594,665.625 382.625,665.8906 Q382.3906,666.1563 382.0156,666.1563 Q381.6719,666.1563 381.4688,665.9531 Q381.2656,665.7656 381.1563,665.25 Q381.1094,664.8906 380.9219,664.7031 Q380.5938,664.3281 379.9844,664.1094 Q379.375,663.8906 378.75,663.8906 Q377.9844,663.8906 377.3438,664.2188 Q376.7188,664.5469 376.2188,665.2969 Q375.7344,666.0469 375.7344,667.0781 L375.7344,668.1719 Q375.7344,669.4063 376.625,670.2344 Q377.5156,671.0469 379.1094,671.0469 Q380.0469,671.0469 380.7031,670.7969 Q381.0938,670.6406 381.5156,670.2031 Q381.7813,669.9375 381.9219,669.8594 Q382.0781,669.7813 382.2813,669.7813 Q382.6094,669.7813 382.8594,670.0469 Q383.125,670.2969 383.125,670.6406 Q383.125,670.9844 382.7813,671.3906 Q382.2813,671.9688 381.4844,672.2969 Q380.4063,672.75 379.1094,672.75 Q377.5938,672.75 376.3906,672.125 Q375.4063,671.625 374.7188,670.5625 Q374.0313,669.4844 374.0313,668.2031 L374.0313,667.0469 Q374.0313,665.7188 374.6406,664.5781 Q375.2656,663.4219 376.3594,662.8125 Q377.4531,662.1875 378.6875,662.1875 Q379.4219,662.1875 380.0625,662.3594 Q380.7188,662.5156 381.2656,662.875 Z " fill="#000000"/><text fill="#000000" font-family="sans-serif" font-size="14" lengthAdjust="spacing" textLength="68.4688" x="392.5" y="672.7285">GameView</text></g><!--class Grid--><g class="entity" data-qualified-name="Grid" data-source-line="17" id="ent0015"><rect fill="#F1F1F1" height="32" rx="2.5" ry="2.5" style="stroke:#181818;stroke-width:0.5;" width="58.4482" x="384.5" y="743"/><ellipse cx="399.5" cy="759" fill="#ADD1B2" rx="11" ry="11" style="stroke:#181818;stroke-width:1;"/><path d="M402.2656,754.875 Q402.4219,754.6563 402.6094,754.5469 Q402.7969,754.4375 403.0156,754.4375 Q403.3906,754.4375 403.625,754.7031 Q403.8594,754.9531 403.8594,755.5625 L403.8594,757.0156 Q403.8594,757.625 403.625,757.8906 Q403.3906,758.1563 403.0156,758.1563 Q402.6719,758.1563 402.4688,757.9531 Q402.2656,757.7656 402.1563,757.25 Q402.1094,756.8906 401.9219,756.7031 Q401.5938,756.3281 400.9844,756.1094 Q400.375,755.8906 399.75,755.8906 Q398.9844,755.8906 398.3438,756.2188 Q397.7188,756.5469 397.2188,757.2969 Q396.7344,758.0469 396.7344,759.0781 L396.7344,760.1719 Q396.7344,761.4063 397.625,762.2344 Q398.5156,763.0469 400.1094,763.0469 Q401.0469,763.0469 401.7031,762.7969 Q402.0938,762.6406 402.5156,762.2031 Q402.7813,761.9375 402.9219,761.8594 Q403.0781,761.7813 403.2813,761.7813 Q403.6094,761.7813 403.8594,762.0469 Q404.125,762.2969 404.125,762.6406 Q404.125,762.9844 403.7813,763.3906 Q403.2813,763.9688 402.4844,764.2969 Q401.4063,764.75 400.1094,764.75 Q398.5938,764.75 397.3906,764.125 Q396.4063,763.625 395.7188,762.5625 Q395.0313,761.4844 395.0313,760.2031 L395.0313,759.0469 Q395.0313,757.7188 395.6406,756.5781 Q396.2656,755.4219 397.3594,754.8125 Q398.4531,754.1875 399.6875,754.1875 Q400.4219,754.1875 401.0625,754.3594 Q401.7188,754.5156 402.2656,754.875 Z " fill="#000000"/><text fill="#000000" font-family="sans-serif" font-size="14" lengthAdjust="spacing" textLength="26.4482" x="413.5" y="764.7285">Grid</text></g><!--class SaveGame--><g class="entity" data-qualified-name="SaveGame" data-source-line="18" id="ent0016"><rect fill="#F1F1F1" height="32" rx="2.5" ry="2.5" style="stroke:#181818;stroke-width:0.5;" width="102.0342" x="641.5" y="559"/><ellipse cx="656.5" cy="575" fill="#ADD1B2" rx="11" ry="11" style="stroke:#181818;stroke-width:1;"/><path d="M659.2656,570.875 Q659.4219,570.6563 659.6094,570.5469 Q659.7969,570.4375 660.0156,570.4375 Q660.3906,570.4375 660.625,570.7031 Q660.8594,570.9531 660.8594,571.5625 L660.8594,573.0156 Q660.8594,573.625 660.625,573.8906 Q660.3906,574.1563 660.0156,574.1563 Q659.6719,574.1563 659.4688,573.9531 Q659.2656,573.7656 659.1563,573.25 Q659.1094,572.8906 658.9219,572.7031 Q658.5938,572.3281 657.9844,572.1094 Q657.375,571.8906 656.75,571.8906 Q655.9844,571.8906 655.3438,572.2188 Q654.7188,572.5469 654.2188,573.2969 Q653.7344,574.0469 653.7344,575.0781 L653.7344,576.1719 Q653.7344,577.4063 654.625,578.2344 Q655.5156,579.0469 657.1094,579.0469 Q658.0469,579.0469 658.7031,578.7969 Q659.0938,578.6406 659.5156,578.2031 Q659.7813,577.9375 659.9219,577.8594 Q660.0781,577.7813 660.2813,577.7813 Q660.6094,577.7813 660.8594,578.0469 Q661.125,578.2969 661.125,578.6406 Q661.125,578.9844 660.7813,579.3906 Q660.2813,579.9688 659.4844,580.2969 Q658.4063,580.75 657.1094,580.75 Q655.5938,580.75 654.3906,580.125 Q653.4063,579.625 652.7188,578.5625 Q652.0313,577.4844 652.0313,576.2031 L652.0313,575.0469 Q652.0313,573.7188 652.6406,572.5781 Q653.2656,571.4219 654.3594,570.8125 Q655.4531,570.1875 656.6875,570.1875 Q657.4219,570.1875 658.0625,570.3594 Q658.7188,570.5156 659.2656,570.875 Z " fill="#000000"/><text fill="#000000" font-family="sans-serif" font-size="14" lengthAdjust="spacing" textLength="70.0342" x="670.5" y="580.7285">SaveGame</text></g><!--class SaveGameManager--><g class="entity" data-qualified-name="SaveGameManager" data-source-line="19" id="ent0017"><rect fill="#F1F1F1" height="32" rx="2.5" ry="2.5" style="stroke:#181818;stroke-width:0.5;" width="157.2891" x="571" y="467"/><ellipse cx="586" cy="483" fill="#ADD1B2" rx="11" ry="11" style="stroke:#181818;stroke-width:1;"/><path d="M588.7656,478.875 Q588.9219,478.6563 589.1094,478.5469 Q589.2969,478.4375 589.5156,478.4375 Q589.8906,478.4375 590.125,478.7031 Q590.3594,478.9531 590.3594,479.5625 L590.3594,481.0156 Q590.3594,481.625 590.125,481.8906 Q589.8906,482.1563 589.5156,482.1563 Q589.1719,482.1563 588.9688,481.9531 Q588.7656,481.7656 588.6563,481.25 Q588.6094,480.8906 588.4219,480.7031 Q588.0938,480.3281 587.4844,480.1094 Q586.875,479.8906 586.25,479.8906 Q585.4844,479.8906 584.8438,480.2188 Q584.2188,480.5469 583.7188,481.2969 Q583.2344,482.0469 583.2344,483.0781 L583.2344,484.1719 Q583.2344,485.4063 584.125,486.2344 Q585.0156,487.0469 586.6094,487.0469 Q587.5469,487.0469 588.2031,486.7969 Q588.5938,486.6406 589.0156,486.2031 Q589.2813,485.9375 589.4219,485.8594 Q589.5781,485.7813 589.7813,485.7813 Q590.1094,485.7813 590.3594,486.0469 Q590.625,486.2969 590.625,486.6406 Q590.625,486.9844 590.2813,487.3906 Q589.7813,487.9688 588.9844,488.2969 Q587.9063,488.75 586.6094,488.75 Q585.0938,488.75 583.8906,488.125 Q582.9063,487.625 582.2188,486.5625 Q581.5313,485.4844 581.5313,484.2031 L581.5313,483.0469 Q581.5313,481.7188 582.1406,480.5781 Q582.7656,479.4219 583.8594,478.8125 Q584.9531,478.1875 586.1875,478.1875 Q586.9219,478.1875 587.5625,478.3594 Q588.2188,478.5156 588.7656,478.875 Z " fill="#000000"/><text fill="#000000" font-family="sans-serif" font-size="14" lengthAdjust="spacing" textLength="125.2891" x="600" y="488.7285">SaveGameManager</text></g><!--link MainActivity to PlayRandomListener--><g class="link" data-entity-1="ent0002" data-entity-2="ent0006" data-link-type="dependency" data-source-line="21" id="lnk18"><path codeLine="21" d="M359.58,33.95 C313.91,44.39 248.41,64.23 200.5,99 C165.84,124.15 141.7129,162.758 129.1229,185.738" fill="none" id="MainActivity-to-PlayRandomListener" style="stroke:#181818;stroke-width:1;stroke-dasharray:7,7;"/><polygon fill="#181818" points="126.24,191,134.0724,185.0289,128.6424,186.615,127.0563,181.185,126.24,191" style="stroke:#181818;stroke-width:1;"/></g><!--link MainActivity to PlaySeedListener--><g class="link" data-entity-1="ent0002" data-entity-2="ent0007" data-link-type="dependency" data-source-line="22" id="lnk19"><path codeLine="22" d="M392.75,39.06 C369.86,55.68 338.0953,78.725 315.1753,95.365" fill="none" id="MainActivity-to-PlaySeedListener" style="stroke:#181818;stroke-width:1;stroke-dasharray:7,7;"/><polygon fill="#181818" points="310.32,98.89,319.953,96.8394,314.3661,95.9525,315.253,90.3656,310.32,98.89" style="stroke:#181818;stroke-width:1;"/></g><!--link MainActivity to ResumeGameListener--><g class="link" data-entity-1="ent0002" data-entity-2="ent0008" data-link-type="dependency" data-source-line="23" id="lnk20"><path codeLine="23" d="M415.43,39.12 C421.55,87.03 439.6999,229.1383 445.8099,276.9783" fill="none" id="MainActivity-to-ResumeGameListener" style="stroke:#181818;stroke-width:1;stroke-dasharray:7,7;"/><polygon fill="#181818" points="446.57,282.93,449.3976,273.4958,445.9366,277.9703,441.462,274.5093,446.57,282.93" style="stroke:#181818;stroke-width:1;"/></g><!--link MainActivity to OptionsListener--><g class="link" data-entity-1="ent0002" data-entity-2="ent0009" data-link-type="dependency" data-source-line="24" id="lnk21"><path codeLine="24" d="M433.25,39.06 C455.03,55.68 485.1098,78.6106 506.9198,95.2506" fill="none" id="MainActivity-to-OptionsListener" style="stroke:#181818;stroke-width:1;stroke-dasharray:7,7;"/><polygon fill="#181818" points="511.69,98.89,506.961,90.2507,507.7149,95.8571,502.1084,96.611,511.69,98.89" style="stroke:#181818;stroke-width:1;"/></g><!--link MainActivity to SaveGameManager--><g class="link" data-entity-1="ent0002" data-entity-2="ent0017" data-link-type="dependency" data-source-line="25" id="lnk22"><path codeLine="25" d="M467.1,30.94 C512.2,39.5 575.43,58.29 614.5,99 C649.15,135.1 649.5,155.96 649.5,206 C649.5,206 649.5,206 649.5,300 C649.5,361.93 649.5,429.72 649.5,460.9" fill="none" id="MainActivity-to-SaveGameManager" style="stroke:#181818;stroke-width:1;stroke-dasharray:7,7;"/><polygon fill="#181818" points="649.5,466.9,653.5,457.9,649.5,461.9,645.5,457.9,649.5,466.9" style="stroke:#181818;stroke-width:1;"/></g><!--link PlayRandomListener to GameActivity--><g class="link" data-entity-1="ent0006" data-entity-2="ent0004" data-link-type="dependency" data-source-line="27" id="lnk23"><path codeLine="27" d="M120.76,223.07 C124.64,244.97 134.19,286.15 154.5,315 C172.41,340.43 196.2715,358.3409 217.5115,371.6109" fill="none" id="PlayRandomListener-to-GameActivity" style="stroke:#181818;stroke-width:1;stroke-dasharray:7,7;"/><polygon fill="#181818" points="222.6,374.79,217.0866,366.6289,218.3596,372.1407,212.8478,373.4137,222.6,374.79" style="stroke:#181818;stroke-width:1;"/></g><!--link PlaySeedListener to SeedActivity--><g class="link" data-entity-1="ent0007" data-entity-2="ent0003" data-link-type="dependency" data-source-line="28" id="lnk24"><path codeLine="28" d="M289.5,131.27 C289.5,147.92 289.5,168.4 289.5,184.96" fill="none" id="PlaySeedListener-to-SeedActivity" style="stroke:#181818;stroke-width:1;stroke-dasharray:7,7;"/><polygon fill="#181818" points="289.5,190.96,293.5,181.96,289.5,185.96,285.5,181.96,289.5,190.96" style="stroke:#181818;stroke-width:1;"/></g><!--link ResumeGameListener to GameActivity--><g class="link" data-entity-1="ent0008" data-entity-2="ent0004" data-link-type="dependency" data-source-line="29" id="lnk25"><path codeLine="29" d="M415.19,315.06 C378.46,331.68 325.1563,355.7763 288.3863,372.4163" fill="none" id="ResumeGameListener-to-GameActivity" style="stroke:#181818;stroke-width:1;stroke-dasharray:7,7;"/><polygon fill="#181818" points="282.92,374.89,292.7686,374.8236,287.4753,372.8285,289.4703,367.5352,282.92,374.89" style="stroke:#181818;stroke-width:1;"/></g><!--link OptionsListener to OptionsActivity--><g class="link" data-entity-1="ent0009" data-entity-2="ent0005" data-link-type="dependency" data-source-line="30" id="lnk26"><path codeLine="30" d="M531.5,131.27 C531.5,147.92 531.5,168.4 531.5,184.96" fill="none" id="OptionsListener-to-OptionsActivity" style="stroke:#181818;stroke-width:1;stroke-dasharray:7,7;"/><polygon fill="#181818" points="531.5,190.96,535.5,181.96,531.5,185.96,527.5,181.96,531.5,190.96" style="stroke:#181818;stroke-width:1;"/></g><!--link SeedActivity to SeedButtonListener--><g class="link" data-entity-1="ent0003" data-entity-2="ent0010" data-link-type="dependency" data-source-line="32" id="lnk27"><path codeLine="32" d="M282.71,223.27 C275.31,239.92 265.9868,260.9171 258.6268,277.4771" fill="none" id="SeedActivity-to-SeedButtonListener" style="stroke:#181818;stroke-width:1;stroke-dasharray:7,7;"/><polygon fill="#181818" points="256.19,282.96,263.5005,276.3602,258.2207,278.3909,256.19,273.1111,256.19,282.96" style="stroke:#181818;stroke-width:1;"/></g><!--link SeedButtonListener to GameActivity--><g class="link" data-entity-1="ent0010" data-entity-2="ent0004" data-link-type="dependency" data-source-line="33" id="lnk28"><path codeLine="33" d="M249.5,315.27 C249.5,331.92 249.5,352.4 249.5,368.96" fill="none" id="SeedButtonListener-to-GameActivity" style="stroke:#181818;stroke-width:1;stroke-dasharray:7,7;"/><polygon fill="#181818" points="249.5,374.96,253.5,365.96,249.5,369.96,245.5,365.96,249.5,374.96" style="stroke:#181818;stroke-width:1;"/></g><!--link GameActivity to GameView--><g class="link" data-entity-1="ent0004" data-entity-2="ent0014" data-link-type="dependency" data-source-line="35" id="lnk29"><path codeLine="35" d="M306.59,392.57 C361.71,396.54 442.52,412.13 482.5,467 C525.89,526.55 462.177,611.121 431.397,646.361" fill="none" id="GameActivity-to-GameView" style="stroke:#181818;stroke-width:1;stroke-dasharray:7,7;"/><polygon fill="#181818" points="427.45,650.88,436.3832,646.7329,430.7392,647.1142,430.3579,641.4702,427.45,650.88" style="stroke:#181818;stroke-width:1;"/></g><!--link GameActivity to GameTouchController--><g class="link" data-entity-1="ent0004" data-entity-2="ent0012" data-link-type="dependency" data-source-line="36" id="lnk30"><path codeLine="36" d="M271.26,407.06 C295.26,423.68 328.7072,446.8342 352.7372,463.4742" fill="none" id="GameActivity-to-GameTouchController" style="stroke:#181818;stroke-width:1;stroke-dasharray:7,7;"/><polygon fill="#181818" points="357.67,466.89,352.548,458.4778,353.5593,464.0435,347.9936,465.0548,357.67,466.89" style="stroke:#181818;stroke-width:1;"/></g><!--link GameActivity to GameLoop--><g class="link" data-entity-1="ent0004" data-entity-2="ent0013" data-link-type="dependency" data-source-line="37" id="lnk31"><path codeLine="37" d="M241.1,407.12 C239.79,428.06 248.48,466.93 259.5,499 C266.8,520.26 274.0544,539.0442 285.2944,553.9942" fill="none" id="GameActivity-to-GameLoop" style="stroke:#181818;stroke-width:1;stroke-dasharray:7,7;"/><polygon fill="#181818" points="288.9,558.79,286.6887,549.1926,285.8953,554.7935,280.2944,554.0001,288.9,558.79" style="stroke:#181818;stroke-width:1;"/></g><!--link GameLoop to GameActivity--><g class="link" data-entity-1="ent0013" data-entity-2="ent0004" data-link-type="dependency" data-source-line="45" id="lnk38"><path codeLine="45" d="M315.67,558.79 C312.66,543.84 301.8,520.26 294.5,499 C283.48,466.93 277.43,433.448 267.17,412.508" fill="none" id="GameLoop-to-GameActivity" style="stroke:#181818;stroke-width:1;stroke-dasharray:7,7;"/><polygon fill="#181818" points="264.53,407.12,264.8979,416.962,266.73,411.61,272.082,413.442,264.53,407.12" style="stroke:#181818;stroke-width:1;"/></g><!--link GameActivity to SaveGameManager--><g class="link" data-entity-1="ent0004" data-entity-2="ent0017" data-link-type="dependency" data-source-line="38" id="lnk32"><path codeLine="38" d="M306.81,404.89 C379.72,421.3 499.5563,448.2631 576.7663,465.6331" fill="none" id="GameActivity-to-SaveGameManager" style="stroke:#181818;stroke-width:1;stroke-dasharray:7,7;"/><polygon fill="#181818" points="582.62,466.95,574.7174,461.0722,577.7419,465.8526,572.9615,468.8771,582.62,466.95" style="stroke:#181818;stroke-width:1;"/></g><!--link GameActivity to CopySeedListener--><g class="link" data-entity-1="ent0004" data-entity-2="ent0011" data-link-type="dependency" data-source-line="39" id="lnk33"><path codeLine="39" d="M221.21,407.06 C190.02,423.68 145.4052,447.4286 114.1752,464.0686" fill="none" id="GameActivity-to-CopySeedListener" style="stroke:#181818;stroke-width:1;stroke-dasharray:7,7;"/><polygon fill="#181818" points="108.88,466.89,118.7038,466.188,113.2927,464.5388,114.9419,459.1277,108.88,466.89" style="stroke:#181818;stroke-width:1;"/></g><!--link GameTouchController to GameLoop--><g class="link" data-entity-1="ent0012" data-entity-2="ent0013" data-link-type="dependency" data-source-line="41" id="lnk34"><path codeLine="41" d="M367.63,499.27 C354.68,515.92 337.7636,537.6639 324.8836,554.2239" fill="none" id="GameTouchController-to-GameLoop" style="stroke:#181818;stroke-width:1;stroke-dasharray:7,7;"/><polygon fill="#181818" points="321.2,558.96,329.8829,554.3116,324.2697,555.0132,323.5681,549.4001,321.2,558.96" style="stroke:#181818;stroke-width:1;"/></g><!--link GameTouchController to GameView--><g class="link" data-entity-1="ent0012" data-entity-2="ent0014" data-link-type="dependency" data-source-line="42" id="lnk35"><path codeLine="42" d="M382.34,499.2 C388.76,533.55 403.2091,610.8919 409.5891,645.0719" fill="none" id="GameTouchController-to-GameView" style="stroke:#181818;stroke-width:1;stroke-dasharray:7,7;"/><polygon fill="#181818" points="410.69,650.97,412.9707,641.3888,409.7726,646.0549,405.1065,642.8568,410.69,650.97" style="stroke:#181818;stroke-width:1;"/></g><!--link GameLoop to Grid--><g class="link" data-entity-1="ent0013" data-entity-2="ent0015" data-link-type="dependency" data-source-line="43" id="lnk36"><path codeLine="43" d="M312.78,591.34 C317.82,612.89 328.78,652.83 346.5,683 C360.12,706.19 377.2482,724.4894 392.1982,738.6794" fill="none" id="GameLoop-to-Grid" style="stroke:#181818;stroke-width:1;stroke-dasharray:7,7;"/><polygon fill="#181818" points="396.55,742.81,392.776,733.7129,392.9235,739.3678,387.2686,739.5153,396.55,742.81" style="stroke:#181818;stroke-width:1;"/></g><!--link GameLoop to GameView--><g class="link" data-entity-1="ent0013" data-entity-2="ent0014" data-link-type="dependency" data-source-line="44" id="lnk37"><path codeLine="44" d="M327.14,591.27 C346.38,607.92 372.4426,630.4742 391.5826,647.0342" fill="none" id="GameLoop-to-GameView" style="stroke:#181818;stroke-width:1;stroke-dasharray:7,7;"/><polygon fill="#181818" points="396.12,650.96,391.9311,642.0464,392.3388,647.6885,386.6967,648.0963,396.12,650.96" style="stroke:#181818;stroke-width:1;"/></g><!--link GameView to Grid--><g class="link" data-entity-1="ent0014" data-entity-2="ent0015" data-link-type="dependency" data-source-line="46" id="lnk39"><path codeLine="46" d="M413.5,683.27 C413.5,699.92 413.5,720.4 413.5,736.96" fill="none" id="GameView-to-Grid" style="stroke:#181818;stroke-width:1;stroke-dasharray:7,7;"/><polygon fill="#181818" points="413.5,742.96,417.5,733.96,413.5,737.96,409.5,733.96,413.5,742.96" style="stroke:#181818;stroke-width:1;"/></g><!--link SaveGameManager to SaveGame--><g class="link" data-entity-1="ent0017" data-entity-2="ent0016" data-link-type="dependency" data-source-line="48" id="lnk40"><path codeLine="48" d="M656.79,499.27 C664.75,515.92 674.8139,536.9859 682.7239,553.5459" fill="none" id="SaveGameManager-to-SaveGame" style="stroke:#181818;stroke-width:1;stroke-dasharray:7,7;"/><polygon fill="#181818" points="685.31,558.96,685.0403,549.1148,683.1549,554.4483,677.8215,552.5629,685.31,558.96" style="stroke:#181818;stroke-width:1;"/></g><!--link SaveGameManager to Grid--><g class="link" data-entity-1="ent0017" data-entity-2="ent0015" data-link-type="dependency" data-source-line="49" id="lnk41"><path codeLine="49" d="M637.03,499.13 C609.4,532.6 540.75,615.29 481.5,683 C463.1,704.03 445.3846,723.4565 431.5246,738.5065" fill="none" id="SaveGameManager-to-Grid" style="stroke:#181818;stroke-width:1;stroke-dasharray:7,7;"/><polygon fill="#181818" points="427.46,742.92,436.4992,739.0094,430.8471,739.2421,430.6145,733.59,427.46,742.92" style="stroke:#181818;stroke-width:1;"/></g><?plantuml-src TL91JWCn3Bpd5Nb1nGkGIWy8gHMehRYdknQrsCIh95jKNWz9kqjYXwDd9kEnu_29RZJUMDqD9eHrZ1vFKuINZjm1lq4_g3Fse2tO4_YWL9RfdK6txY9UC5xlq06WPz2piS2Wrp4YkS3Gjy5SzyRrPBSO8ZZm1P6C6Ro7C5b8zeouspCqEJnDCP9Zn8R6bdqoFjBKdJVaegTXg9WjqLYKxmXVS-cndrkQIyx7ofrnvkFNJPKBrAlLOsi5JKqLLoWQYn4QlYCX465bjgohlfTdkpcLDo6pIHUMhSoxQ5JfkhHX_oiXsKoLrKBd_smo_2IQedmTWk4h5G9nYQhHKJRvJx0CaPGtDDrcZRHrvOPcoP-3OfDKqpN9_Em7?></g></svg>