<?plantuml 1.2026.2?><svg xmlns="http://www.w3.org/2000/svg" xmlns:xlink="http://www.w3.org/1999/xlink" contentStyleType="text/css" data-diagram-type="CLASS" height="807px" preserveAspectRatio="none" style="width:518px;height:807px;background:#FFFFFF;" version="1.1" viewBox="0 0 518 807" width="518px" zoomAndPan="magnify"><defs/><g><!--class MainActivity--><g class="entity" data-qualified-name="MainActivity" data-source-line="4" id="ent0002"><rect fill="#F1F1F1" height="32" rx="2.5" ry="2.5" style="stroke:#181818;stroke-width:0.5;" width="106.6826" x="211.5" y="7"/><ellipse cx="226.5" cy="23" fill="#ADD1B2" rx="11" ry="11" style="stroke:#181818;stroke-width:1;"/><path d="M229.2656,18.875 Q229.4219,18.6563 229.6094,18.5469 Q229.7969,18.4375 230.0156,18.4375 Q230.3906,18.4375 230.625,18.7031 Q230.8594,18.9531 230.8594,19.5625 L230.8594,21.0156 Q230.8594,21.625 230.625,21.8906 Q230.3906,22.1563 230.0156,22.1563 Q229.6719,22.1563 229.4688,21.9531 Q229.2656,21.7656 229.1563,21.25 Q229.1094,20.8906 228.9219,20.7031 Q228.5938,20.3281 227.9844,20.1094 Q227.375,19.8906 226.75,19.8906 Q225.9844,19.8906 225.3438,20.2188 Q224.7188,20.5469 224.2188,21.2969 Q223.7344,22.0469 223.7344,23.0781 L223.7344,24.1719 Q223.7344,25.4063 224.625,26.2344 Q225.5156,27.0469 227.1094,27.0469 Q228.0469,27.0469 228.7031,26.7969 Q229.0938,26.6406 229.5156,26.2031 Q229.7813,25.9375 229.9219,25.8594 Q230.0781,25.7813 230.2813,25.7813 Q230.6094,25.7813 230.8594,26.0469 Q231.125,26.2969 231.125,26.6406 Q231.125,26.9844 230.7813,27.3906 Q230.2813,27.9688 229.4844,28.2969 Q228.4063,28.75 227.1094,28.75 Q225.5938,28.75 224.3906,28.125 Q223.4063,27.625 222.7188,26.5625 Q222.0313,25.4844 222.0313,24.2031 L222.0313,23.0469 Q222.0313,21.7188 222.6406,20.5781 Q223.2656,19.4219 224.3594,18.8125 Q225.4531,18.1875 226.6875,18.1875 Q227.4219,18.1875 228.0625,18.3594 Q228.7188,18.5156 229.2656,18.875 Z " fill="#000000"/><text fill="#000000" font-family="sans-serif" font-size="14" lengthAdjust="spacing" textLength="74.6826" x="240.5" y="28.7285">MainActivity</text></g><!--class PlayRandomListener--><g class="entity" data-qualified-name="PlayRandomListener" data-source-line="5" id="ent0003"><rect fill="#F1F1F1" height="32" rx="2.5" ry="2.5" style="stroke:#181818;stroke-width:0.5;" width="161.958" x="55" y="162"/><ellipse cx="70" cy="178" fill="#ADD1B2" rx="11" ry="11" style="stroke:#181818;stroke-width:1;"/><path d="M72.7656,173.875 Q72.9219,173.6563 73.1094,173.5469 Q73.2969,173.4375 73.5156,173.4375 Q73.8906,173.4375 74.125,173.7031 Q74.3594,173.9531 74.3594,174.5625 L74.3594,176.0156 Q74.3594,176.625 74.125,176.8906 Q73.8906,177.1563 73.5156,177.1563 Q73.1719,177.1563 72.9688,176.9531 Q72.7656,176.7656 72.6563,176.25 Q72.6094,175.8906 72.4219,175.7031 Q72.0938,175.3281 71.4844,175.1094 Q70.875,174.8906 70.25,174.8906 Q69.4844,174.8906 68.8438,175.2188 Q68.2188,175.5469 67.7188,176.2969 Q67.2344,177.0469 67.2344,178.0781 L67.2344,179.1719 Q67.2344,180.4063 68.125,181.2344 Q69.0156,182.0469 70.6094,182.0469 Q71.5469,182.0469 72.2031,181.7969 Q72.5938,181.6406 73.0156,181.2031 Q73.2813,180.9375 73.4219,180.8594 Q73.5781,180.7813 73.7813,180.7813 Q74.1094,180.7813 74.3594,181.0469 Q74.625,181.2969 74.625,181.6406 Q74.625,181.9844 74.2813,182.3906 Q73.7813,182.9688 72.9844,183.2969 Q71.9063,183.75 70.6094,183.75 Q69.0938,183.75 67.8906,183.125 Q66.9063,182.625 66.2188,181.5625 Q65.5313,180.4844 65.5313,179.2031 L65.5313,178.0469 Q65.5313,176.7188 66.1406,175.5781 Q66.7656,174.4219 67.8594,173.8125 Q68.9531,173.1875 70.1875,173.1875 Q70.9219,173.1875 71.5625,173.3594 Q72.2188,173.5156 72.7656,173.875 Z " fill="#000000"/><text fill="#000000" font-family="sans-serif" font-size="14" lengthAdjust="spacing" textLength="129.958" x="84" y="183.7285">PlayRandomListener</text></g><!--class PlaySeedListener--><g class="entity" data-qualified-name="PlaySeedListener" data-source-line="6" id="ent0004"><rect fill="#F1F1F1" height="32" rx="2.5" ry="2.5" style="stroke:#181818;stroke-width:0.5;" width="141.7373" x="194" y="100"/><ellipse cx="209" cy="116" fill="#ADD1B2" rx="11" ry="11" style="stroke:#181818;stroke-width:1;"/><path d="M211.7656,111.875 Q211.9219,111.6563 212.1094,111.5469 Q212.2969,111.4375 212.5156,111.4375 Q212.8906,111.4375 213.125,111.7031 Q213.3594,111.9531 213.3594,112.5625 L213.3594,114.0156 Q213.3594,114.625 213.125,114.8906 Q212.8906,115.1563 212.5156,115.1563 Q212.1719,115.1563 211.9688,114.9531 Q211.7656,114.7656 211.6563,114.25 Q211.6094,113.8906 211.4219,113.7031 Q211.0938,113.3281 210.4844,113.1094 Q209.875,112.8906 209.25,112.8906 Q208.4844,112.8906 207.8438,113.2188 Q207.2188,113.5469 206.7188,114.2969 Q206.2344,115.0469 206.2344,116.0781 L206.2344,117.1719 Q206.2344,118.4063 207.125,119.2344 Q208.0156,120.0469 209.6094,120.0469 Q210.5469,120.0469 211.2031,119.7969 Q211.5938,119.6406 212.0156,119.2031 Q212.2813,118.9375 212.4219,118.8594 Q212.5781,118.7813 212.7813,118.7813 Q213.1094,118.7813 213.3594,119.0469 Q213.625,119.2969 213.625,119.6406 Q213.625,119.9844 213.2813,120.3906 Q212.7813,120.9688 211.9844,121.2969 Q210.9063,121.75 209.6094,121.75 Q208.0938,121.75 206.8906,121.125 Q205.9063,120.625 205.2188,119.5625 Q204.5313,118.4844 204.5313,117.2031 L204.5313,116.0469 Q204.5313,114.7188 205.1406,113.5781 Q205.7656,112.4219 206.8594,111.8125 Q207.9531,111.1875 209.1875,111.1875 Q209.9219,111.1875 210.5625,111.3594 Q211.2188,111.5156 211.7656,111.875 Z " fill="#000000"/><text fill="#000000" font-family="sans-serif" font-size="14" lengthAdjust="spacing" textLength="109.7373" x="223" y="121.7285">PlaySeedListener</text></g><!--class ResumeGameListener--><g class="entity" data-qualified-name="ResumeGameListener" data-source-line="7" id="ent0005"><rect fill="#F1F1F1" height="32" rx="2.5" ry="2.5" style="stroke:#181818;stroke-width:0.5;" width="172.0615" x="321" y="286"/><ellipse cx="336" cy="302" fill="#ADD1B2" rx="11" ry="11" style="stroke:#181818;stroke-width:1;"/><path d="M338.7656,297.875 Q338.9219,297.6563 339.1094,297.5469 Q339.2969,297.4375 339.5156,297.4375 Q339.8906,297.4375 340.125,297.7031 Q340.3594,297.9531 340.3594,298.5625 L340.3594,300.0156 Q340.3594,300.625 340.125,300.8906 Q339.8906,301.1563 339.5156,301.1563 Q339.1719,301.1563 338.9688,300.9531 Q338.7656,300.7656 338.6563,300.25 Q338.6094,299.8906 338.4219,299.7031 Q338.0938,299.3281 337.4844,299.1094 Q336.875,298.8906 336.25,298.8906 Q335.4844,298.8906 334.8438,299.2188 Q334.2188,299.5469 333.7188,300.2969 Q333.2344,301.0469 333.2344,302.0781 L333.2344,303.1719 Q333.2344,304.4063 334.125,305.2344 Q335.0156,306.0469 336.6094,306.0469 Q337.5469,306.0469 338.2031,305.7969 Q338.5938,305.6406 339.0156,305.2031 Q339.2813,304.9375 339.4219,304.8594 Q339.5781,304.7813 339.7813,304.7813 Q340.1094,304.7813 340.3594,305.0469 Q340.625,305.2969 340.625,305.6406 Q340.625,305.9844 340.2813,306.3906 Q339.7813,306.9688 338.9844,307.2969 Q337.9063,307.75 336.6094,307.75 Q335.0938,307.75 333.8906,307.125 Q332.9063,306.625 332.2188,305.5625 Q331.5313,304.4844 331.5313,303.2031 L331.5313,302.0469 Q331.5313,300.7188 332.1406,299.5781 Q332.7656,298.4219 333.8594,297.8125 Q334.9531,297.1875 336.1875,297.1875 Q336.9219,297.1875 337.5625,297.3594 Q338.2188,297.5156 338.7656,297.875 Z " fill="#000000"/><text fill="#000000" font-family="sans-serif" font-size="14" lengthAdjust="spacing" textLength="140.0615" x="350" y="307.7285">ResumeGameListener</text></g><!--class SeedActivity--><g class="entity" data-qualified-name="SeedActivity" data-source-line="8" id="ent0006"><rect fill="#F1F1F1" height="32" rx="2.5" ry="2.5" style="stroke:#181818;stroke-width:0.5;" width="109.0342" x="210.5" y="224"/><ellipse cx="225.5" cy="240" fill="#ADD1B2" rx="11" ry="11" style="stroke:#181818;stroke-width:1;"/><path d="M228.2656,235.875 Q228.4219,235.6563 228.6094,235.5469 Q228.7969,235.4375 229.0156,235.4375 Q229.3906,235.4375 229.625,235.7031 Q229.8594,235.9531 229.8594,236.5625 L229.8594,238.0156 Q229.8594,238.625 229.625,238.8906 Q229.3906,239.1563 229.0156,239.1563 Q228.6719,239.1563 228.4688,238.9531 Q228.2656,238.7656 228.1563,238.25 Q228.1094,237.8906 227.9219,237.7031 Q227.5938,237.3281 226.9844,237.1094 Q226.375,236.8906 225.75,236.8906 Q224.9844,236.8906 224.3438,237.2188 Q223.7188,237.5469 223.2188,238.2969 Q222.7344,239.0469 222.7344,240.0781 L222.7344,241.1719 Q222.7344,242.4063 223.625,243.2344 Q224.5156,244.0469 226.1094,244.0469 Q227.0469,244.0469 227.7031,243.7969 Q228.0938,243.6406 228.5156,243.2031 Q228.7813,242.9375 228.9219,242.8594 Q229.0781,242.7813 229.2813,242.7813 Q229.6094,242.7813 229.8594,243.0469 Q230.125,243.2969 230.125,243.6406 Q230.125,243.9844 229.7813,244.3906 Q229.2813,244.9688 228.4844,245.2969 Q227.4063,245.75 226.1094,245.75 Q224.5938,245.75 223.3906,245.125 Q222.4063,244.625 221.7188,243.5625 Q221.0313,242.4844 221.0313,241.2031 L221.0313,240.0469 Q221.0313,238.7188 221.6406,237.5781 Q222.2656,236.4219 223.3594,235.8125 Q224.4531,235.1875 225.6875,235.1875 Q226.4219,235.1875 227.0625,235.3594 Q227.7188,235.5156 228.2656,235.875 Z " fill="#000000"/><text fill="#000000" font-family="sans-serif" font-size="14" lengthAdjust="spacing" textLength="77.0342" x="239.5" y="245.7285">SeedActivity</text></g><!--class SeedButtonListener--><g class="entity" data-qualified-name="SeedButtonListener" data-source-line="9" id="ent0007"><rect fill="#F1F1F1" height="32" rx="2.5" ry="2.5" style="stroke:#181818;stroke-width:0.5;" width="154.9785" x="187.5" y="348"/><ellipse cx="202.5" cy="364" fill="#ADD1B2" rx="11" ry="11" style="stroke:#181818;stroke-width:1;"/><path d="M205.2656,359.875 Q205.4219,359.6563 205.6094,359.5469 Q205.7969,359.4375 206.0156,359.4375 Q206.3906,359.4375 206.625,359.7031 Q206.8594,359.9531 206.8594,360.5625 L206.8594,362.0156 Q206.8594,362.625 206.625,362.8906 Q206.3906,363.1563 206.0156,363.1563 Q205.6719,363.1563 205.4688,362.9531 Q205.2656,362.7656 205.1563,362.25 Q205.1094,361.8906 204.9219,361.7031 Q204.5938,361.3281 203.9844,361.1094 Q203.375,360.8906 202.75,360.8906 Q201.9844,360.8906 201.3438,361.2188 Q200.7188,361.5469 200.2188,362.2969 Q199.7344,363.0469 199.7344,364.0781 L199.7344,365.1719 Q199.7344,366.4063 200.625,367.2344 Q201.5156,368.0469 203.1094,368.0469 Q204.0469,368.0469 204.7031,367.7969 Q205.0938,367.6406 205.5156,367.2031 Q205.7813,366.9375 205.9219,366.8594 Q206.0781,366.7813 206.2813,366.7813 Q206.6094,366.7813 206.8594,367.0469 Q207.125,367.2969 207.125,367.6406 Q207.125,367.9844 206.7813,368.3906 Q206.2813,368.9688 205.4844,369.2969 Q204.4063,369.75 203.1094,369.75 Q201.5938,369.75 200.3906,369.125 Q199.4063,368.625 198.7188,367.5625 Q198.0313,366.4844 198.0313,365.2031 L198.0313,364.0469 Q198.0313,362.7188 198.6406,361.5781 Q199.2656,360.4219 200.3594,359.8125 Q201.4531,359.1875 202.6875,359.1875 Q203.4219,359.1875 204.0625,359.3594 Q204.7188,359.5156 205.2656,359.875 Z " fill="#000000"/><text fill="#000000" font-family="sans-serif" font-size="14" lengthAdjust="spacing" textLength="122.9785" x="216.5" y="369.7285">SeedButtonListener</text></g><!--class GameActivity--><g class="entity" data-qualified-name="GameActivity" data-source-line="10" id="ent0008"><rect fill="#F1F1F1" height="32" rx="2.5" ry="2.5" style="stroke:#181818;stroke-width:0.5;" width="114.4619" x="208" y="458"/><ellipse cx="223" cy="474" fill="#ADD1B2" rx="11" ry="11" style="stroke:#181818;stroke-width:1;"/><path d="M225.7656,469.875 Q225.9219,469.6563 226.1094,469.5469 Q226.2969,469.4375 226.5156,469.4375 Q226.8906,469.4375 227.125,469.7031 Q227.3594,469.9531 227.3594,470.5625 L227.3594,472.0156 Q227.3594,472.625 227.125,472.8906 Q226.8906,473.1563 226.5156,473.1563 Q226.1719,473.1563 225.9688,472.9531 Q225.7656,472.7656 225.6563,472.25 Q225.6094,471.8906 225.4219,471.7031 Q225.0938,471.3281 224.4844,471.1094 Q223.875,470.8906 223.25,470.8906 Q222.4844,470.8906 221.8438,471.2188 Q221.2188,471.5469 220.7188,472.2969 Q220.2344,473.0469 220.2344,474.0781 L220.2344,475.1719 Q220.2344,476.4063 221.125,477.2344 Q222.0156,478.0469 223.6094,478.0469 Q224.5469,478.0469 225.2031,477.7969 Q225.5938,477.6406 226.0156,477.2031 Q226.2813,476.9375 226.4219,476.8594 Q226.5781,476.7813 226.7813,476.7813 Q227.1094,476.7813 227.3594,477.0469 Q227.625,477.2969 227.625,477.6406 Q227.625,477.9844 227.2813,478.3906 Q226.7813,478.9688 225.9844,479.2969 Q224.9063,479.75 223.6094,479.75 Q222.0938,479.75 220.8906,479.125 Q219.9063,478.625 219.2188,477.5625 Q218.5313,476.4844 218.5313,475.2031 L218.5313,474.0469 Q218.5313,472.7188 219.1406,471.5781 Q219.7656,470.4219 220.8594,469.8125 Q221.9531,469.1875 223.1875,469.1875 Q223.9219,469.1875 224.5625,469.3594 Q225.2188,469.5156 225.7656,469.875 Z " fill="#000000"/><text fill="#000000" font-family="sans-serif" font-size="14" lengthAdjust="spacing" textLength="82.4619" x="237" y="479.7285">GameActivity</text></g><!--class GameTouchController--><g class="entity" data-qualified-name="GameTouchController" data-source-line="11" id="ent0009"><rect fill="#F1F1F1" height="32" rx="2.5" ry="2.5" style="stroke:#181818;stroke-width:0.5;" width="169.7236" x="7" y="551"/><ellipse cx="22" cy="567" fill="#ADD1B2" rx="11" ry="11" style="stroke:#181818;stroke-width:1;"/><path d="M24.7656,562.875 Q24.9219,562.6563 25.1094,562.5469 Q25.2969,562.4375 25.5156,562.4375 Q25.8906,562.4375 26.125,562.7031 Q26.3594,562.9531 26.3594,563.5625 L26.3594,565.0156 Q26.3594,565.625 26.125,565.8906 Q25.8906,566.1563 25.5156,566.1563 Q25.1719,566.1563 24.9688,565.9531 Q24.7656,565.7656 24.6563,565.25 Q24.6094,564.8906 24.4219,564.7031 Q24.0938,564.3281 23.4844,564.1094 Q22.875,563.8906 22.25,563.8906 Q21.4844,563.8906 20.8438,564.2188 Q20.2188,564.5469 19.7188,565.2969 Q19.2344,566.0469 19.2344,567.0781 L19.2344,568.1719 Q19.2344,569.4063 20.125,570.2344 Q21.0156,571.0469 22.6094,571.0469 Q23.5469,571.0469 24.2031,570.7969 Q24.5938,570.6406 25.0156,570.2031 Q25.2813,569.9375 25.4219,569.8594 Q25.5781,569.7813 25.7813,569.7813 Q26.1094,569.7813 26.3594,570.0469 Q26.625,570.2969 26.625,570.6406 Q26.625,570.9844 26.2813,571.3906 Q25.7813,571.9688 24.9844,572.2969 Q23.9063,572.75 22.6094,572.75 Q21.0938,572.75 19.8906,572.125 Q18.9063,571.625 18.2188,570.5625 Q17.5313,569.4844 17.5313,568.2031 L17.5313,567.0469 Q17.5313,565.7188 18.1406,564.5781 Q18.7656,563.4219 19.8594,562.8125 Q20.9531,562.1875 22.1875,562.1875 Q22.9219,562.1875 23.5625,562.3594 Q24.2188,562.5156 24.7656,562.875 Z " fill="#000000"/><text fill="#000000" font-family="sans-serif" font-size="14" lengthAdjust="spacing" textLength="137.7236" x="36" y="572.7285">GameTouchController</text></g><!--class GameLoop--><g class="entity" data-qualified-name="GameLoop" data-source-line="12" id="ent0010"><rect fill="#F1F1F1" height="32" rx="2.5" ry="2.5" style="stroke:#181818;stroke-width:0.5;" width="101.2686" x="148.5" y="675"/><ellipse cx="163.5" cy="691" fill="#ADD1B2" rx="11" ry="11" style="stroke:#181818;stroke-width:1;"/><path d="M166.2656,686.875 Q166.4219,686.6563 166.6094,686.5469 Q166.7969,686.4375 167.0156,686.4375 Q167.3906,686.4375 167.625,686.7031 Q167.8594,686.9531 167.8594,687.5625 L167.8594,689.0156 Q167.8594,689.625 167.625,689.8906 Q167.3906,690.1563 167.0156,690.1563 Q166.6719,690.1563 166.4688,689.9531 Q166.2656,689.7656 166.1563,689.25 Q166.1094,688.8906 165.9219,688.7031 Q165.5938,688.3281 164.9844,688.1094 Q164.375,687.8906 163.75,687.8906 Q162.9844,687.8906 162.3438,688.2188 Q161.7188,688.5469 161.2188,689.2969 Q160.7344,690.0469 160.7344,691.0781 L160.7344,692.1719 Q160.7344,693.4063 161.625,694.2344 Q162.5156,695.0469 164.1094,695.0469 Q165.0469,695.0469 165.7031,694.7969 Q166.0938,694.6406 166.5156,694.2031 Q166.7813,693.9375 166.9219,693.8594 Q167.0781,693.7813 167.2813,693.7813 Q167.6094,693.7813 167.8594,694.0469 Q168.125,694.2969 168.125,694.6406 Q168.125,694.9844 167.7813,695.3906 Q167.2813,695.9688 166.4844,696.2969 Q165.4063,696.75 164.1094,696.75 Q162.5938,696.75 161.3906,696.125 Q160.4063,695.625 159.7188,694.5625 Q159.0313,693.4844 159.0313,692.2031 L159.0313,691.0469 Q159.0313,689.7188 159.6406,688.5781 Q160.2656,687.4219 161.3594,686.8125 Q162.4531,686.1875 163.6875,686.1875 Q164.4219,686.1875 165.0625,686.3594 Q165.7188,686.5156 166.2656,686.875 Z " fill="#000000"/><text fill="#000000" font-family="sans-serif" font-size="14" lengthAdjust="spacing" textLength="69.2686" x="177.5" y="696.7285">GameLoop</text></g><!--class GameView--><g class="entity" data-qualified-name="GameView" data-source-line="13" id="ent0011"><rect fill="#F1F1F1" height="32" rx="2.5" ry="2.5" style="stroke:#181818;stroke-width:0.5;" width="100.4688" x="253" y="613"/><ellipse cx="268" cy="629" fill="#ADD1B2" rx="11" ry="11" style="stroke:#181818;stroke-width:1;"/><path d="M270.7656,624.875 Q270.9219,624.6563 271.1094,624.5469 Q271.2969,624.4375 271.5156,624.4375 Q271.8906,624.4375 272.125,624.7031 Q272.3594,624.9531 272.3594,625.5625 L272.3594,627.0156 Q272.3594,627.625 272.125,627.8906 Q271.8906,628.1563 271.5156,628.1563 Q271.1719,628.1563 270.9688,627.9531 Q270.7656,627.7656 270.6563,627.25 Q270.6094,626.8906 270.4219,626.7031 Q270.0938,626.3281 269.4844,626.1094 Q268.875,625.8906 268.25,625.8906 Q267.4844,625.8906 266.8438,626.2188 Q266.2188,626.5469 265.7188,627.2969 Q265.2344,628.0469 265.2344,629.0781 L265.2344,630.1719 Q265.2344,631.4063 266.125,632.2344 Q267.0156,633.0469 268.6094,633.0469 Q269.5469,633.0469 270.2031,632.7969 Q270.5938,632.6406 271.0156,632.2031 Q271.2813,631.9375 271.4219,631.8594 Q271.5781,631.7813 271.7813,631.7813 Q272.1094,631.7813 272.3594,632.0469 Q272.625,632.2969 272.625,632.6406 Q272.625,632.9844 272.2813,633.3906 Q271.7813,633.9688 270.9844,634.2969 Q269.9063,634.75 268.6094,634.75 Q267.0938,634.75 265.8906,634.125 Q264.9063,633.625 264.2188,632.5625 Q263.5313,631.4844 263.5313,630.2031 L263.5313,629.0469 Q263.5313,627.7188 264.1406,626.5781 Q264.7656,625.4219 265.8594,624.8125 Q266.9531,624.1875 268.1875,624.1875 Q268.9219,624.1875 269.5625,624.3594 Q270.2188,624.5156 270.7656,624.875 Z " fill="#000000"/><text fill="#000000" font-family="sans-serif" font-size="14" lengthAdjust="spacing" textLength="68.4688" x="282" y="634.7285">GameView</text></g><!--class Grid--><g class="entity" data-qualified-name="Grid" data-source-line="14" id="ent0012"><rect fill="#F1F1F1" height="32" rx="2.5" ry="2.5" style="stroke:#181818;stroke-width:0.5;" width="58.4482" x="222" y="768"/><ellipse cx="237" cy="784" fill="#ADD1B2" rx="11" ry="11" style="stroke:#181818;stroke-width:1;"/><path d="M239.7656,779.875 Q239.9219,779.6563 240.1094,779.5469 Q240.2969,779.4375 240.5156,779.4375 Q240.8906,779.4375 241.125,779.7031 Q241.3594,779.9531 241.3594,780.5625 L241.3594,782.0156 Q241.3594,782.625 241.125,782.8906 Q240.8906,783.1563 240.5156,783.1563 Q240.1719,783.1563 239.9688,782.9531 Q239.7656,782.7656 239.6563,782.25 Q239.6094,781.8906 239.4219,781.7031 Q239.0938,781.3281 238.4844,781.1094 Q237.875,780.8906 237.25,780.8906 Q236.4844,780.8906 235.8438,781.2188 Q235.2188,781.5469 234.7188,782.2969 Q234.2344,783.0469 234.2344,784.0781 L234.2344,785.1719 Q234.2344,786.4063 235.125,787.2344 Q236.0156,788.0469 237.6094,788.0469 Q238.5469,788.0469 239.2031,787.7969 Q239.5938,787.6406 240.0156,787.2031 Q240.2813,786.9375 240.4219,786.8594 Q240.5781,786.7813 240.7813,786.7813 Q241.1094,786.7813 241.3594,787.0469 Q241.625,787.2969 241.625,787.6406 Q241.625,787.9844 241.2813,788.3906 Q240.7813,788.9688 239.9844,789.2969 Q238.9063,789.75 237.6094,789.75 Q236.0938,789.75 234.8906,789.125 Q233.9063,788.625 233.2188,787.5625 Q232.5313,786.4844 232.5313,785.2031 L232.5313,784.0469 Q232.5313,782.7188 233.1406,781.5781 Q233.7656,780.4219 234.8594,779.8125 Q235.9531,779.1875 237.1875,779.1875 Q237.9219,779.1875 238.5625,779.3594 Q239.2188,779.5156 239.7656,779.875 Z " fill="#000000"/><text fill="#000000" font-family="sans-serif" font-size="14" lengthAdjust="spacing" textLength="26.4482" x="251" y="789.7285">Grid</text></g><!--class SaveGameManager--><g class="entity" data-qualified-name="SaveGameManager" data-source-line="15" id="ent0013"><rect fill="#F1F1F1" height="32" rx="2.5" ry="2.5" style="stroke:#181818;stroke-width:0.5;" width="157.2891" x="354.5" y="551"/><ellipse cx="369.5" cy="567" fill="#ADD1B2" rx="11" ry="11" style="stroke:#181818;stroke-width:1;"/><path d="M372.2656,562.875 Q372.4219,562.6563 372.6094,562.5469 Q372.7969,562.4375 373.0156,562.4375 Q373.3906,562.4375 373.625,562.7031 Q373.8594,562.9531 373.8594,563.5625 L373.8594,565.0156 Q373.8594,565.625 373.625,565.8906 Q373.3906,566.1563 373.0156,566.1563 Q372.6719,566.1563 372.4688,565.9531 Q372.2656,565.7656 372.1563,565.25 Q372.1094,564.8906 371.9219,564.7031 Q371.5938,564.3281 370.9844,564.1094 Q370.375,563.8906 369.75,563.8906 Q368.9844,563.8906 368.3438,564.2188 Q367.7188,564.5469 367.2188,565.2969 Q366.7344,566.0469 366.7344,567.0781 L366.7344,568.1719 Q366.7344,569.4063 367.625,570.2344 Q368.5156,571.0469 370.1094,571.0469 Q371.0469,571.0469 371.7031,570.7969 Q372.0938,570.6406 372.5156,570.2031 Q372.7813,569.9375 372.9219,569.8594 Q373.0781,569.7813 373.2813,569.7813 Q373.6094,569.7813 373.8594,570.0469 Q374.125,570.2969 374.125,570.6406 Q374.125,570.9844 373.7813,571.3906 Q373.2813,571.9688 372.4844,572.2969 Q371.4063,572.75 370.1094,572.75 Q368.5938,572.75 367.3906,572.125 Q366.4063,571.625 365.7188,570.5625 Q365.0313,569.4844 365.0313,568.2031 L365.0313,567.0469 Q365.0313,565.7188 365.6406,564.5781 Q366.2656,563.4219 367.3594,562.8125 Q368.4531,562.1875 369.6875,562.1875 Q370.4219,562.1875 371.0625,562.3594 Q371.7188,562.5156 372.2656,562.875 Z " fill="#000000"/><text fill="#000000" font-family="sans-serif" font-size="14" lengthAdjust="spacing" textLength="125.2891" x="383.5" y="572.7285">SaveGameManager</text></g><!--link MainActivity to PlayRandomListener--><g class="link" data-entity-1="ent0002" data-entity-2="ent0003" data-link-type="dependency" data-source-line="17" id="lnk14"><path codeLine="17" d="M242.77,39.19 C223.36,53.27 195.34,75.66 176,100 C160.63,119.34 150.8228,139.9512 144.1128,156.2612" fill="none" id="MainActivity-to-PlayRandomListener" style="stroke:#181818;stroke-width:1;stroke-dasharray:7,7;"/><polygon fill="#181818" points="141.83,161.81,148.9534,155.0087,143.7323,157.186,141.555,151.965,141.83,161.81" style="stroke:#181818;stroke-width:1;"/></g><!--link MainActivity to PlaySeedListener--><g class="link" data-entity-1="ent0002" data-entity-2="ent0004" data-link-type="dependency" data-source-line="18" id="lnk15"><path codeLine="18" d="M265,39.03 C265,55.89 265,77.08 265,93.95" fill="none" id="MainActivity-to-PlaySeedListener" style="stroke:#181818;stroke-width:1;stroke-dasharray:7,7;"/><polygon fill="#181818" points="265,99.95,269,90.95,265,94.95,261,90.95,265,99.95" style="stroke:#181818;stroke-width:1;"/></g><!--link MainActivity to ResumeGameListener--><g class="link" data-entity-1="ent0002" data-entity-2="ent0005" data-link-type="dependency" data-source-line="19" id="lnk16"><path codeLine="19" d="M289.8,39.03 C310.02,52.54 337.79,74.19 354,100 C392.68,161.58 402.8389,244.7685 405.6089,279.9385" fill="none" id="MainActivity-to-ResumeGameListener" style="stroke:#181818;stroke-width:1;stroke-dasharray:7,7;"/><polygon fill="#181818" points="406.08,285.92,409.361,276.6337,405.6874,280.9354,401.3857,277.2619,406.08,285.92" style="stroke:#181818;stroke-width:1;"/></g><!--link PlayRandomListener to GameActivity--><g class="link" data-entity-1="ent0003" data-entity-2="ent0008" data-link-type="dependency" data-source-line="21" id="lnk17"><path codeLine="21" d="M135.47,194.12 C134.88,229 137.04,316.96 170,380 C187.33,413.13 215.9446,438.0041 238.1646,454.4241" fill="none" id="PlayRandomListener-to-GameActivity" style="stroke:#181818;stroke-width:1;stroke-dasharray:7,7;"/><polygon fill="#181818" points="242.99,457.99,238.1291,449.4243,238.9688,455.0185,233.3746,455.8582,242.99,457.99" style="stroke:#181818;stroke-width:1;"/><text fill="#000000" font-family="sans-serif" font-size="13" lengthAdjust="spacing" textLength="85.998" x="149" y="307.4951">partie al&#233;atoire</text></g><!--link PlaySeedListener to SeedActivity--><g class="link" data-entity-1="ent0004" data-entity-2="ent0006" data-link-type="dependency" data-source-line="22" id="lnk18"><path codeLine="22" d="M265,132.45 C265,155.92 265,194.28 265,217.67" fill="none" id="PlaySeedListener-to-SeedActivity" style="stroke:#181818;stroke-width:1;stroke-dasharray:7,7;"/><polygon fill="#181818" points="265,223.67,269,214.67,265,218.67,261,214.67,265,223.67" style="stroke:#181818;stroke-width:1;"/></g><!--link SeedActivity to SeedButtonListener--><g class="link" data-entity-1="ent0006" data-entity-2="ent0007" data-link-type="dependency" data-source-line="23" id="lnk19"><path codeLine="23" d="M265,256.45 C265,279.92 265,318.28 265,341.67" fill="none" id="SeedActivity-to-SeedButtonListener" style="stroke:#181818;stroke-width:1;stroke-dasharray:7,7;"/><polygon fill="#181818" points="265,347.67,269,338.67,265,342.67,261,338.67,265,347.67" style="stroke:#181818;stroke-width:1;"/></g><!--link SeedButtonListener to GameActivity--><g class="link" data-entity-1="ent0007" data-entity-2="ent0008" data-link-type="dependency" data-source-line="24" id="lnk20"><path codeLine="24" d="M265,380.02 C265,400.53 265,431.13 265,451.76" fill="none" id="SeedButtonListener-to-GameActivity" style="stroke:#181818;stroke-width:1;stroke-dasharray:7,7;"/><polygon fill="#181818" points="265,457.76,269,448.76,265,452.76,261,448.76,265,457.76" style="stroke:#181818;stroke-width:1;"/><text fill="#000000" font-family="sans-serif" font-size="13" lengthAdjust="spacing" textLength="78.7808" x="266" y="424.4951">partie seed&#233;e</text></g><!--link ResumeGameListener to GameActivity--><g class="link" data-entity-1="ent0005" data-entity-2="ent0008" data-link-type="dependency" data-source-line="25" id="lnk21"><path codeLine="25" d="M403.93,318.32 C398.11,343.91 383.23,395.74 353,428 C340.91,440.9 329.7654,448.2024 314.2354,455.3124" fill="none" id="ResumeGameListener-to-GameActivity" style="stroke:#181818;stroke-width:1;stroke-dasharray:7,7;"/><polygon fill="#181818" points="308.78,457.81,318.6282,457.7005,313.3262,455.7286,315.2981,450.4266,308.78,457.81" style="stroke:#181818;stroke-width:1;"/><text fill="#000000" font-family="sans-serif" font-size="13" lengthAdjust="spacing" textLength="39.7363" x="396" y="369.4951">reprise</text></g><!--link GameActivity to GameView--><g class="link" data-entity-1="ent0008" data-entity-2="ent0011" data-link-type="dependency" data-source-line="27" id="lnk22"><path codeLine="27" d="M268.78,490.23 C276.07,519.56 290.5141,577.7268 297.7841,607.0068" fill="none" id="GameActivity-to-GameView" style="stroke:#181818;stroke-width:1;stroke-dasharray:7,7;"/><polygon fill="#181818" points="299.23,612.83,300.9433,603.1313,298.0251,607.9773,293.1791,605.0591,299.23,612.83" style="stroke:#181818;stroke-width:1;"/></g><!--link GameActivity to GameTouchController--><g class="link" data-entity-1="ent0008" data-entity-2="ent0009" data-link-type="dependency" data-source-line="28" id="lnk23"><path codeLine="28" d="M236.43,490.03 C204.38,506.89 157.9901,531.2867 125.9201,548.1567" fill="none" id="GameActivity-to-GameTouchController" style="stroke:#181818;stroke-width:1;stroke-dasharray:7,7;"/><polygon fill="#181818" points="120.61,550.95,130.4374,550.3001,125.0351,548.6222,126.713,543.2199,120.61,550.95" style="stroke:#181818;stroke-width:1;"/></g><!--link GameActivity to GameLoop--><g class="link" data-entity-1="ent0008" data-entity-2="ent0010" data-link-type="dependency" data-source-line="29" id="lnk24"><path codeLine="29" d="M260.36,490.12 C248.24,529.59 217.5103,629.704 205.4003,669.164" fill="none" id="GameActivity-to-GameLoop" style="stroke:#181818;stroke-width:1;stroke-dasharray:7,7;"/><polygon fill="#181818" points="203.64,674.9,210.1045,667.4696,205.1069,670.12,202.4565,665.1225,203.64,674.9" style="stroke:#181818;stroke-width:1;"/></g><!--link GameActivity to SaveGameManager--><g class="link" data-entity-1="ent0008" data-entity-2="ent0013" data-link-type="dependency" data-source-line="30" id="lnk25"><path codeLine="30" d="M292.74,490.03 C323.87,506.89 368.794,531.2227 399.944,548.0927" fill="none" id="GameActivity-to-SaveGameManager" style="stroke:#181818;stroke-width:1;stroke-dasharray:7,7;"/><polygon fill="#181818" points="405.22,550.95,399.2109,543.1467,400.8234,548.5689,395.4012,550.1813,405.22,550.95" style="stroke:#181818;stroke-width:1;"/></g><!--link GameLoop to Grid--><g class="link" data-entity-1="ent0010" data-entity-2="ent0012" data-link-type="dependency" data-source-line="31" id="lnk26"><path codeLine="31" d="M207.59,707.03 C217.22,723.89 229.7832,745.8705 239.4232,762.7405" fill="none" id="GameLoop-to-Grid" style="stroke:#181818;stroke-width:1;stroke-dasharray:7,7;"/><polygon fill="#181818" points="242.4,767.95,241.4077,758.1513,239.9193,763.6088,234.4618,762.1204,242.4,767.95" style="stroke:#181818;stroke-width:1;"/></g><!--link GameTouchController to GameLoop--><g class="link" data-entity-1="ent0009" data-entity-2="ent0010" data-link-type="dependency" data-source-line="32" id="lnk27"><path codeLine="32" d="M105.55,583.45 C126.13,606.92 161.0831,646.7697 181.6031,670.1597" fill="none" id="GameTouchController-to-GameLoop" style="stroke:#181818;stroke-width:1;stroke-dasharray:7,7;"/><polygon fill="#181818" points="185.56,674.67,182.6315,665.2666,182.2626,670.9114,176.6178,670.5424,185.56,674.67" style="stroke:#181818;stroke-width:1;"/></g><!--link GameView to Grid--><g class="link" data-entity-1="ent0011" data-entity-2="ent0012" data-link-type="dependency" data-source-line="33" id="lnk28"><path codeLine="33" d="M297.82,645.23 C287.86,674.56 268.0405,732.8691 258.0905,762.1491" fill="none" id="GameView-to-Grid" style="stroke:#181818;stroke-width:1;stroke-dasharray:7,7;"/><polygon fill="#181818" points="256.16,767.83,262.8431,760.5956,257.7688,763.0959,255.2685,758.0216,256.16,767.83" style="stroke:#181818;stroke-width:1;"/></g><?plantuml-src VP5DJWCn38NtEKLEKB5cWLHO8AHMGYrYxyvOr28_8yTJL6xKS_HYJ083cIHYwUVlnR5VU2St08FLdO4GrY9CXr7mgVDkJv-eRzIHUjGMxG4vA9KmlGLowqxeH7B-aPuDd7VWUcyt50GTSjRO8_Q5lCCmMdm4YqKZiiNRKReVHRmhs6Wls2Yz-B4xFdWdx8rPm1llXwny9VoOIwP-7WUdzB4jE7YRx2fVLwzMTwrbcynYxufed43LBoSqNrJVwYao8THWhXSGJuogd9PSYrFcnM-tk6ej_JCzJF3rWgfUesLY79W2AhNGPp05qUoKMJQX56lLANESoMzRpBine7up_ktFyWK0?></g></svg>