<?plantuml 1.2026.2?><svg xmlns="http://www.w3.org/2000/svg" xmlns:xlink="http://www.w3.org/1999/xlink" contentStyleType="text/css" data-diagram-type="ACTIVITY" height="949px" preserveAspectRatio="none" style="width:253px;height:949px;background:#FFFFFF;" version="1.1" viewBox="0 0 253 949" width="253px" zoomAndPan="magnify"><defs/><g><ellipse cx="114.2595" cy="20" fill="#222222" rx="10" ry="10" style="stroke:#222222;stroke-width:1;"/><rect fill="#F1F1F1" height="35.0938" rx="12.5" ry="12.5" style="stroke:#181818;stroke-width:0.5;" width="154.0449" x="37.2371" y="50"/><text fill="#000000" font-family="sans-serif" font-size="12" lengthAdjust="spacing" textLength="134.0449" x="47.2371" y="72.457">Grid.hasPossibleMoves()</text><rect fill="#F1F1F1" height="35.0938" rx="12.5" ry="12.5" style="stroke:#181818;stroke-width:0.5;" width="161.3867" x="33.5662" y="105.0938"/><text fill="#000000" font-family="sans-serif" font-size="12" lengthAdjust="spacing" textLength="141.3867" x="43.5662" y="127.5508">Cr&#233;er un GridMoveAnalyst</text><rect fill="#F1F1F1" height="35.0938" rx="12.5" ry="12.5" style="stroke:#181818;stroke-width:0.5;" width="96.0313" x="66.2439" y="318.6143"/><text fill="#000000" font-family="sans-serif" font-size="12" lengthAdjust="spacing" textLength="76.0313" x="76.2439" y="341.0713">Retourner vrai</text><ellipse cx="114.2595" cy="391.7432" fill="none" rx="11" ry="11" style="stroke:#222222;stroke-width:1;"/><ellipse cx="114.2595" cy="391.7432" fill="#222222" rx="6" ry="6" style="stroke:#222222;stroke-width:1;"/><polygon fill="#F1F1F1" points="58,266.0244,170.519,266.0244,182.519,279.8604,170.519,293.6963,58,293.6963,46,279.8604,58,266.0244" style="stroke:#181818;stroke-width:0.5;"/><text fill="#000000" font-family="sans-serif" font-size="11" lengthAdjust="spacing" textLength="14.6792" x="118.2595" y="305.1152">oui</text><text fill="#000000" font-family="sans-serif" font-size="11" lengthAdjust="spacing" textLength="112.519" x="58" y="277.4434">Un d&#233;calage horizontal</text><text fill="#000000" font-family="sans-serif" font-size="11" lengthAdjust="spacing" textLength="102.7329" x="58" y="291.2793">cr&#233;e un alignement ?</text><polygon fill="#F1F1F1" points="68.0815,217.1064,160.4375,217.1064,172.4375,229.1064,160.4375,241.1064,68.0815,241.1064,56.0815,229.1064,68.0815,217.1064" style="stroke:#181818;stroke-width:0.5;"/><text fill="#000000" font-family="sans-serif" font-size="11" lengthAdjust="spacing" textLength="14.6792" x="118.2595" y="252.5254">oui</text><text fill="#000000" font-family="sans-serif" font-size="11" lengthAdjust="spacing" textLength="92.356" x="68.0815" y="233.6074">Ligne d&#233;pla&#231;able ?</text><polygon fill="#F1F1F1" points="114.2595,444.7432,126.2595,456.7432,114.2595,468.7432,102.2595,456.7432,114.2595,444.7432" style="stroke:#181818;stroke-width:0.5;"/><polygon fill="#F1F1F1" points="76.345,160.1875,152.1741,160.1875,164.1741,172.1875,152.1741,184.1875,76.345,184.1875,64.345,172.1875,76.345,160.1875" style="stroke:#181818;stroke-width:0.5;"/><text fill="#000000" font-family="sans-serif" font-size="11" lengthAdjust="spacing" textLength="14.6792" x="118.2595" y="195.6064">oui</text><text fill="#000000" font-family="sans-serif" font-size="11" lengthAdjust="spacing" textLength="75.8291" x="76.345" y="176.6885">Ligne &#224; tester ?</text><text fill="#000000" font-family="sans-serif" font-size="11" lengthAdjust="spacing" textLength="18.353" x="45.9919" y="169.7705">non</text><rect fill="#F1F1F1" height="35.0938" rx="12.5" ry="12.5" style="stroke:#181818;stroke-width:0.5;" width="96.0313" x="66.2439" y="669.1699"/><text fill="#000000" font-family="sans-serif" font-size="12" lengthAdjust="spacing" textLength="76.0313" x="76.2439" y="691.627">Retourner vrai</text><ellipse cx="114.2595" cy="742.2988" fill="none" rx="11" ry="11" style="stroke:#222222;stroke-width:1;"/><ellipse cx="114.2595" cy="742.2988" fill="#222222" rx="6" ry="6" style="stroke:#222222;stroke-width:1;"/><polygon fill="#F1F1F1" points="62.8931,616.5801,165.626,616.5801,177.626,630.416,165.626,644.252,62.8931,644.252,50.8931,630.416,62.8931,616.5801" style="stroke:#181818;stroke-width:0.5;"/><text fill="#000000" font-family="sans-serif" font-size="11" lengthAdjust="spacing" textLength="14.6792" x="118.2595" y="655.6709">oui</text><text fill="#000000" font-family="sans-serif" font-size="11" lengthAdjust="spacing" textLength="99.666" x="62.8931" y="627.999">Un d&#233;calage vertical</text><text fill="#000000" font-family="sans-serif" font-size="11" lengthAdjust="spacing" textLength="102.7329" x="62.8931" y="641.835">cr&#233;e un alignement ?</text><polygon fill="#F1F1F1" points="61.0508,567.6621,167.4683,567.6621,179.4683,579.6621,167.4683,591.6621,61.0508,591.6621,49.0508,579.6621,61.0508,567.6621" style="stroke:#181818;stroke-width:0.5;"/><text fill="#000000" font-family="sans-serif" font-size="11" lengthAdjust="spacing" textLength="14.6792" x="118.2595" y="603.0811">oui</text><text fill="#000000" font-family="sans-serif" font-size="11" lengthAdjust="spacing" textLength="106.4175" x="61.0508" y="584.1631">Colonne d&#233;pla&#231;able ?</text><polygon fill="#F1F1F1" points="114.2595,795.2988,126.2595,807.2988,114.2595,819.2988,102.2595,807.2988,114.2595,795.2988" style="stroke:#181818;stroke-width:0.5;"/><polygon fill="#F1F1F1" points="69.3142,510.7432,159.2048,510.7432,171.2048,522.7432,159.2048,534.7432,69.3142,534.7432,57.3142,522.7432,69.3142,510.7432" style="stroke:#181818;stroke-width:0.5;"/><text fill="#000000" font-family="sans-serif" font-size="11" lengthAdjust="spacing" textLength="14.6792" x="118.2595" y="546.1621">oui</text><text fill="#000000" font-family="sans-serif" font-size="11" lengthAdjust="spacing" textLength="89.8906" x="69.3142" y="527.2441">Colonne &#224; tester ?</text><text fill="#000000" font-family="sans-serif" font-size="11" lengthAdjust="spacing" textLength="18.353" x="38.9612" y="520.3262">non</text><rect fill="#F1F1F1" height="35.0938" rx="12.5" ry="12.5" style="stroke:#181818;stroke-width:0.5;" width="99.377" x="64.571" y="861.2988"/><text fill="#000000" font-family="sans-serif" font-size="12" lengthAdjust="spacing" textLength="79.377" x="74.571" y="883.7559">Retourner faux</text><ellipse cx="114.2595" cy="927.3926" fill="none" rx="11" ry="11" style="stroke:#222222;stroke-width:1;"/><ellipse cx="114.2595" cy="927.3926" fill="#222222" rx="6" ry="6" style="stroke:#222222;stroke-width:1;"/><line style="stroke:#181818;stroke-width:1;" x1="114.2595" x2="114.2595" y1="30" y2="50"/><polygon fill="#181818" points="110.2595,40,114.2595,50,118.2595,40,114.2595,44" style="stroke:#181818;stroke-width:1;"/><line style="stroke:#181818;stroke-width:1;" x1="114.2595" x2="114.2595" y1="85.0938" y2="105.0938"/><polygon fill="#181818" points="110.2595,95.0938,114.2595,105.0938,118.2595,95.0938,114.2595,99.0938" style="stroke:#181818;stroke-width:1;"/><line style="stroke:#181818;stroke-width:1;" x1="114.2595" x2="114.2595" y1="353.708" y2="380.7432"/><polygon fill="#181818" points="110.2595,370.7432,114.2595,380.7432,118.2595,370.7432,114.2595,374.7432" style="stroke:#181818;stroke-width:1;"/><line style="stroke:#181818;stroke-width:1;" x1="114.2595" x2="114.2595" y1="293.6963" y2="318.6143"/><polygon fill="#181818" points="110.2595,308.6143,114.2595,318.6143,118.2595,308.6143,114.2595,312.6143" style="stroke:#181818;stroke-width:1;"/><line style="stroke:#181818;stroke-width:1;" x1="182.519" x2="194.519" y1="279.8604" y2="279.8604"/><polygon fill="#181818" points="190.519,350.7432,194.519,360.7432,198.519,350.7432,194.519,354.7432" style="stroke:#181818;stroke-width:1;"/><line style="stroke:#181818;stroke-width:1;" x1="194.519" x2="194.519" y1="279.8604" y2="424.7432"/><line style="stroke:#181818;stroke-width:1;" x1="194.519" x2="114.2595" y1="424.7432" y2="424.7432"/><line style="stroke:#181818;stroke-width:1;" x1="114.2595" x2="114.2595" y1="424.7432" y2="444.7432"/><polygon fill="#181818" points="110.2595,434.7432,114.2595,444.7432,118.2595,434.7432,114.2595,438.7432" style="stroke:#181818;stroke-width:1;"/><line style="stroke:#181818;stroke-width:1;" x1="114.2595" x2="114.2595" y1="241.1064" y2="266.0244"/><polygon fill="#181818" points="110.2595,256.0244,114.2595,266.0244,118.2595,256.0244,114.2595,260.0244" style="stroke:#181818;stroke-width:1;"/><line style="stroke:#181818;stroke-width:1;" x1="172.4375" x2="204.519" y1="229.1064" y2="229.1064"/><polygon fill="#181818" points="200.519,343.8252,204.519,353.8252,208.519,343.8252,204.519,347.8252" style="stroke:#181818;stroke-width:1;"/><line style="stroke:#181818;stroke-width:1;" x1="204.519" x2="204.519" y1="229.1064" y2="456.7432"/><line style="stroke:#181818;stroke-width:1;" x1="204.519" x2="126.2595" y1="456.7432" y2="456.7432"/><polygon fill="#181818" points="136.2595,452.7432,126.2595,456.7432,136.2595,460.7432,132.2595,456.7432" style="stroke:#181818;stroke-width:1;"/><line style="stroke:#181818;stroke-width:1;" x1="114.2595" x2="114.2595" y1="184.1875" y2="217.1064"/><polygon fill="#181818" points="110.2595,207.1064,114.2595,217.1064,118.2595,207.1064,114.2595,211.1064" style="stroke:#181818;stroke-width:1;"/><line style="stroke:#181818;stroke-width:1;" x1="114.2595" x2="114.2595" y1="468.7432" y2="478.7432"/><line style="stroke:#181818;stroke-width:1;" x1="114.2595" x2="227.4121" y1="478.7432" y2="478.7432"/><polygon fill="#181818" points="223.4121,344.9072,227.4121,334.9072,231.4121,344.9072,227.4121,340.9072" style="stroke:#181818;stroke-width:1;"/><line style="stroke:#181818;stroke-width:1;" x1="227.4121" x2="227.4121" y1="172.1875" y2="478.7432"/><line style="stroke:#181818;stroke-width:1;" x1="227.4121" x2="164.1741" y1="172.1875" y2="172.1875"/><polygon fill="#181818" points="174.1741,168.1875,164.1741,172.1875,174.1741,176.1875,170.1741,172.1875" style="stroke:#181818;stroke-width:1;"/><line style="stroke:#181818;stroke-width:1;" x1="64.345" x2="24" y1="172.1875" y2="172.1875"/><polygon fill="#181818" points="20,330.9072,24,340.9072,28,330.9072,24,334.9072" style="stroke:#181818;stroke-width:1;"/><line style="stroke:#181818;stroke-width:1;" x1="24" x2="24" y1="172.1875" y2="490.7432"/><line style="stroke:#181818;stroke-width:1;" x1="24" x2="114.2595" y1="490.7432" y2="490.7432"/><line style="stroke:#181818;stroke-width:1;" x1="114.2595" x2="114.2595" y1="490.7432" y2="510.7432"/><polygon fill="#181818" points="110.2595,500.7432,114.2595,510.7432,118.2595,500.7432,114.2595,504.7432" style="stroke:#181818;stroke-width:1;"/><line style="stroke:#181818;stroke-width:1;" x1="114.2595" x2="114.2595" y1="140.1875" y2="160.1875"/><polygon fill="#181818" points="110.2595,150.1875,114.2595,160.1875,118.2595,150.1875,114.2595,154.1875" style="stroke:#181818;stroke-width:1;"/><line style="stroke:#181818;stroke-width:1;" x1="114.2595" x2="114.2595" y1="704.2637" y2="731.2988"/><polygon fill="#181818" points="110.2595,721.2988,114.2595,731.2988,118.2595,721.2988,114.2595,725.2988" style="stroke:#181818;stroke-width:1;"/><line style="stroke:#181818;stroke-width:1;" x1="114.2595" x2="114.2595" y1="644.252" y2="669.1699"/><polygon fill="#181818" points="110.2595,659.1699,114.2595,669.1699,118.2595,659.1699,114.2595,663.1699" style="stroke:#181818;stroke-width:1;"/><line style="stroke:#181818;stroke-width:1;" x1="177.626" x2="189.626" y1="630.416" y2="630.416"/><polygon fill="#181818" points="185.626,701.2988,189.626,711.2988,193.626,701.2988,189.626,705.2988" style="stroke:#181818;stroke-width:1;"/><line style="stroke:#181818;stroke-width:1;" x1="189.626" x2="189.626" y1="630.416" y2="775.2988"/><line style="stroke:#181818;stroke-width:1;" x1="189.626" x2="114.2595" y1="775.2988" y2="775.2988"/><line style="stroke:#181818;stroke-width:1;" x1="114.2595" x2="114.2595" y1="775.2988" y2="795.2988"/><polygon fill="#181818" points="110.2595,785.2988,114.2595,795.2988,118.2595,785.2988,114.2595,789.2988" style="stroke:#181818;stroke-width:1;"/><line style="stroke:#181818;stroke-width:1;" x1="114.2595" x2="114.2595" y1="591.6621" y2="616.5801"/><polygon fill="#181818" points="110.2595,606.5801,114.2595,616.5801,118.2595,606.5801,114.2595,610.5801" style="stroke:#181818;stroke-width:1;"/><line style="stroke:#181818;stroke-width:1;" x1="179.4683" x2="199.626" y1="579.6621" y2="579.6621"/><polygon fill="#181818" points="195.626,694.3809,199.626,704.3809,203.626,694.3809,199.626,698.3809" style="stroke:#181818;stroke-width:1;"/><line style="stroke:#181818;stroke-width:1;" x1="199.626" x2="199.626" y1="579.6621" y2="807.2988"/><line style="stroke:#181818;stroke-width:1;" x1="199.626" x2="126.2595" y1="807.2988" y2="807.2988"/><polygon fill="#181818" points="136.2595,803.2988,126.2595,807.2988,136.2595,811.2988,132.2595,807.2988" style="stroke:#181818;stroke-width:1;"/><line style="stroke:#181818;stroke-width:1;" x1="114.2595" x2="114.2595" y1="534.7432" y2="567.6621"/><polygon fill="#181818" points="110.2595,557.6621,114.2595,567.6621,118.2595,557.6621,114.2595,561.6621" style="stroke:#181818;stroke-width:1;"/><line style="stroke:#181818;stroke-width:1;" x1="114.2595" x2="114.2595" y1="819.2988" y2="829.2988"/><line style="stroke:#181818;stroke-width:1;" x1="114.2595" x2="222.519" y1="829.2988" y2="829.2988"/><polygon fill="#181818" points="218.519,695.4629,222.519,685.4629,226.519,695.4629,222.519,691.4629" style="stroke:#181818;stroke-width:1;"/><line style="stroke:#181818;stroke-width:1;" x1="222.519" x2="222.519" y1="522.7432" y2="829.2988"/><line style="stroke:#181818;stroke-width:1;" x1="222.519" x2="171.2048" y1="522.7432" y2="522.7432"/><polygon fill="#181818" points="181.2048,518.7432,171.2048,522.7432,181.2048,526.7432,177.2048,522.7432" style="stroke:#181818;stroke-width:1;"/><line style="stroke:#181818;stroke-width:1;" x1="57.3142" x2="28.8931" y1="522.7432" y2="522.7432"/><polygon fill="#181818" points="24.8931,681.4629,28.8931,691.4629,32.8931,681.4629,28.8931,685.4629" style="stroke:#181818;stroke-width:1;"/><line style="stroke:#181818;stroke-width:1;" x1="28.8931" x2="28.8931" y1="522.7432" y2="841.2988"/><line style="stroke:#181818;stroke-width:1;" x1="28.8931" x2="114.2595" y1="841.2988" y2="841.2988"/><line style="stroke:#181818;stroke-width:1;" x1="114.2595" x2="114.2595" y1="841.2988" y2="861.2988"/><polygon fill="#181818" points="110.2595,851.2988,114.2595,861.2988,118.2595,851.2988,114.2595,855.2988" style="stroke:#181818;stroke-width:1;"/><line style="stroke:#181818;stroke-width:1;" x1="114.2595" x2="114.2595" y1="896.3926" y2="916.3926"/><polygon fill="#181818" points="110.2595,906.3926,114.2595,916.3926,118.2595,906.3926,114.2595,910.3926" style="stroke:#181818;stroke-width:1;"/><?plantuml-src lO-nJiD038RtUmgFoT87I8OATUW24a9YOp69qrWwxEhif2rFmuRw77anSj1K34Y8XSLdMPzz_sUEoKEejedRLOzshsRy7EbEHxAYh4ErITEP4Wm2cSdp6y5uCgz3EFGS2OfRtWd1z0PEvZExBe4D2Xsu303SBKGxdVSHftUSFyYGzoHNx0jyb4mr6757q6lYLnN7-2HDZf5JOCotNaZyXnC0rGEv3adc66D2hYzZSzr_jYGjTs5vvtfn49NoAhJHgFABqiByLMgavDpydzAtxGw7OntotWS0?></g></svg>