<?plantuml 1.2026.2?><svg xmlns="http://www.w3.org/2000/svg" xmlns:xlink="http://www.w3.org/1999/xlink" contentStyleType="text/css" data-diagram-type="ACTIVITY" height="1171px" preserveAspectRatio="none" style="width:468px;height:1171px;background:#FFFFFF;" version="1.1" viewBox="0 0 468 1171" width="468px" zoomAndPan="magnify"><defs/><g><ellipse cx="279.9674" cy="20" fill="#222222" rx="10" ry="10" style="stroke:#222222;stroke-width:1;"/><rect fill="#F1F1F1" height="50.1875" rx="12.5" ry="12.5" style="stroke:#181818;stroke-width:0.5;" width="114.7051" x="222.6149" y="50"/><text fill="#000000" font-family="sans-serif" font-size="12" lengthAdjust="spacing" textLength="94.7051" x="232.6149" y="72.457">Glissement valide</text><text fill="#000000" font-family="sans-serif" font-size="12" lengthAdjust="spacing" textLength="58.0195" x="232.6149" y="87.5508">sur la grille</text><rect fill="#F1F1F1" height="35.0938" rx="12.5" ry="12.5" style="stroke:#181818;stroke-width:0.5;" width="167.4043" x="196.2653" y="120.1875"/><text fill="#000000" font-family="sans-serif" font-size="12" lengthAdjust="spacing" textLength="147.4043" x="206.2653" y="142.6445">GameLoop.executeTurn(...)</text><polygon fill="#F1F1F1" points="229.5221,175.2813,330.4127,175.2813,342.4127,187.2813,330.4127,199.2813,229.5221,199.2813,217.5221,187.2813,229.5221,175.2813" style="stroke:#181818;stroke-width:0.5;"/><text fill="#000000" font-family="sans-serif" font-size="11" lengthAdjust="spacing" textLength="100.8906" x="229.5221" y="191.7822">Tour d&#233;j&#224; en cours ?</text><text fill="#000000" font-family="sans-serif" font-size="11" lengthAdjust="spacing" textLength="14.6792" x="342.4127" y="184.8643">oui</text><ellipse cx="379.0919" cy="187.2813" fill="none" rx="11" ry="11" style="stroke:#222222;stroke-width:1;"/><ellipse cx="379.0919" cy="187.2813" fill="#222222" rx="6" ry="6" style="stroke:#222222;stroke-width:1;"/><rect fill="#F1F1F1" height="50.1875" rx="12.5" ry="12.5" style="stroke:#181818;stroke-width:0.5;" width="135.418" x="212.2584" y="219.2813"/><text fill="#000000" font-family="sans-serif" font-size="12" lengthAdjust="spacing" textLength="115.418" x="222.2584" y="241.7383">Appliquer le d&#233;calage</text><text fill="#000000" font-family="sans-serif" font-size="12" lengthAdjust="spacing" textLength="67.3711" x="222.2584" y="256.832">dans la grille</text><rect fill="#F1F1F1" height="35.0938" rx="12.5" ry="12.5" style="stroke:#181818;stroke-width:0.5;" width="154.0332" x="202.9508" y="289.4688"/><text fill="#000000" font-family="sans-serif" font-size="12" lengthAdjust="spacing" textLength="134.0332" x="212.9508" y="311.9258">Grid.resolveTurnDetails()</text><polygon fill="#F1F1F1" points="228.3002,344.5625,331.6346,344.5625,343.6346,356.5625,331.6346,368.5625,228.3002,368.5625,216.3002,356.5625,228.3002,344.5625" style="stroke:#181818;stroke-width:0.5;"/><text fill="#000000" font-family="sans-serif" font-size="11" lengthAdjust="spacing" textLength="103.3345" x="228.3002" y="361.0635">Au moins une s&#233;rie ?</text><text fill="#000000" font-family="sans-serif" font-size="11" lengthAdjust="spacing" textLength="14.6792" x="201.621" y="354.1455">oui</text><text fill="#000000" font-family="sans-serif" font-size="11" lengthAdjust="spacing" textLength="18.353" x="343.6346" y="354.1455">non</text><rect fill="#F1F1F1" height="50.1875" rx="12.5" ry="12.5" style="stroke:#181818;stroke-width:0.5;" width="140.7207" x="94.8298" y="378.5625"/><text fill="#000000" font-family="sans-serif" font-size="12" lengthAdjust="spacing" textLength="120.7207" x="104.8298" y="401.0195">Incr&#233;menter le nombre</text><text fill="#000000" font-family="sans-serif" font-size="12" lengthAdjust="spacing" textLength="48.7031" x="104.8298" y="416.1133">de coups</text><rect fill="#F1F1F1" height="35.0938" rx="12.5" ry="12.5" style="stroke:#181818;stroke-width:0.5;" width="115.373" x="107.5037" y="516.3398"/><text fill="#000000" font-family="sans-serif" font-size="12" lengthAdjust="spacing" textLength="95.373" x="117.5037" y="538.7969">Inverser la gravit&#233;</text><polygon fill="#F1F1F1" points="115.9641,463.75,214.4163,463.75,226.4163,477.5859,214.4163,491.4219,115.9641,491.4219,103.9641,477.5859,115.9641,463.75" style="stroke:#181818;stroke-width:0.5;"/><text fill="#000000" font-family="sans-serif" font-size="11" lengthAdjust="spacing" textLength="14.6792" x="169.1902" y="502.8408">oui</text><text fill="#000000" font-family="sans-serif" font-size="11" lengthAdjust="spacing" textLength="66.6445" x="115.9641" y="475.1689">Hard mode et</text><text fill="#000000" font-family="sans-serif" font-size="11" lengthAdjust="spacing" textLength="98.4521" x="115.9641" y="489.0049">coup multiple de 5 ?</text><polygon fill="#F1F1F1" points="165.1902,571.4336,177.1902,583.4336,165.1902,595.4336,153.1902,583.4336,165.1902,571.4336" style="stroke:#181818;stroke-width:0.5;"/><rect fill="#F1F1F1" height="50.1875" rx="12.5" ry="12.5" style="stroke:#181818;stroke-width:0.5;" width="135.3945" x="97.4929" y="615.4336"/><text fill="#000000" font-family="sans-serif" font-size="12" lengthAdjust="spacing" textLength="115.3945" x="107.4929" y="637.8906">Calculer la probabilit&#233;</text><text fill="#000000" font-family="sans-serif" font-size="12" lengthAdjust="spacing" textLength="78.7148" x="107.4929" y="652.9844">de verrouillage</text><rect fill="#F1F1F1" height="35.0938" rx="12.5" ry="12.5" style="stroke:#181818;stroke-width:0.5;" width="152.7324" x="88.824" y="734.5391"/><text fill="#000000" font-family="sans-serif" font-size="12" lengthAdjust="spacing" textLength="132.7324" x="98.824" y="756.9961">Verrouiller une case libre</text><polygon fill="#F1F1F1" points="104.6499,685.6211,225.7305,685.6211,237.7305,697.6211,225.7305,709.6211,104.6499,709.6211,92.6499,697.6211,104.6499,685.6211" style="stroke:#181818;stroke-width:0.5;"/><text fill="#000000" font-family="sans-serif" font-size="11" lengthAdjust="spacing" textLength="14.6792" x="169.1902" y="721.04">oui</text><text fill="#000000" font-family="sans-serif" font-size="11" lengthAdjust="spacing" textLength="121.0806" x="104.6499" y="702.1221">Verrouillage d&#233;clench&#233; ?</text><polygon fill="#F1F1F1" points="165.1902,789.6328,177.1902,801.6328,165.1902,813.6328,153.1902,801.6328,165.1902,789.6328" style="stroke:#181818;stroke-width:0.5;"/><rect fill="#F1F1F1" height="50.1875" rx="12.5" ry="12.5" style="stroke:#181818;stroke-width:0.5;" width="134.7148" x="97.8328" y="833.6328"/><text fill="#000000" font-family="sans-serif" font-size="12" lengthAdjust="spacing" textLength="114.7148" x="107.8328" y="856.0898">Calculer le score final</text><text fill="#000000" font-family="sans-serif" font-size="12" lengthAdjust="spacing" textLength="37.3594" x="107.8328" y="871.1836">du tour</text><rect fill="#F1F1F1" height="50.1875" rx="12.5" ry="12.5" style="stroke:#181818;stroke-width:0.5;" width="129.3652" x="100.5076" y="903.8203"/><text fill="#000000" font-family="sans-serif" font-size="12" lengthAdjust="spacing" textLength="109.3652" x="110.5076" y="926.2773">Mettre &#224; jour le HUD</text><text fill="#000000" font-family="sans-serif" font-size="12" lengthAdjust="spacing" textLength="104.7246" x="110.5076" y="941.3711">et redessiner la vue</text><polygon fill="#F1F1F1" points="100.3691,974.0078,230.0112,974.0078,242.0112,986.0078,230.0112,998.0078,100.3691,998.0078,88.3691,986.0078,100.3691,974.0078" style="stroke:#181818;stroke-width:0.5;"/><text fill="#000000" font-family="sans-serif" font-size="11" lengthAdjust="spacing" textLength="129.6421" x="100.3691" y="990.5088">Encore un coup possible ?</text><text fill="#000000" font-family="sans-serif" font-size="11" lengthAdjust="spacing" textLength="14.6792" x="73.6899" y="983.5908">oui</text><text fill="#000000" font-family="sans-serif" font-size="11" lengthAdjust="spacing" textLength="18.353" x="242.0112" y="983.5908">non</text><rect fill="#F1F1F1" height="35.0938" rx="12.5" ry="12.5" style="stroke:#181818;stroke-width:0.5;" width="134.7383" x="11" y="1008.0078"/><text fill="#000000" font-family="sans-serif" font-size="12" lengthAdjust="spacing" textLength="114.7383" x="21" y="1030.4648">Sauvegarder la partie</text><rect fill="#F1F1F1" height="50.1875" rx="12.5" ry="12.5" style="stroke:#181818;stroke-width:0.5;" width="99.3887" x="202.3169" y="1008.0078"/><text fill="#000000" font-family="sans-serif" font-size="12" lengthAdjust="spacing" textLength="78.9902" x="212.3169" y="1030.4648">Afficher l'&#233;cran</text><text fill="#000000" font-family="sans-serif" font-size="12" lengthAdjust="spacing" textLength="79.3887" x="212.3169" y="1045.5586">de fin de partie</text><polygon fill="#F1F1F1" points="165.1902,1064.1953,177.1902,1076.1953,165.1902,1088.1953,153.1902,1076.1953,165.1902,1064.1953" style="stroke:#181818;stroke-width:0.5;"/><rect fill="#F1F1F1" height="35.0938" rx="12.5" ry="12.5" style="stroke:#181818;stroke-width:0.5;" width="126.0781" x="331.7056" y="378.5625"/><text fill="#000000" font-family="sans-serif" font-size="12" lengthAdjust="spacing" textLength="106.0781" x="341.7056" y="401.0195">Annuler le d&#233;calage</text><rect fill="#F1F1F1" height="35.0938" rx="12.5" ry="12.5" style="stroke:#181818;stroke-width:0.5;" width="116.0527" x="336.7183" y="448.6563"/><text fill="#000000" font-family="sans-serif" font-size="12" lengthAdjust="spacing" textLength="96.0527" x="346.7183" y="471.1133">Redessiner la vue</text><polygon fill="#F1F1F1" points="279.9674,1094.1953,291.9674,1106.1953,279.9674,1118.1953,267.9674,1106.1953,279.9674,1094.1953" style="stroke:#181818;stroke-width:0.5;"/><ellipse cx="279.9674" cy="1149.1953" fill="none" rx="11" ry="11" style="stroke:#222222;stroke-width:1;"/><ellipse cx="279.9674" cy="1149.1953" fill="#222222" rx="6" ry="6" style="stroke:#222222;stroke-width:1;"/><line style="stroke:#181818;stroke-width:1;" x1="279.9674" x2="279.9674" y1="30" y2="50"/><polygon fill="#181818" points="275.9674,40,279.9674,50,283.9674,40,279.9674,44" style="stroke:#181818;stroke-width:1;"/><line style="stroke:#181818;stroke-width:1;" x1="279.9674" x2="279.9674" y1="100.1875" y2="120.1875"/><polygon fill="#181818" points="275.9674,110.1875,279.9674,120.1875,283.9674,110.1875,279.9674,114.1875" style="stroke:#181818;stroke-width:1;"/><line style="stroke:#181818;stroke-width:1;" x1="279.9674" x2="279.9674" y1="199.2813" y2="219.2813"/><polygon fill="#181818" points="275.9674,209.2813,279.9674,219.2813,283.9674,209.2813,279.9674,213.2813" style="stroke:#181818;stroke-width:1;"/><line style="stroke:#181818;stroke-width:1;" x1="342.4127" x2="368.0919" y1="187.2813" y2="187.2813"/><polygon fill="#181818" points="358.0919,183.2813,368.0919,187.2813,358.0919,191.2813,362.0919,187.2813" style="stroke:#181818;stroke-width:1;"/><line style="stroke:#181818;stroke-width:1;" x1="279.9674" x2="279.9674" y1="155.2813" y2="175.2813"/><polygon fill="#181818" points="275.9674,165.2813,279.9674,175.2813,283.9674,165.2813,279.9674,169.2813" style="stroke:#181818;stroke-width:1;"/><line style="stroke:#181818;stroke-width:1;" x1="279.9674" x2="279.9674" y1="269.4688" y2="289.4688"/><polygon fill="#181818" points="275.9674,279.4688,279.9674,289.4688,283.9674,279.4688,279.9674,283.4688" style="stroke:#181818;stroke-width:1;"/><line style="stroke:#181818;stroke-width:1;" x1="165.1902" x2="165.1902" y1="491.4219" y2="516.3398"/><polygon fill="#181818" points="161.1902,506.3398,165.1902,516.3398,169.1902,506.3398,165.1902,510.3398" style="stroke:#181818;stroke-width:1;"/><line style="stroke:#181818;stroke-width:1;" x1="226.4163" x2="238.4163" y1="477.5859" y2="477.5859"/><polygon fill="#181818" points="234.4163,522.9688,238.4163,532.9688,242.4163,522.9688,238.4163,526.9688" style="stroke:#181818;stroke-width:1;"/><line style="stroke:#181818;stroke-width:1;" x1="238.4163" x2="238.4163" y1="477.5859" y2="583.4336"/><line style="stroke:#181818;stroke-width:1;" x1="238.4163" x2="177.1902" y1="583.4336" y2="583.4336"/><polygon fill="#181818" points="187.1902,579.4336,177.1902,583.4336,187.1902,587.4336,183.1902,583.4336" style="stroke:#181818;stroke-width:1;"/><line style="stroke:#181818;stroke-width:1;" x1="165.1902" x2="165.1902" y1="551.4336" y2="571.4336"/><polygon fill="#181818" points="161.1902,561.4336,165.1902,571.4336,169.1902,561.4336,165.1902,565.4336" style="stroke:#181818;stroke-width:1;"/><line style="stroke:#181818;stroke-width:1;" x1="165.1902" x2="165.1902" y1="428.75" y2="463.75"/><polygon fill="#181818" points="161.1902,453.75,165.1902,463.75,169.1902,453.75,165.1902,457.75" style="stroke:#181818;stroke-width:1;"/><line style="stroke:#181818;stroke-width:1;" x1="165.1902" x2="165.1902" y1="595.4336" y2="615.4336"/><polygon fill="#181818" points="161.1902,605.4336,165.1902,615.4336,169.1902,605.4336,165.1902,609.4336" style="stroke:#181818;stroke-width:1;"/><line style="stroke:#181818;stroke-width:1;" x1="165.1902" x2="165.1902" y1="709.6211" y2="734.5391"/><polygon fill="#181818" points="161.1902,724.5391,165.1902,734.5391,169.1902,724.5391,165.1902,728.5391" style="stroke:#181818;stroke-width:1;"/><line style="stroke:#181818;stroke-width:1;" x1="237.7305" x2="251.5564" y1="697.6211" y2="697.6211"/><polygon fill="#181818" points="247.5564,742.0859,251.5564,752.0859,255.5564,742.0859,251.5564,746.0859" style="stroke:#181818;stroke-width:1;"/><line style="stroke:#181818;stroke-width:1;" x1="251.5564" x2="251.5564" y1="697.6211" y2="801.6328"/><line style="stroke:#181818;stroke-width:1;" x1="251.5564" x2="177.1902" y1="801.6328" y2="801.6328"/><polygon fill="#181818" points="187.1902,797.6328,177.1902,801.6328,187.1902,805.6328,183.1902,801.6328" style="stroke:#181818;stroke-width:1;"/><line style="stroke:#181818;stroke-width:1;" x1="165.1902" x2="165.1902" y1="769.6328" y2="789.6328"/><polygon fill="#181818" points="161.1902,779.6328,165.1902,789.6328,169.1902,779.6328,165.1902,783.6328" style="stroke:#181818;stroke-width:1;"/><line style="stroke:#181818;stroke-width:1;" x1="165.1902" x2="165.1902" y1="665.6211" y2="685.6211"/><polygon fill="#181818" points="161.1902,675.6211,165.1902,685.6211,169.1902,675.6211,165.1902,679.6211" style="stroke:#181818;stroke-width:1;"/><line style="stroke:#181818;stroke-width:1;" x1="165.1902" x2="165.1902" y1="813.6328" y2="833.6328"/><polygon fill="#181818" points="161.1902,823.6328,165.1902,833.6328,169.1902,823.6328,165.1902,827.6328" style="stroke:#181818;stroke-width:1;"/><line style="stroke:#181818;stroke-width:1;" x1="165.1902" x2="165.1902" y1="883.8203" y2="903.8203"/><polygon fill="#181818" points="161.1902,893.8203,165.1902,903.8203,169.1902,893.8203,165.1902,897.8203" style="stroke:#181818;stroke-width:1;"/><line style="stroke:#181818;stroke-width:1;" x1="88.3691" x2="78.3691" y1="986.0078" y2="986.0078"/><line style="stroke:#181818;stroke-width:1;" x1="78.3691" x2="78.3691" y1="986.0078" y2="1008.0078"/><polygon fill="#181818" points="74.3691,998.0078,78.3691,1008.0078,82.3691,998.0078,78.3691,1002.0078" style="stroke:#181818;stroke-width:1;"/><line style="stroke:#181818;stroke-width:1;" x1="242.0112" x2="252.0112" y1="986.0078" y2="986.0078"/><line style="stroke:#181818;stroke-width:1;" x1="252.0112" x2="252.0112" y1="986.0078" y2="1008.0078"/><polygon fill="#181818" points="248.0112,998.0078,252.0112,1008.0078,256.0112,998.0078,252.0112,1002.0078" style="stroke:#181818;stroke-width:1;"/><line style="stroke:#181818;stroke-width:1;" x1="78.3691" x2="78.3691" y1="1043.1016" y2="1076.1953"/><line style="stroke:#181818;stroke-width:1;" x1="78.3691" x2="153.1902" y1="1076.1953" y2="1076.1953"/><polygon fill="#181818" points="143.1902,1072.1953,153.1902,1076.1953,143.1902,1080.1953,147.1902,1076.1953" style="stroke:#181818;stroke-width:1;"/><line style="stroke:#181818;stroke-width:1;" x1="252.0112" x2="252.0112" y1="1058.1953" y2="1076.1953"/><line style="stroke:#181818;stroke-width:1;" x1="252.0112" x2="177.1902" y1="1076.1953" y2="1076.1953"/><polygon fill="#181818" points="187.1902,1072.1953,177.1902,1076.1953,187.1902,1080.1953,183.1902,1076.1953" style="stroke:#181818;stroke-width:1;"/><line style="stroke:#181818;stroke-width:1;" x1="165.1902" x2="165.1902" y1="954.0078" y2="974.0078"/><polygon fill="#181818" points="161.1902,964.0078,165.1902,974.0078,169.1902,964.0078,165.1902,968.0078" style="stroke:#181818;stroke-width:1;"/><line style="stroke:#181818;stroke-width:1;" x1="394.7446" x2="394.7446" y1="413.6563" y2="448.6563"/><polygon fill="#181818" points="390.7446,438.6563,394.7446,448.6563,398.7446,438.6563,394.7446,442.6563" style="stroke:#181818;stroke-width:1;"/><line style="stroke:#181818;stroke-width:1;" x1="216.3002" x2="165.1902" y1="356.5625" y2="356.5625"/><line style="stroke:#181818;stroke-width:1;" x1="165.1902" x2="165.1902" y1="356.5625" y2="378.5625"/><polygon fill="#181818" points="161.1902,368.5625,165.1902,378.5625,169.1902,368.5625,165.1902,372.5625" style="stroke:#181818;stroke-width:1;"/><line style="stroke:#181818;stroke-width:1;" x1="343.6346" x2="394.7446" y1="356.5625" y2="356.5625"/><line style="stroke:#181818;stroke-width:1;" x1="394.7446" x2="394.7446" y1="356.5625" y2="378.5625"/><polygon fill="#181818" points="390.7446,368.5625,394.7446,378.5625,398.7446,368.5625,394.7446,372.5625" style="stroke:#181818;stroke-width:1;"/><line style="stroke:#181818;stroke-width:1;" x1="165.1902" x2="165.1902" y1="1088.1953" y2="1106.1953"/><line style="stroke:#181818;stroke-width:1;" x1="165.1902" x2="267.9674" y1="1106.1953" y2="1106.1953"/><polygon fill="#181818" points="257.9674,1102.1953,267.9674,1106.1953,257.9674,1110.1953,261.9674,1106.1953" style="stroke:#181818;stroke-width:1;"/><line style="stroke:#181818;stroke-width:1;" x1="394.7446" x2="394.7446" y1="483.75" y2="1106.1953"/><line style="stroke:#181818;stroke-width:1;" x1="394.7446" x2="291.9674" y1="1106.1953" y2="1106.1953"/><polygon fill="#181818" points="301.9674,1102.1953,291.9674,1106.1953,301.9674,1110.1953,297.9674,1106.1953" style="stroke:#181818;stroke-width:1;"/><line style="stroke:#181818;stroke-width:1;" x1="279.9674" x2="279.9674" y1="324.5625" y2="344.5625"/><polygon fill="#181818" points="275.9674,334.5625,279.9674,344.5625,283.9674,334.5625,279.9674,338.5625" style="stroke:#181818;stroke-width:1;"/><line style="stroke:#181818;stroke-width:1;" x1="279.9674" x2="279.9674" y1="1118.1953" y2="1138.1953"/><polygon fill="#181818" points="275.9674,1128.1953,279.9674,1138.1953,283.9674,1128.1953,279.9674,1132.1953" style="stroke:#181818;stroke-width:1;"/><?plantuml-src TLAzRjim4Dxr5BTLNhHriOV2Q8gcGBEqQISlD7MoBpWT6Vu8VPokUWwzM8-qOYHmEfByxlixncH2QfhjLwOOSKH9C1cc7WyISm0sS0h4Z3k5c16_E-Sx_8Cs9tpCGTgkwpQxfg41saUd0_qoFor_0GMi7YDysa0wwwbrcJODG4pEDoWz3IgwzvxfEQFgO9cqXir9bNiZyQrqeBuB61rFLVOEao6ExOlqFiFeI8Uo8CHb3eGtojjlOiCobuWNGN7ZCHGrB5vzL2w0mdPlGgzyUe_f8EKDnio9V769yF66kf9F62AkZPc9qZBlz6cDgeZFXctc2y87TpH7ueAg1dGuA1cN_BlLnkzNTxKTHh7dPNvF_efL_jA1DH61IVFzpuJsP5r064WCguSCIHTMqDi7J4bVT8rFPQKAlVzrTn1C4B3764akAQQCryw-I6NBTUyUl5FOaV4zhpzDdl2a7QzTw0UaYqrMqwquMO7xOI1xBgWFcZuOgLMfuRA5LsCrtPlXxLxa9URrNzLiFsuJhEsKd_aF?></g></svg>