<?plantuml 1.2026.2?><svg xmlns="http://www.w3.org/2000/svg" xmlns:xlink="http://www.w3.org/1999/xlink" contentStyleType="text/css" data-diagram-type="CLASS" height="754px" preserveAspectRatio="none" style="width:849px;height:754px;background:#FFFFFF;" version="1.1" viewBox="0 0 849 754" width="849px" zoomAndPan="magnify"><defs/><g><!--class MainActivity--><g class="entity" data-qualified-name="MainActivity" data-source-line="3" id="ent0002"><rect fill="#F1F1F1" height="129.1406" rx="2.5" ry="2.5" style="stroke:#181818;stroke-width:0.5;" width="313.5674" x="313.5" y="7"/><ellipse cx="410.6733" cy="28.3516" fill="#ADD1B2" rx="11" ry="11" style="stroke:#181818;stroke-width:1;"/><path d="M413.439,24.2266 Q413.5952,24.0078 413.7827,23.8984 Q413.9702,23.7891 414.189,23.7891 Q414.564,23.7891 414.7983,24.0547 Q415.0327,24.3047 415.0327,24.9141 L415.0327,26.3672 Q415.0327,26.9766 414.7983,27.2422 Q414.564,27.5078 414.189,27.5078 Q413.8452,27.5078 413.6421,27.3047 Q413.439,27.1172 413.3296,26.6016 Q413.2827,26.2422 413.0952,26.0547 Q412.7671,25.6797 412.1577,25.4609 Q411.5483,25.2422 410.9233,25.2422 Q410.1577,25.2422 409.5171,25.5703 Q408.8921,25.8984 408.3921,26.6484 Q407.9077,27.3984 407.9077,28.4297 L407.9077,29.5234 Q407.9077,30.7578 408.7983,31.5859 Q409.689,32.3984 411.2827,32.3984 Q412.2202,32.3984 412.8765,32.1484 Q413.2671,31.9922 413.689,31.5547 Q413.9546,31.2891 414.0952,31.2109 Q414.2515,31.1328 414.4546,31.1328 Q414.7827,31.1328 415.0327,31.3984 Q415.2983,31.6484 415.2983,31.9922 Q415.2983,32.3359 414.9546,32.7422 Q414.4546,33.3203 413.6577,33.6484 Q412.5796,34.1016 411.2827,34.1016 Q409.7671,34.1016 408.564,33.4766 Q407.5796,32.9766 406.8921,31.9141 Q406.2046,30.8359 406.2046,29.5547 L406.2046,28.3984 Q406.2046,27.0703 406.814,25.9297 Q407.439,24.7734 408.5327,24.1641 Q409.6265,23.5391 410.8608,23.5391 Q411.5952,23.5391 412.2358,23.7109 Q412.8921,23.8672 413.439,24.2266 Z " fill="#000000"/><text fill="#000000" font-family="sans-serif" font-size="12" font-style="italic" lengthAdjust="spacing" textLength="114.7207" x="429.1733" y="24.457">&#171;AppCompatActivity&#187;</text><text fill="#000000" font-family="sans-serif" font-size="14" lengthAdjust="spacing" textLength="74.6826" x="449.1924" y="41.627">MainActivity</text><line style="stroke:#181818;stroke-width:0.5;" x1="314.5" x2="626.0674" y1="49.7031" y2="49.7031"/><text fill="#000000" font-family="sans-serif" font-size="14" lengthAdjust="spacing" textLength="182.0889" x="319.5" y="68.2363">-resumeGameButton : Button</text><line style="stroke:#181818;stroke-width:0.5;" x1="314.5" x2="626.0674" y1="75.3125" y2="75.3125"/><text fill="#000000" font-family="sans-serif" font-size="14" lengthAdjust="spacing" textLength="253.3262" x="319.5" y="93.8457">+onCreate(savedInstanceState : Bundle)</text><text fill="#000000" font-family="sans-serif" font-size="14" lengthAdjust="spacing" textLength="85.2031" x="319.5" y="111.4551">+onResume()</text><text fill="#000000" font-family="sans-serif" font-size="14" lengthAdjust="spacing" textLength="301.5674" x="319.5" y="129.0645">+onCreateOptionsMenu(menu : Menu) : boolean</text></g><!--class SeedActivity--><g class="entity" data-qualified-name="SeedActivity" data-source-line="10" id="ent0003"><rect fill="#F1F1F1" height="129.1406" rx="2.5" ry="2.5" style="stroke:#181818;stroke-width:0.5;" width="265.3262" x="7" y="214"/><ellipse cx="96.896" cy="235.3516" fill="#ADD1B2" rx="11" ry="11" style="stroke:#181818;stroke-width:1;"/><path d="M99.6616,231.2266 Q99.8179,231.0078 100.0054,230.8984 Q100.1929,230.7891 100.4116,230.7891 Q100.7866,230.7891 101.021,231.0547 Q101.2554,231.3047 101.2554,231.9141 L101.2554,233.3672 Q101.2554,233.9766 101.021,234.2422 Q100.7866,234.5078 100.4116,234.5078 Q100.0679,234.5078 99.8647,234.3047 Q99.6616,234.1172 99.5522,233.6016 Q99.5054,233.2422 99.3179,233.0547 Q98.9897,232.6797 98.3804,232.4609 Q97.771,232.2422 97.146,232.2422 Q96.3804,232.2422 95.7397,232.5703 Q95.1147,232.8984 94.6147,233.6484 Q94.1304,234.3984 94.1304,235.4297 L94.1304,236.5234 Q94.1304,237.7578 95.021,238.5859 Q95.9116,239.3984 97.5054,239.3984 Q98.4429,239.3984 99.0991,239.1484 Q99.4897,238.9922 99.9116,238.5547 Q100.1772,238.2891 100.3179,238.2109 Q100.4741,238.1328 100.6772,238.1328 Q101.0054,238.1328 101.2554,238.3984 Q101.521,238.6484 101.521,238.9922 Q101.521,239.3359 101.1772,239.7422 Q100.6772,240.3203 99.8804,240.6484 Q98.8022,241.1016 97.5054,241.1016 Q95.9897,241.1016 94.7866,240.4766 Q93.8022,239.9766 93.1147,238.9141 Q92.4272,237.8359 92.4272,236.5547 L92.4272,235.3984 Q92.4272,234.0703 93.0366,232.9297 Q93.6616,231.7734 94.7554,231.1641 Q95.8491,230.5391 97.0835,230.5391 Q97.8179,230.5391 98.4585,230.7109 Q99.1147,230.8672 99.6616,231.2266 Z " fill="#000000"/><text fill="#000000" font-family="sans-serif" font-size="12" font-style="italic" lengthAdjust="spacing" textLength="51.3516" x="130.2373" y="231.457">&#171;Activity&#187;</text><text fill="#000000" font-family="sans-serif" font-size="14" lengthAdjust="spacing" textLength="77.0342" x="117.396" y="248.627">SeedActivity</text><line style="stroke:#181818;stroke-width:0.5;" x1="8" x2="271.3262" y1="256.7031" y2="256.7031"/><text fill="#000000" font-family="sans-serif" font-size="14" lengthAdjust="spacing" textLength="149.3926" x="13" y="275.2363">-seedEditText : EditText</text><text fill="#000000" font-family="sans-serif" font-size="14" lengthAdjust="spacing" textLength="155.6611" x="13" y="292.8457">-playSeedButton : Button</text><line style="stroke:#181818;stroke-width:0.5;" x1="8" x2="271.3262" y1="299.9219" y2="299.9219"/><text fill="#000000" font-family="sans-serif" font-size="14" lengthAdjust="spacing" textLength="253.3262" x="13" y="318.4551">+onCreate(savedInstanceState : Bundle)</text><text fill="#000000" font-family="sans-serif" font-size="14" lengthAdjust="spacing" textLength="162.2715" x="13" y="336.0645">+lancerLeJeu(seed : long)</text></g><!--class GameActivity--><g class="entity" data-qualified-name="GameActivity" data-source-line="17" id="ent0004"><rect fill="#F1F1F1" height="217.1875" rx="2.5" ry="2.5" style="stroke:#181818;stroke-width:0.5;" width="265.3262" x="210" y="421"/><ellipse cx="297.1821" cy="442.3516" fill="#ADD1B2" rx="11" ry="11" style="stroke:#181818;stroke-width:1;"/><path d="M299.9478,438.2266 Q300.104,438.0078 300.2915,437.8984 Q300.479,437.7891 300.6978,437.7891 Q301.0728,437.7891 301.3071,438.0547 Q301.5415,438.3047 301.5415,438.9141 L301.5415,440.3672 Q301.5415,440.9766 301.3071,441.2422 Q301.0728,441.5078 300.6978,441.5078 Q300.354,441.5078 300.1509,441.3047 Q299.9478,441.1172 299.8384,440.6016 Q299.7915,440.2422 299.604,440.0547 Q299.2759,439.6797 298.6665,439.4609 Q298.0571,439.2422 297.4321,439.2422 Q296.6665,439.2422 296.0259,439.5703 Q295.4009,439.8984 294.9009,440.6484 Q294.4165,441.3984 294.4165,442.4297 L294.4165,443.5234 Q294.4165,444.7578 295.3071,445.5859 Q296.1978,446.3984 297.7915,446.3984 Q298.729,446.3984 299.3853,446.1484 Q299.7759,445.9922 300.1978,445.5547 Q300.4634,445.2891 300.604,445.2109 Q300.7603,445.1328 300.9634,445.1328 Q301.2915,445.1328 301.5415,445.3984 Q301.8071,445.6484 301.8071,445.9922 Q301.8071,446.3359 301.4634,446.7422 Q300.9634,447.3203 300.1665,447.6484 Q299.0884,448.1016 297.7915,448.1016 Q296.2759,448.1016 295.0728,447.4766 Q294.0884,446.9766 293.4009,445.9141 Q292.7134,444.8359 292.7134,443.5547 L292.7134,442.3984 Q292.7134,441.0703 293.3228,439.9297 Q293.9478,438.7734 295.0415,438.1641 Q296.1353,437.5391 297.3696,437.5391 Q298.104,437.5391 298.7446,437.7109 Q299.4009,437.8672 299.9478,438.2266 Z " fill="#000000"/><text fill="#000000" font-family="sans-serif" font-size="12" font-style="italic" lengthAdjust="spacing" textLength="51.3516" x="333.2373" y="438.457">&#171;Activity&#187;</text><text fill="#000000" font-family="sans-serif" font-size="14" lengthAdjust="spacing" textLength="82.4619" x="317.6821" y="455.627">GameActivity</text><line style="stroke:#181818;stroke-width:0.5;" x1="211" x2="474.3262" y1="463.7031" y2="463.7031"/><text fill="#000000" font-family="sans-serif" font-size="14" lengthAdjust="spacing" textLength="66.124" x="216" y="482.2363">-grid : Grid</text><text fill="#000000" font-family="sans-serif" font-size="14" lengthAdjust="spacing" textLength="150.165" x="216" y="499.8457">-gameView : GameView</text><text fill="#000000" font-family="sans-serif" font-size="14" lengthAdjust="spacing" textLength="151.7646" x="216" y="517.4551">-gameLoop : GameLoop</text><text fill="#000000" font-family="sans-serif" font-size="14" lengthAdjust="spacing" textLength="111.2617" x="216" y="535.0645">-currentScore : int</text><text fill="#000000" font-family="sans-serif" font-size="14" lengthAdjust="spacing" textLength="109.71" x="216" y="552.6738">-movesCount : int</text><line style="stroke:#181818;stroke-width:0.5;" x1="211" x2="474.3262" y1="559.75" y2="559.75"/><text fill="#000000" font-family="sans-serif" font-size="14" lengthAdjust="spacing" textLength="253.3262" x="216" y="578.2832">+onCreate(savedInstanceState : Bundle)</text><text fill="#000000" font-family="sans-serif" font-size="14" lengthAdjust="spacing" textLength="72.7686" x="216" y="595.8926">+onPause()</text><text fill="#000000" font-family="sans-serif" font-size="14" lengthAdjust="spacing" textLength="82.8584" x="216" y="613.502">+gameOver()</text><text fill="#000000" font-family="sans-serif" font-size="14" lengthAdjust="spacing" textLength="143.541" x="216" y="631.1113">+persistCurrentGame()</text></g><!--class OptionsActivity--><g class="entity" data-qualified-name="OptionsActivity" data-source-line="29" id="ent0005"><rect fill="#F1F1F1" height="76.3125" rx="2.5" ry="2.5" style="stroke:#181818;stroke-width:0.5;" width="265.3262" x="466" y="240.5"/><ellipse cx="541.3877" cy="261.8516" fill="#ADD1B2" rx="11" ry="11" style="stroke:#181818;stroke-width:1;"/><path d="M544.1533,257.7266 Q544.3096,257.5078 544.4971,257.3984 Q544.6846,257.2891 544.9033,257.2891 Q545.2783,257.2891 545.5127,257.5547 Q545.7471,257.8047 545.7471,258.4141 L545.7471,259.8672 Q545.7471,260.4766 545.5127,260.7422 Q545.2783,261.0078 544.9033,261.0078 Q544.5596,261.0078 544.3564,260.8047 Q544.1533,260.6172 544.0439,260.1016 Q543.9971,259.7422 543.8096,259.5547 Q543.4814,259.1797 542.8721,258.9609 Q542.2627,258.7422 541.6377,258.7422 Q540.8721,258.7422 540.2314,259.0703 Q539.6064,259.3984 539.1064,260.1484 Q538.6221,260.8984 538.6221,261.9297 L538.6221,263.0234 Q538.6221,264.2578 539.5127,265.0859 Q540.4033,265.8984 541.9971,265.8984 Q542.9346,265.8984 543.5908,265.6484 Q543.9814,265.4922 544.4033,265.0547 Q544.6689,264.7891 544.8096,264.7109 Q544.9658,264.6328 545.1689,264.6328 Q545.4971,264.6328 545.7471,264.8984 Q546.0127,265.1484 546.0127,265.4922 Q546.0127,265.8359 545.6689,266.2422 Q545.1689,266.8203 544.3721,267.1484 Q543.2939,267.6016 541.9971,267.6016 Q540.4814,267.6016 539.2783,266.9766 Q538.2939,266.4766 537.6064,265.4141 Q536.9189,264.3359 536.9189,263.0547 L536.9189,261.8984 Q536.9189,260.5703 537.5283,259.4297 Q538.1533,258.2734 539.2471,257.6641 Q540.3408,257.0391 541.5752,257.0391 Q542.3096,257.0391 542.9502,257.2109 Q543.6064,257.3672 544.1533,257.7266 Z " fill="#000000"/><text fill="#000000" font-family="sans-serif" font-size="12" font-style="italic" lengthAdjust="spacing" textLength="110.0508" x="559.8877" y="257.957">&#171;PreferenceActivity&#187;</text><text fill="#000000" font-family="sans-serif" font-size="14" lengthAdjust="spacing" textLength="92.5859" x="568.6201" y="275.127">OptionsActivity</text><line style="stroke:#181818;stroke-width:0.5;" x1="467" x2="730.3262" y1="283.2031" y2="283.2031"/><line style="stroke:#181818;stroke-width:0.5;" x1="467" x2="730.3262" y1="291.2031" y2="291.2031"/><text fill="#000000" font-family="sans-serif" font-size="14" lengthAdjust="spacing" textLength="253.3262" x="472" y="309.7363">+onCreate(savedInstanceState : Bundle)</text></g><!--class Grid--><g class="entity" data-qualified-name="Grid" data-source-line="33" id="ent0006"><rect fill="#F1F1F1" height="48" rx="2.5" ry="2.5" style="stroke:#181818;stroke-width:0.5;" width="58.4482" x="131.5" y="699"/><ellipse cx="146.5" cy="715" fill="#ADD1B2" rx="11" ry="11" style="stroke:#181818;stroke-width:1;"/><path d="M149.2656,710.875 Q149.4219,710.6563 149.6094,710.5469 Q149.7969,710.4375 150.0156,710.4375 Q150.3906,710.4375 150.625,710.7031 Q150.8594,710.9531 150.8594,711.5625 L150.8594,713.0156 Q150.8594,713.625 150.625,713.8906 Q150.3906,714.1563 150.0156,714.1563 Q149.6719,714.1563 149.4688,713.9531 Q149.2656,713.7656 149.1563,713.25 Q149.1094,712.8906 148.9219,712.7031 Q148.5938,712.3281 147.9844,712.1094 Q147.375,711.8906 146.75,711.8906 Q145.9844,711.8906 145.3438,712.2188 Q144.7188,712.5469 144.2188,713.2969 Q143.7344,714.0469 143.7344,715.0781 L143.7344,716.1719 Q143.7344,717.4063 144.625,718.2344 Q145.5156,719.0469 147.1094,719.0469 Q148.0469,719.0469 148.7031,718.7969 Q149.0938,718.6406 149.5156,718.2031 Q149.7813,717.9375 149.9219,717.8594 Q150.0781,717.7813 150.2813,717.7813 Q150.6094,717.7813 150.8594,718.0469 Q151.125,718.2969 151.125,718.6406 Q151.125,718.9844 150.7813,719.3906 Q150.2813,719.9688 149.4844,720.2969 Q148.4063,720.75 147.1094,720.75 Q145.5938,720.75 144.3906,720.125 Q143.4063,719.625 142.7188,718.5625 Q142.0313,717.4844 142.0313,716.2031 L142.0313,715.0469 Q142.0313,713.7188 142.6406,712.5781 Q143.2656,711.4219 144.3594,710.8125 Q145.4531,710.1875 146.6875,710.1875 Q147.4219,710.1875 148.0625,710.3594 Q148.7188,710.5156 149.2656,710.875 Z " fill="#000000"/><text fill="#000000" font-family="sans-serif" font-size="14" lengthAdjust="spacing" textLength="26.4482" x="160.5" y="720.7285">Grid</text><line style="stroke:#181818;stroke-width:0.5;" x1="132.5" x2="188.9482" y1="731" y2="731"/><line style="stroke:#181818;stroke-width:0.5;" x1="132.5" x2="188.9482" y1="739" y2="739"/></g><!--class GameView--><g class="entity" data-qualified-name="GameView" data-source-line="34" id="ent0007"><rect fill="#F1F1F1" height="48" rx="2.5" ry="2.5" style="stroke:#181818;stroke-width:0.5;" width="100.4688" x="224.5" y="699"/><ellipse cx="239.5" cy="715" fill="#ADD1B2" rx="11" ry="11" style="stroke:#181818;stroke-width:1;"/><path d="M242.2656,710.875 Q242.4219,710.6563 242.6094,710.5469 Q242.7969,710.4375 243.0156,710.4375 Q243.3906,710.4375 243.625,710.7031 Q243.8594,710.9531 243.8594,711.5625 L243.8594,713.0156 Q243.8594,713.625 243.625,713.8906 Q243.3906,714.1563 243.0156,714.1563 Q242.6719,714.1563 242.4688,713.9531 Q242.2656,713.7656 242.1563,713.25 Q242.1094,712.8906 241.9219,712.7031 Q241.5938,712.3281 240.9844,712.1094 Q240.375,711.8906 239.75,711.8906 Q238.9844,711.8906 238.3438,712.2188 Q237.7188,712.5469 237.2188,713.2969 Q236.7344,714.0469 236.7344,715.0781 L236.7344,716.1719 Q236.7344,717.4063 237.625,718.2344 Q238.5156,719.0469 240.1094,719.0469 Q241.0469,719.0469 241.7031,718.7969 Q242.0938,718.6406 242.5156,718.2031 Q242.7813,717.9375 242.9219,717.8594 Q243.0781,717.7813 243.2813,717.7813 Q243.6094,717.7813 243.8594,718.0469 Q244.125,718.2969 244.125,718.6406 Q244.125,718.9844 243.7813,719.3906 Q243.2813,719.9688 242.4844,720.2969 Q241.4063,720.75 240.1094,720.75 Q238.5938,720.75 237.3906,720.125 Q236.4063,719.625 235.7188,718.5625 Q235.0313,717.4844 235.0313,716.2031 L235.0313,715.0469 Q235.0313,713.7188 235.6406,712.5781 Q236.2656,711.4219 237.3594,710.8125 Q238.4531,710.1875 239.6875,710.1875 Q240.4219,710.1875 241.0625,710.3594 Q241.7188,710.5156 242.2656,710.875 Z " fill="#000000"/><text fill="#000000" font-family="sans-serif" font-size="14" lengthAdjust="spacing" textLength="68.4688" x="253.5" y="720.7285">GameView</text><line style="stroke:#181818;stroke-width:0.5;" x1="225.5" x2="323.9688" y1="731" y2="731"/><line style="stroke:#181818;stroke-width:0.5;" x1="225.5" x2="323.9688" y1="739" y2="739"/></g><!--class GameLoop--><g class="entity" data-qualified-name="GameLoop" data-source-line="35" id="ent0008"><rect fill="#F1F1F1" height="48" rx="2.5" ry="2.5" style="stroke:#181818;stroke-width:0.5;" width="101.2686" x="360" y="699"/><ellipse cx="375" cy="715" fill="#ADD1B2" rx="11" ry="11" style="stroke:#181818;stroke-width:1;"/><path d="M377.7656,710.875 Q377.9219,710.6563 378.1094,710.5469 Q378.2969,710.4375 378.5156,710.4375 Q378.8906,710.4375 379.125,710.7031 Q379.3594,710.9531 379.3594,711.5625 L379.3594,713.0156 Q379.3594,713.625 379.125,713.8906 Q378.8906,714.1563 378.5156,714.1563 Q378.1719,714.1563 377.9688,713.9531 Q377.7656,713.7656 377.6563,713.25 Q377.6094,712.8906 377.4219,712.7031 Q377.0938,712.3281 376.4844,712.1094 Q375.875,711.8906 375.25,711.8906 Q374.4844,711.8906 373.8438,712.2188 Q373.2188,712.5469 372.7188,713.2969 Q372.2344,714.0469 372.2344,715.0781 L372.2344,716.1719 Q372.2344,717.4063 373.125,718.2344 Q374.0156,719.0469 375.6094,719.0469 Q376.5469,719.0469 377.2031,718.7969 Q377.5938,718.6406 378.0156,718.2031 Q378.2813,717.9375 378.4219,717.8594 Q378.5781,717.7813 378.7813,717.7813 Q379.1094,717.7813 379.3594,718.0469 Q379.625,718.2969 379.625,718.6406 Q379.625,718.9844 379.2813,719.3906 Q378.7813,719.9688 377.9844,720.2969 Q376.9063,720.75 375.6094,720.75 Q374.0938,720.75 372.8906,720.125 Q371.9063,719.625 371.2188,718.5625 Q370.5313,717.4844 370.5313,716.2031 L370.5313,715.0469 Q370.5313,713.7188 371.1406,712.5781 Q371.7656,711.4219 372.8594,710.8125 Q373.9531,710.1875 375.1875,710.1875 Q375.9219,710.1875 376.5625,710.3594 Q377.2188,710.5156 377.7656,710.875 Z " fill="#000000"/><text fill="#000000" font-family="sans-serif" font-size="14" lengthAdjust="spacing" textLength="69.2686" x="389" y="720.7285">GameLoop</text><line style="stroke:#181818;stroke-width:0.5;" x1="361" x2="460.2686" y1="731" y2="731"/><line style="stroke:#181818;stroke-width:0.5;" x1="361" x2="460.2686" y1="739" y2="739"/></g><!--class SaveGameManager--><g class="entity" data-qualified-name="SaveGameManager" data-source-line="36" id="ent0009"><rect fill="#F1F1F1" height="48" rx="2.5" ry="2.5" style="stroke:#181818;stroke-width:0.5;" width="157.2891" x="496" y="699"/><ellipse cx="511" cy="715" fill="#ADD1B2" rx="11" ry="11" style="stroke:#181818;stroke-width:1;"/><path d="M513.7656,710.875 Q513.9219,710.6563 514.1094,710.5469 Q514.2969,710.4375 514.5156,710.4375 Q514.8906,710.4375 515.125,710.7031 Q515.3594,710.9531 515.3594,711.5625 L515.3594,713.0156 Q515.3594,713.625 515.125,713.8906 Q514.8906,714.1563 514.5156,714.1563 Q514.1719,714.1563 513.9688,713.9531 Q513.7656,713.7656 513.6563,713.25 Q513.6094,712.8906 513.4219,712.7031 Q513.0938,712.3281 512.4844,712.1094 Q511.875,711.8906 511.25,711.8906 Q510.4844,711.8906 509.8438,712.2188 Q509.2188,712.5469 508.7188,713.2969 Q508.2344,714.0469 508.2344,715.0781 L508.2344,716.1719 Q508.2344,717.4063 509.125,718.2344 Q510.0156,719.0469 511.6094,719.0469 Q512.5469,719.0469 513.2031,718.7969 Q513.5938,718.6406 514.0156,718.2031 Q514.2813,717.9375 514.4219,717.8594 Q514.5781,717.7813 514.7813,717.7813 Q515.1094,717.7813 515.3594,718.0469 Q515.625,718.2969 515.625,718.6406 Q515.625,718.9844 515.2813,719.3906 Q514.7813,719.9688 513.9844,720.2969 Q512.9063,720.75 511.6094,720.75 Q510.0938,720.75 508.8906,720.125 Q507.9063,719.625 507.2188,718.5625 Q506.5313,717.4844 506.5313,716.2031 L506.5313,715.0469 Q506.5313,713.7188 507.1406,712.5781 Q507.7656,711.4219 508.8594,710.8125 Q509.9531,710.1875 511.1875,710.1875 Q511.9219,710.1875 512.5625,710.3594 Q513.2188,710.5156 513.7656,710.875 Z " fill="#000000"/><text fill="#000000" font-family="sans-serif" font-size="14" lengthAdjust="spacing" textLength="125.2891" x="525" y="720.7285">SaveGameManager</text><line style="stroke:#181818;stroke-width:0.5;" x1="497" x2="652.2891" y1="731" y2="731"/><line style="stroke:#181818;stroke-width:0.5;" x1="497" x2="652.2891" y1="739" y2="739"/></g><!--link MainActivity to SeedActivity--><g class="link" data-entity-1="ent0002" data-entity-2="ent0003" data-link-type="dependency" data-source-line="38" id="lnk10"><path codeLine="38" d="M334.43,136.09 C316.65,145.57 298.93,155.66 282.5,166 C259.86,180.26 241.2125,193.6517 220.0925,210.1117" fill="none" id="MainActivity-to-SeedActivity" style="stroke:#181818;stroke-width:1;stroke-dasharray:7,7;"/><polygon fill="#181818" points="215.36,213.8,224.9176,211.4226,219.3037,210.7264,219.9999,205.1126,215.36,213.8" style="stroke:#181818;stroke-width:1;"/><text fill="#000000" font-family="sans-serif" font-size="13" lengthAdjust="spacing" textLength="32.519" x="283.5" y="180.4951">ouvre</text></g><!--link MainActivity to GameActivity--><g class="link" data-entity-1="ent0002" data-entity-2="ent0004" data-link-type="dependency" data-source-line="39" id="lnk11"><path codeLine="39" d="M407.89,136.1 C389.28,158.86 371.05,185.89 360.5,214 C335.86,279.67 331.2292,352.4722 332.8992,414.7722" fill="none" id="MainActivity-to-GameActivity" style="stroke:#181818;stroke-width:1;stroke-dasharray:7,7;"/><polygon fill="#181818" points="333.06,420.77,336.8174,411.666,332.926,415.7718,328.8203,411.8804,333.06,420.77" style="stroke:#181818;stroke-width:1;"/><text fill="#000000" font-family="sans-serif" font-size="13" lengthAdjust="spacing" textLength="86.7217" x="361.5" y="283.9951">lance / reprend</text></g><!--link GameActivity to MainActivity--><g class="link" data-entity-1="ent0004" data-entity-2="ent0002" data-link-type="dependency" data-source-line="43" id="lnk14"><path codeLine="43" d="M475.46,506.35 C569.35,483.02 688.7,436.07 748.5,343 C779.49,294.77 778.47,262.88 748.5,214 C721.11,169.33 680.1821,140.693 633.0621,119.273" fill="none" id="GameActivity-to-MainActivity" style="stroke:#181818;stroke-width:1;stroke-dasharray:7,7;"/><polygon fill="#181818" points="627.6,116.79,634.1379,124.1559,632.1518,118.8592,637.4485,116.8731,627.6,116.79" style="stroke:#181818;stroke-width:1;"/><text fill="#000000" font-family="sans-serif" font-size="13" lengthAdjust="spacing" textLength="70.0908" x="771.5" y="283.9951">retour menu</text></g><!--link MainActivity to OptionsActivity--><g class="link" data-entity-1="ent0002" data-entity-2="ent0005" data-link-type="dependency" data-source-line="40" id="lnk12"><path codeLine="40" d="M510.3,136.24 C531.65,170.44 554.0528,206.3102 572.1428,235.2902" fill="none" id="MainActivity-to-OptionsActivity" style="stroke:#181818;stroke-width:1;stroke-dasharray:7,7;"/><polygon fill="#181818" points="575.32,240.38,573.9474,230.6273,572.6724,236.1385,567.1611,234.8635,575.32,240.38" style="stroke:#181818;stroke-width:1;"/><text fill="#000000" font-family="sans-serif" font-size="13" lengthAdjust="spacing" textLength="65.749" x="539.5" y="180.4951">param&#232;tres</text></g><!--link SeedActivity to GameActivity--><g class="link" data-entity-1="ent0003" data-entity-2="ent0004" data-link-type="dependency" data-source-line="42" id="lnk13"><path codeLine="42" d="M191.51,343.3 C210.78,366.93 229.398,389.7802 250.968,416.2302" fill="none" id="SeedActivity-to-GameActivity" style="stroke:#181818;stroke-width:1;stroke-dasharray:7,7;"/><polygon fill="#181818" points="254.76,420.88,252.172,411.3773,251.6,417.0051,245.9722,416.4332,254.76,420.88" style="stroke:#181818;stroke-width:1;"/><text fill="#000000" font-family="sans-serif" font-size="13" lengthAdjust="spacing" textLength="78.7808" x="230.5" y="387.4951">partie seed&#233;e</text></g><!--link GameActivity to Grid--><g class="link" data-entity-1="ent0004" data-entity-2="ent0006" data-link-type="dependency" data-source-line="45" id="lnk15"><path codeLine="45" d="M240.33,638.01 C218.45,661.02 201.5836,678.771 186.6136,694.521" fill="none" id="GameActivity-to-Grid" style="stroke:#181818;stroke-width:1;stroke-dasharray:7,7;"/><polygon fill="#181818" points="182.48,698.87,191.5797,695.1023,185.9247,695.2459,185.7811,689.5908,182.48,698.87" style="stroke:#181818;stroke-width:1;"/></g><!--link GameActivity to GameView--><g class="link" data-entity-1="ent0004" data-entity-2="ent0007" data-link-type="dependency" data-source-line="46" id="lnk16"><path codeLine="46" d="M304.33,638.01 C296.15,661.02 290.3069,677.4656 284.7169,693.2156" fill="none" id="GameActivity-to-GameView" style="stroke:#181818;stroke-width:1;stroke-dasharray:7,7;"/><polygon fill="#181818" points="282.71,698.87,289.4899,691.7263,284.3824,694.158,281.9507,689.0505,282.71,698.87" style="stroke:#181818;stroke-width:1;"/></g><!--link GameActivity to GameLoop--><g class="link" data-entity-1="ent0004" data-entity-2="ent0008" data-link-type="dependency" data-source-line="47" id="lnk17"><path codeLine="47" d="M380.67,638.01 C388.85,661.02 394.6931,677.4656 400.2831,693.2156" fill="none" id="GameActivity-to-GameLoop" style="stroke:#181818;stroke-width:1;stroke-dasharray:7,7;"/><polygon fill="#181818" points="402.29,698.87,403.0493,689.0505,400.6176,694.158,395.5101,691.7263,402.29,698.87" style="stroke:#181818;stroke-width:1;"/></g><!--link GameActivity to SaveGameManager--><g class="link" data-entity-1="ent0004" data-entity-2="ent0009" data-link-type="dependency" data-source-line="48" id="lnk18"><path codeLine="48" d="M472.74,638.01 C500.63,661.02 522.7728,679.3004 541.8528,695.0504" fill="none" id="GameActivity-to-SaveGameManager" style="stroke:#181818;stroke-width:1;stroke-dasharray:7,7;"/><polygon fill="#181818" points="546.48,698.87,542.0856,690.0558,542.624,695.687,536.9929,696.2254,546.48,698.87" style="stroke:#181818;stroke-width:1;"/></g><?plantuml-src fLFDJiCm3BxdANBiX1YS9pHfJ6W2CO4OufwrPefeaoXnofzu7tYElHXsrh9rHGZ4fNK-s_7dpqvuqCOfhogPbog42QBNouXmdbkpq2yWZuL87ZbNsanorBN6PtboCd5kQYkdiCN6O_agf3pq4685CrN1QKIqHexanY3dWJLJ3meX2wg6ujm4L2Q71HAKuanHmc0JU9FkoGQxQLSEjJLX3YPc5NqeX-q1_PVMbg2CU6lvBW2ANRvxD0EvpmgDj_24bDwQx7AbUkRi__0l6VUNS04nurBaBQrP3RRyMA4V-AsyvgGP_TAHekyqF3BKc2ryQQrhO3OPpgFtO72HMy-yj4bzLRQ6CBNHu1Vsbu5SgnYQUN3PgnhyvkJ01nrmkYdAFBATFfkPxRHwxU4UA3I7lQP_oMOh8OkpLJE9iZqcCPfTeEiOcYkZLk25w2ppS3ZkRij8sbXxw4TrPaOJPNRoI7fmr4xHZz_lVIJJMrk_8xqI8Jf5lxcVWb63vFrPVu3eU3cyKsz4DD16B_bXY7vm4gkFjhfzwqaIzZpxQdu2?></g></svg>