<?plantuml 1.2026.2?><svg xmlns="http://www.w3.org/2000/svg" xmlns:xlink="http://www.w3.org/1999/xlink" contentStyleType="text/css" data-diagram-type="CLASS" height="532px" preserveAspectRatio="none" style="width:493px;height:532px;background:#FFFFFF;" version="1.1" viewBox="0 0 493 532" width="493px" zoomAndPan="magnify"><defs/><g><!--class SaveGame--><g class="entity" data-qualified-name="SaveGame" data-source-line="3" id="ent0002"><rect fill="#F1F1F1" height="294.5313" rx="2.5" ry="2.5" style="stroke:#181818;stroke-width:0.5;" width="196.0303" x="7" y="231"/><ellipse cx="65.748" cy="247" fill="#ADD1B2" rx="11" ry="11" style="stroke:#181818;stroke-width:1;"/><path d="M68.5137,242.875 Q68.6699,242.6563 68.8574,242.5469 Q69.0449,242.4375 69.2637,242.4375 Q69.6387,242.4375 69.873,242.7031 Q70.1074,242.9531 70.1074,243.5625 L70.1074,245.0156 Q70.1074,245.625 69.873,245.8906 Q69.6387,246.1563 69.2637,246.1563 Q68.9199,246.1563 68.7168,245.9531 Q68.5137,245.7656 68.4043,245.25 Q68.3574,244.8906 68.1699,244.7031 Q67.8418,244.3281 67.2324,244.1094 Q66.623,243.8906 65.998,243.8906 Q65.2324,243.8906 64.5918,244.2188 Q63.9668,244.5469 63.4668,245.2969 Q62.9824,246.0469 62.9824,247.0781 L62.9824,248.1719 Q62.9824,249.4063 63.873,250.2344 Q64.7637,251.0469 66.3574,251.0469 Q67.2949,251.0469 67.9512,250.7969 Q68.3418,250.6406 68.7637,250.2031 Q69.0293,249.9375 69.1699,249.8594 Q69.3262,249.7813 69.5293,249.7813 Q69.8574,249.7813 70.1074,250.0469 Q70.373,250.2969 70.373,250.6406 Q70.373,250.9844 70.0293,251.3906 Q69.5293,251.9688 68.7324,252.2969 Q67.6543,252.75 66.3574,252.75 Q64.8418,252.75 63.6387,252.125 Q62.6543,251.625 61.9668,250.5625 Q61.2793,249.4844 61.2793,248.2031 L61.2793,247.0469 Q61.2793,245.7188 61.8887,244.5781 Q62.5137,243.4219 63.6074,242.8125 Q64.7012,242.1875 65.9355,242.1875 Q66.6699,242.1875 67.3105,242.3594 Q67.9668,242.5156 68.5137,242.875 Z " fill="#000000"/><text fill="#000000" font-family="sans-serif" font-size="14" lengthAdjust="spacing" textLength="70.0342" x="86.248" y="252.7285">SaveGame</text><line style="stroke:#181818;stroke-width:0.5;" x1="8" x2="202.0303" y1="263" y2="263"/><text fill="#000000" font-family="sans-serif" font-size="14" lengthAdjust="spacing" textLength="73.1582" x="13" y="281.5332">-seed : long</text><text fill="#000000" font-family="sans-serif" font-size="14" lengthAdjust="spacing" textLength="65.3516" x="13" y="299.1426">-score : int</text><text fill="#000000" font-family="sans-serif" font-size="14" lengthAdjust="spacing" textLength="72.3516" x="13" y="316.752">-moves : int</text><text fill="#000000" font-family="sans-serif" font-size="14" lengthAdjust="spacing" textLength="76.2412" x="13" y="334.3613">-colors : int[]</text><text fill="#000000" font-family="sans-serif" font-size="14" lengthAdjust="spacing" textLength="109.7305" x="13" y="351.9707">-avails : boolean[]</text><text fill="#000000" font-family="sans-serif" font-size="14" lengthAdjust="spacing" textLength="129.1787" x="13" y="369.5801">-generator : Random</text><text fill="#000000" font-family="sans-serif" font-size="14" lengthAdjust="spacing" textLength="160.3027" x="13" y="387.1895">-invertedGravity : boolean</text><line style="stroke:#181818;stroke-width:0.5;" x1="8" x2="202.0303" y1="394.2656" y2="394.2656"/><text fill="#000000" font-family="sans-serif" font-size="14" lengthAdjust="spacing" textLength="107.7959" x="13" y="412.7988">+getSeed() : long</text><text fill="#000000" font-family="sans-serif" font-size="14" lengthAdjust="spacing" textLength="99.9893" x="13" y="430.4082">+getScore() : int</text><text fill="#000000" font-family="sans-serif" font-size="14" lengthAdjust="spacing" textLength="104.6514" x="13" y="448.0176">+getMoves() : int</text><text fill="#000000" font-family="sans-serif" font-size="14" lengthAdjust="spacing" textLength="111.6514" x="13" y="465.627">+getColors() : int[]</text><text fill="#000000" font-family="sans-serif" font-size="14" lengthAdjust="spacing" textLength="143.582" x="13" y="483.2363">+getAvails() : boolean[]</text><text fill="#000000" font-family="sans-serif" font-size="14" lengthAdjust="spacing" textLength="164.582" x="13" y="500.8457">+getGenerator() : Random</text><text fill="#000000" font-family="sans-serif" font-size="14" lengthAdjust="spacing" textLength="184.0303" x="13" y="518.4551">+isInvertedGravity() : boolean</text></g><!--class SaveGameManager--><g class="entity" data-qualified-name="SaveGameManager" data-source-line="20" id="ent0003"><rect fill="#F1F1F1" height="164.3594" rx="2.5" ry="2.5" style="stroke:#181818;stroke-width:0.5;" width="439.5811" x="47" y="7"/><ellipse cx="199.896" cy="28.3516" fill="#ADD1B2" rx="11" ry="11" style="stroke:#181818;stroke-width:1;"/><path d="M202.6616,24.2266 Q202.8179,24.0078 203.0054,23.8984 Q203.1929,23.7891 203.4116,23.7891 Q203.7866,23.7891 204.021,24.0547 Q204.2554,24.3047 204.2554,24.9141 L204.2554,26.3672 Q204.2554,26.9766 204.021,27.2422 Q203.7866,27.5078 203.4116,27.5078 Q203.0679,27.5078 202.8647,27.3047 Q202.6616,27.1172 202.5522,26.6016 Q202.5054,26.2422 202.3179,26.0547 Q201.9897,25.6797 201.3804,25.4609 Q200.771,25.2422 200.146,25.2422 Q199.3804,25.2422 198.7397,25.5703 Q198.1147,25.8984 197.6147,26.6484 Q197.1304,27.3984 197.1304,28.4297 L197.1304,29.5234 Q197.1304,30.7578 198.021,31.5859 Q198.9116,32.3984 200.5054,32.3984 Q201.4429,32.3984 202.0991,32.1484 Q202.4897,31.9922 202.9116,31.5547 Q203.1772,31.2891 203.3179,31.2109 Q203.4741,31.1328 203.6772,31.1328 Q204.0054,31.1328 204.2554,31.3984 Q204.521,31.6484 204.521,31.9922 Q204.521,32.3359 204.1772,32.7422 Q203.6772,33.3203 202.8804,33.6484 Q201.8022,34.1016 200.5054,34.1016 Q198.9897,34.1016 197.7866,33.4766 Q196.8022,32.9766 196.1147,31.9141 Q195.4272,30.8359 195.4272,29.5547 L195.4272,28.3984 Q195.4272,27.0703 196.0366,25.9297 Q196.6616,24.7734 197.7554,24.1641 Q198.8491,23.5391 200.0835,23.5391 Q200.8179,23.5391 201.4585,23.7109 Q202.1147,23.8672 202.6616,24.2266 Z " fill="#000000"/><text fill="#000000" font-family="sans-serif" font-size="12" font-style="italic" lengthAdjust="spacing" textLength="41.3555" x="262.3628" y="24.457">&#171;static&#187;</text><text fill="#000000" font-family="sans-serif" font-size="14" lengthAdjust="spacing" textLength="125.2891" x="220.396" y="41.627">SaveGameManager</text><line style="stroke:#181818;stroke-width:0.5;" x1="48" x2="485.5811" y1="49.7031" y2="49.7031"/><line style="stroke:#181818;stroke-width:0.5;" x1="48" x2="485.5811" y1="57.7031" y2="57.7031"/><text fill="#000000" font-family="sans-serif" font-size="14" lengthAdjust="spacing" text-decoration="underline" textLength="284.4434" x="53" y="76.2363">+hasSavedGame(context : Context) : boolean</text><text fill="#000000" font-family="sans-serif" font-size="14" lengthAdjust="spacing" text-decoration="underline" textLength="365.3057" x="53" y="93.8457">+save(context : Context, grid : Grid, score : int, moves : int)</text><text fill="#000000" font-family="sans-serif" font-size="14" lengthAdjust="spacing" text-decoration="underline" textLength="230.7266" x="53" y="111.4551">+load(context : Context) : SaveGame</text><text fill="#000000" font-family="sans-serif" font-size="14" lengthAdjust="spacing" text-decoration="underline" textLength="152.8994" x="53" y="129.0645">+clear(context : Context)</text><text fill="#000000" font-family="sans-serif" font-size="14" lengthAdjust="spacing" text-decoration="underline" textLength="427.5811" x="53" y="146.6738">+writeToBundle(outState : Bundle, grid : Grid, score : int, moves : int)</text><text fill="#000000" font-family="sans-serif" font-size="14" lengthAdjust="spacing" text-decoration="underline" textLength="268.0986" x="53" y="164.2832">+fromBundle(bundle : Bundle) : SaveGame</text></g><!--class Grid--><g class="entity" data-qualified-name="Grid" data-source-line="29" id="ent0004"><rect fill="#F1F1F1" height="48" rx="2.5" ry="2.5" style="stroke:#181818;stroke-width:0.5;" width="58.4482" x="238" y="354.5"/><ellipse cx="253" cy="370.5" fill="#ADD1B2" rx="11" ry="11" style="stroke:#181818;stroke-width:1;"/><path d="M255.7656,366.375 Q255.9219,366.1563 256.1094,366.0469 Q256.2969,365.9375 256.5156,365.9375 Q256.8906,365.9375 257.125,366.2031 Q257.3594,366.4531 257.3594,367.0625 L257.3594,368.5156 Q257.3594,369.125 257.125,369.3906 Q256.8906,369.6563 256.5156,369.6563 Q256.1719,369.6563 255.9688,369.4531 Q255.7656,369.2656 255.6563,368.75 Q255.6094,368.3906 255.4219,368.2031 Q255.0938,367.8281 254.4844,367.6094 Q253.875,367.3906 253.25,367.3906 Q252.4844,367.3906 251.8438,367.7188 Q251.2188,368.0469 250.7188,368.7969 Q250.2344,369.5469 250.2344,370.5781 L250.2344,371.6719 Q250.2344,372.9063 251.125,373.7344 Q252.0156,374.5469 253.6094,374.5469 Q254.5469,374.5469 255.2031,374.2969 Q255.5938,374.1406 256.0156,373.7031 Q256.2813,373.4375 256.4219,373.3594 Q256.5781,373.2813 256.7813,373.2813 Q257.1094,373.2813 257.3594,373.5469 Q257.625,373.7969 257.625,374.1406 Q257.625,374.4844 257.2813,374.8906 Q256.7813,375.4688 255.9844,375.7969 Q254.9063,376.25 253.6094,376.25 Q252.0938,376.25 250.8906,375.625 Q249.9063,375.125 249.2188,374.0625 Q248.5313,372.9844 248.5313,371.7031 L248.5313,370.5469 Q248.5313,369.2188 249.1406,368.0781 Q249.7656,366.9219 250.8594,366.3125 Q251.9531,365.6875 253.1875,365.6875 Q253.9219,365.6875 254.5625,365.8594 Q255.2188,366.0156 255.7656,366.375 Z " fill="#000000"/><text fill="#000000" font-family="sans-serif" font-size="14" lengthAdjust="spacing" textLength="26.4482" x="267" y="376.2285">Grid</text><line style="stroke:#181818;stroke-width:0.5;" x1="239" x2="295.4482" y1="386.5" y2="386.5"/><line style="stroke:#181818;stroke-width:0.5;" x1="239" x2="295.4482" y1="394.5" y2="394.5"/></g><!--class Box--><g class="entity" data-qualified-name="Box" data-source-line="30" id="ent0005"><rect fill="#F1F1F1" height="48" rx="2.5" ry="2.5" style="stroke:#181818;stroke-width:0.5;" width="56.124" x="331" y="354.5"/><ellipse cx="346" cy="370.5" fill="#ADD1B2" rx="11" ry="11" style="stroke:#181818;stroke-width:1;"/><path d="M348.7656,366.375 Q348.9219,366.1563 349.1094,366.0469 Q349.2969,365.9375 349.5156,365.9375 Q349.8906,365.9375 350.125,366.2031 Q350.3594,366.4531 350.3594,367.0625 L350.3594,368.5156 Q350.3594,369.125 350.125,369.3906 Q349.8906,369.6563 349.5156,369.6563 Q349.1719,369.6563 348.9688,369.4531 Q348.7656,369.2656 348.6563,368.75 Q348.6094,368.3906 348.4219,368.2031 Q348.0938,367.8281 347.4844,367.6094 Q346.875,367.3906 346.25,367.3906 Q345.4844,367.3906 344.8438,367.7188 Q344.2188,368.0469 343.7188,368.7969 Q343.2344,369.5469 343.2344,370.5781 L343.2344,371.6719 Q343.2344,372.9063 344.125,373.7344 Q345.0156,374.5469 346.6094,374.5469 Q347.5469,374.5469 348.2031,374.2969 Q348.5938,374.1406 349.0156,373.7031 Q349.2813,373.4375 349.4219,373.3594 Q349.5781,373.2813 349.7813,373.2813 Q350.1094,373.2813 350.3594,373.5469 Q350.625,373.7969 350.625,374.1406 Q350.625,374.4844 350.2813,374.8906 Q349.7813,375.4688 348.9844,375.7969 Q347.9063,376.25 346.6094,376.25 Q345.0938,376.25 343.8906,375.625 Q342.9063,375.125 342.2188,374.0625 Q341.5313,372.9844 341.5313,371.7031 L341.5313,370.5469 Q341.5313,369.2188 342.1406,368.0781 Q342.7656,366.9219 343.8594,366.3125 Q344.9531,365.6875 346.1875,365.6875 Q346.9219,365.6875 347.5625,365.8594 Q348.2188,366.0156 348.7656,366.375 Z " fill="#000000"/><text fill="#000000" font-family="sans-serif" font-size="14" lengthAdjust="spacing" textLength="24.124" x="360" y="376.2285">Box</text><line style="stroke:#181818;stroke-width:0.5;" x1="332" x2="386.124" y1="386.5" y2="386.5"/><line style="stroke:#181818;stroke-width:0.5;" x1="332" x2="386.124" y1="394.5" y2="394.5"/></g><!--link SaveGameManager to SaveGame--><g class="link" data-entity-1="ent0003" data-entity-2="ent0002" data-link-type="dependency" data-source-line="32" id="lnk6"><path codeLine="32" d="M221.23,171.23 C210.7,189.91 202.136,205.1131 190.576,225.6231" fill="none" id="SaveGameManager-to-SaveGame" style="stroke:#181818;stroke-width:1;stroke-dasharray:7,7;"/><polygon fill="#181818" points="187.63,230.85,195.5337,224.9736,190.085,226.4942,188.5644,221.0456,187.63,230.85" style="stroke:#181818;stroke-width:1;"/></g><!--link SaveGameManager to Grid--><g class="link" data-entity-1="ent0003" data-entity-2="ent0004" data-link-type="dependency" data-source-line="33" id="lnk7"><path codeLine="33" d="M267,171.23 C267,233.5 267,309.21 267,348.47" fill="none" id="SaveGameManager-to-Grid" style="stroke:#181818;stroke-width:1;stroke-dasharray:7,7;"/><polygon fill="#181818" points="267,354.47,271,345.47,267,349.47,263,345.47,267,354.47" style="stroke:#181818;stroke-width:1;"/></g><!--link SaveGameManager to Box--><g class="link" data-entity-1="ent0003" data-entity-2="ent0005" data-link-type="dependency" data-source-line="34" id="lnk8"><path codeLine="34" d="M294.42,171.16 C300.93,190.73 307.78,211.59 314,231 C327.92,274.46 341.6515,319.6944 350.3515,348.6144" fill="none" id="SaveGameManager-to-Box" style="stroke:#181818;stroke-width:1;stroke-dasharray:7,7;"/><polygon fill="#181818" points="352.08,354.36,353.3177,344.5892,350.6396,349.572,345.6569,346.8938,352.08,354.36" style="stroke:#181818;stroke-width:1;"/></g><?plantuml-src dP4nRy8m48Nt_0gF82ZgN24aO8WOM9fkLOSZkQPM7Lzb7oajuh_Nvm19Q2Oc-zwxU_dYyv_QVe63IkK6l5yoExtRCsvoifd-HVMO9D5H6TIOGeNgc2Zru14BzQGCsJAMEJaCjROiPKKr-hRCoP0xrwzlea0DseYo8p88jb5BjEY0oGNZ6Mn1bQZQrkWOYzH1hVcd7Ghcf4JE0ifetC94JNYYs228jXMe6sqToIvYf11v6V6Yt0KKAxqmHlTAET5-q-ViJYUdsrVSWeKIdPhFFGFhVB68xtfigfEQV82NtaAQHs4PZ0SEWUlcDkwzGZlbmyZ_xgagdPPrfU6Ogiwofggpgd4loX0Kmn--_4ElFGyiRg2_r_JjDECBhVQsC3YYFMV14PH6kOlptL5r3jp5unhNOxrkGBBFrnKTakHs8xFPefqQCcF0a25nVm00?></g></svg>