<?plantuml 1.2026.2?><svg xmlns="http://www.w3.org/2000/svg" xmlns:xlink="http://www.w3.org/1999/xlink" contentStyleType="text/css" data-diagram-type="CLASS" height="861px" preserveAspectRatio="none" style="width:630px;height:861px;background:#FFFFFF;" version="1.1" viewBox="0 0 630 861" width="630px" zoomAndPan="magnify"><defs/><g><!--class GameLoop--><g class="entity" data-qualified-name="GameLoop" data-source-line="3" id="ent0002"><rect fill="#F1F1F1" height="206.4844" rx="2.5" ry="2.5" style="stroke:#181818;stroke-width:0.5;" width="396.0361" x="227" y="256"/><ellipse cx="386.1338" cy="272" fill="#ADD1B2" rx="11" ry="11" style="stroke:#181818;stroke-width:1;"/><path d="M388.8994,267.875 Q389.0557,267.6563 389.2432,267.5469 Q389.4307,267.4375 389.6494,267.4375 Q390.0244,267.4375 390.2588,267.7031 Q390.4932,267.9531 390.4932,268.5625 L390.4932,270.0156 Q390.4932,270.625 390.2588,270.8906 Q390.0244,271.1563 389.6494,271.1563 Q389.3057,271.1563 389.1025,270.9531 Q388.8994,270.7656 388.79,270.25 Q388.7432,269.8906 388.5557,269.7031 Q388.2275,269.3281 387.6182,269.1094 Q387.0088,268.8906 386.3838,268.8906 Q385.6182,268.8906 384.9775,269.2188 Q384.3525,269.5469 383.8525,270.2969 Q383.3682,271.0469 383.3682,272.0781 L383.3682,273.1719 Q383.3682,274.4063 384.2588,275.2344 Q385.1494,276.0469 386.7432,276.0469 Q387.6807,276.0469 388.3369,275.7969 Q388.7275,275.6406 389.1494,275.2031 Q389.415,274.9375 389.5557,274.8594 Q389.7119,274.7813 389.915,274.7813 Q390.2432,274.7813 390.4932,275.0469 Q390.7588,275.2969 390.7588,275.6406 Q390.7588,275.9844 390.415,276.3906 Q389.915,276.9688 389.1182,277.2969 Q388.04,277.75 386.7432,277.75 Q385.2275,277.75 384.0244,277.125 Q383.04,276.625 382.3525,275.5625 Q381.665,274.4844 381.665,273.2031 L381.665,272.0469 Q381.665,270.7188 382.2744,269.5781 Q382.8994,268.4219 383.9932,267.8125 Q385.0869,267.1875 386.3213,267.1875 Q387.0557,267.1875 387.6963,267.3594 Q388.3525,267.5156 388.8994,267.875 Z " fill="#000000"/><text fill="#000000" font-family="sans-serif" font-size="14" lengthAdjust="spacing" textLength="69.2686" x="406.6338" y="277.7285">GameLoop</text><line style="stroke:#181818;stroke-width:0.5;" x1="228" x2="622.0361" y1="288" y2="288"/><text fill="#000000" font-family="sans-serif" font-size="14" lengthAdjust="spacing" textLength="66.124" x="233" y="306.5332">-grid : Grid</text><text fill="#000000" font-family="sans-serif" font-size="14" lengthAdjust="spacing" textLength="112.8066" x="233" y="324.1426">-view : GameView</text><text fill="#000000" font-family="sans-serif" font-size="14" lengthAdjust="spacing" textLength="141.5791" x="233" y="341.752">-activity : GameActivity</text><text fill="#000000" font-family="sans-serif" font-size="14" lengthAdjust="spacing" textLength="150.9717" x="233" y="359.3613">-resolvingTurn : boolean</text><text fill="#000000" font-family="sans-serif" font-size="14" lengthAdjust="spacing" textLength="129.1992" x="233" y="376.9707">-hardMode : boolean</text><line style="stroke:#181818;stroke-width:0.5;" x1="228" x2="622.0361" y1="384.0469" y2="384.0469"/><text fill="#000000" font-family="sans-serif" font-size="14" lengthAdjust="spacing" textLength="384.0361" x="233" y="402.5801">+executeTurn(isHorizontal : boolean, index : int, distance : int)</text><text fill="#000000" font-family="sans-serif" font-size="14" lengthAdjust="spacing" textLength="247.0713" x="233" y="420.1895">+canMoveRow(rowIndex : int) : boolean</text><text fill="#000000" font-family="sans-serif" font-size="14" lengthAdjust="spacing" textLength="262.6436" x="233" y="437.7988">+canMoveColumn(colIndex : int) : boolean</text><text fill="#000000" font-family="sans-serif" font-size="14" lengthAdjust="spacing" textLength="179.3682" x="233" y="455.4082">+isResolvingTurn() : boolean</text></g><!--class GameTouchController--><g class="entity" data-qualified-name="GameTouchController" data-source-line="15" id="ent0003"><rect fill="#F1F1F1" height="188.875" rx="2.5" ry="2.5" style="stroke:#181818;stroke-width:0.5;" width="326.0088" x="135" y="7"/><ellipse cx="224.8926" cy="23" fill="#ADD1B2" rx="11" ry="11" style="stroke:#181818;stroke-width:1;"/><path d="M227.6582,18.875 Q227.8145,18.6563 228.002,18.5469 Q228.1895,18.4375 228.4082,18.4375 Q228.7832,18.4375 229.0176,18.7031 Q229.252,18.9531 229.252,19.5625 L229.252,21.0156 Q229.252,21.625 229.0176,21.8906 Q228.7832,22.1563 228.4082,22.1563 Q228.0645,22.1563 227.8613,21.9531 Q227.6582,21.7656 227.5488,21.25 Q227.502,20.8906 227.3145,20.7031 Q226.9863,20.3281 226.377,20.1094 Q225.7676,19.8906 225.1426,19.8906 Q224.377,19.8906 223.7363,20.2188 Q223.1113,20.5469 222.6113,21.2969 Q222.127,22.0469 222.127,23.0781 L222.127,24.1719 Q222.127,25.4063 223.0176,26.2344 Q223.9082,27.0469 225.502,27.0469 Q226.4395,27.0469 227.0957,26.7969 Q227.4863,26.6406 227.9082,26.2031 Q228.1738,25.9375 228.3145,25.8594 Q228.4707,25.7813 228.6738,25.7813 Q229.002,25.7813 229.252,26.0469 Q229.5176,26.2969 229.5176,26.6406 Q229.5176,26.9844 229.1738,27.3906 Q228.6738,27.9688 227.877,28.2969 Q226.7988,28.75 225.502,28.75 Q223.9863,28.75 222.7832,28.125 Q221.7988,27.625 221.1113,26.5625 Q220.4238,25.4844 220.4238,24.2031 L220.4238,23.0469 Q220.4238,21.7188 221.0332,20.5781 Q221.6582,19.4219 222.752,18.8125 Q223.8457,18.1875 225.0801,18.1875 Q225.8145,18.1875 226.4551,18.3594 Q227.1113,18.5156 227.6582,18.875 Z " fill="#000000"/><text fill="#000000" font-family="sans-serif" font-size="14" lengthAdjust="spacing" textLength="137.7236" x="245.3926" y="28.7285">GameTouchController</text><line style="stroke:#181818;stroke-width:0.5;" x1="136" x2="460.0088" y1="39" y2="39"/><text fill="#000000" font-family="sans-serif" font-size="14" lengthAdjust="spacing" textLength="112.8066" x="141" y="57.5332">-view : GameView</text><text fill="#000000" font-family="sans-serif" font-size="14" lengthAdjust="spacing" textLength="151.7646" x="141" y="75.1426">-gameLoop : GameLoop</text><text fill="#000000" font-family="sans-serif" font-size="14" lengthAdjust="spacing" textLength="79.3584" x="141" y="92.752">-startX : float</text><text fill="#000000" font-family="sans-serif" font-size="14" lengthAdjust="spacing" textLength="79.3584" x="141" y="110.3613">-startY : float</text><text fill="#000000" font-family="sans-serif" font-size="14" lengthAdjust="spacing" textLength="98.0342" x="141" y="127.9707">-lockedAxis : int</text><text fill="#000000" font-family="sans-serif" font-size="14" lengthAdjust="spacing" textLength="99.5928" x="141" y="145.5801">-lockedRow : int</text><text fill="#000000" font-family="sans-serif" font-size="14" lengthAdjust="spacing" textLength="92.5928" x="141" y="163.1895">-lockedCol : int</text><line style="stroke:#181818;stroke-width:0.5;" x1="136" x2="460.0088" y1="170.2656" y2="170.2656"/><text fill="#000000" font-family="sans-serif" font-size="14" lengthAdjust="spacing" textLength="314.0088" x="141" y="188.7988">+onTouch(v : View, event : MotionEvent) : boolean</text></g><!--class GameView--><g class="entity" data-qualified-name="GameView" data-source-line="26" id="ent0004"><rect fill="#F1F1F1" height="224.0938" rx="2.5" ry="2.5" style="stroke:#181818;stroke-width:0.5;" width="327.5059" x="7" y="522"/><ellipse cx="132.2686" cy="538" fill="#ADD1B2" rx="11" ry="11" style="stroke:#181818;stroke-width:1;"/><path d="M135.0342,533.875 Q135.1904,533.6563 135.3779,533.5469 Q135.5654,533.4375 135.7842,533.4375 Q136.1592,533.4375 136.3936,533.7031 Q136.6279,533.9531 136.6279,534.5625 L136.6279,536.0156 Q136.6279,536.625 136.3936,536.8906 Q136.1592,537.1563 135.7842,537.1563 Q135.4404,537.1563 135.2373,536.9531 Q135.0342,536.7656 134.9248,536.25 Q134.8779,535.8906 134.6904,535.7031 Q134.3623,535.3281 133.7529,535.1094 Q133.1436,534.8906 132.5186,534.8906 Q131.7529,534.8906 131.1123,535.2188 Q130.4873,535.5469 129.9873,536.2969 Q129.5029,537.0469 129.5029,538.0781 L129.5029,539.1719 Q129.5029,540.4063 130.3936,541.2344 Q131.2842,542.0469 132.8779,542.0469 Q133.8154,542.0469 134.4717,541.7969 Q134.8623,541.6406 135.2842,541.2031 Q135.5498,540.9375 135.6904,540.8594 Q135.8467,540.7813 136.0498,540.7813 Q136.3779,540.7813 136.6279,541.0469 Q136.8936,541.2969 136.8936,541.6406 Q136.8936,541.9844 136.5498,542.3906 Q136.0498,542.9688 135.2529,543.2969 Q134.1748,543.75 132.8779,543.75 Q131.3623,543.75 130.1592,543.125 Q129.1748,542.625 128.4873,541.5625 Q127.7998,540.4844 127.7998,539.2031 L127.7998,538.0469 Q127.7998,536.7188 128.4092,535.5781 Q129.0342,534.4219 130.1279,533.8125 Q131.2217,533.1875 132.4561,533.1875 Q133.1904,533.1875 133.8311,533.3594 Q134.4873,533.5156 135.0342,533.875 Z " fill="#000000"/><text fill="#000000" font-family="sans-serif" font-size="14" lengthAdjust="spacing" textLength="68.4688" x="152.7686" y="543.7285">GameView</text><line style="stroke:#181818;stroke-width:0.5;" x1="8" x2="333.5059" y1="554" y2="554"/><text fill="#000000" font-family="sans-serif" font-size="14" lengthAdjust="spacing" textLength="66.124" x="13" y="572.5332">-grid : Grid</text><text fill="#000000" font-family="sans-serif" font-size="14" lengthAdjust="spacing" textLength="104.2549" x="13" y="590.1426">-movingRow : int</text><text fill="#000000" font-family="sans-serif" font-size="14" lengthAdjust="spacing" textLength="97.2549" x="13" y="607.752">-movingCol : int</text><text fill="#000000" font-family="sans-serif" font-size="14" lengthAdjust="spacing" textLength="138.5029" x="13" y="625.3613">-dragOffsetPixel : float</text><text fill="#000000" font-family="sans-serif" font-size="14" lengthAdjust="spacing" textLength="88.6826" x="13" y="642.9707">-errorRow : int</text><text fill="#000000" font-family="sans-serif" font-size="14" lengthAdjust="spacing" textLength="81.6826" x="13" y="660.5801">-errorCol : int</text><line style="stroke:#181818;stroke-width:0.5;" x1="8" x2="333.5059" y1="667.6563" y2="667.6563"/><text fill="#000000" font-family="sans-serif" font-size="14" lengthAdjust="spacing" textLength="124.0859" x="13" y="686.1895">+setGrid(grid : Grid)</text><text fill="#000000" font-family="sans-serif" font-size="14" lengthAdjust="spacing" textLength="315.5059" x="13" y="703.7988">+setDragOffset(row : int, col : int, offsetPixel : float)</text><text fill="#000000" font-family="sans-serif" font-size="14" lengthAdjust="spacing" textLength="222.9063" x="13" y="721.4082">+setErrorHighlight(row : int, col : int)</text><text fill="#000000" font-family="sans-serif" font-size="14" lengthAdjust="spacing" textLength="116.3135" x="13" y="739.0176">+resetDragOffset()</text></g><!--class GameActivity--><g class="entity" data-qualified-name="GameActivity" data-source-line="39" id="ent0005"><rect fill="#F1F1F1" height="48" rx="2.5" ry="2.5" style="stroke:#181818;stroke-width:0.5;" width="114.4619" x="370" y="610"/><ellipse cx="385" cy="626" fill="#ADD1B2" rx="11" ry="11" style="stroke:#181818;stroke-width:1;"/><path d="M387.7656,621.875 Q387.9219,621.6563 388.1094,621.5469 Q388.2969,621.4375 388.5156,621.4375 Q388.8906,621.4375 389.125,621.7031 Q389.3594,621.9531 389.3594,622.5625 L389.3594,624.0156 Q389.3594,624.625 389.125,624.8906 Q388.8906,625.1563 388.5156,625.1563 Q388.1719,625.1563 387.9688,624.9531 Q387.7656,624.7656 387.6563,624.25 Q387.6094,623.8906 387.4219,623.7031 Q387.0938,623.3281 386.4844,623.1094 Q385.875,622.8906 385.25,622.8906 Q384.4844,622.8906 383.8438,623.2188 Q383.2188,623.5469 382.7188,624.2969 Q382.2344,625.0469 382.2344,626.0781 L382.2344,627.1719 Q382.2344,628.4063 383.125,629.2344 Q384.0156,630.0469 385.6094,630.0469 Q386.5469,630.0469 387.2031,629.7969 Q387.5938,629.6406 388.0156,629.2031 Q388.2813,628.9375 388.4219,628.8594 Q388.5781,628.7813 388.7813,628.7813 Q389.1094,628.7813 389.3594,629.0469 Q389.625,629.2969 389.625,629.6406 Q389.625,629.9844 389.2813,630.3906 Q388.7813,630.9688 387.9844,631.2969 Q386.9063,631.75 385.6094,631.75 Q384.0938,631.75 382.8906,631.125 Q381.9063,630.625 381.2188,629.5625 Q380.5313,628.4844 380.5313,627.2031 L380.5313,626.0469 Q380.5313,624.7188 381.1406,623.5781 Q381.7656,622.4219 382.8594,621.8125 Q383.9531,621.1875 385.1875,621.1875 Q385.9219,621.1875 386.5625,621.3594 Q387.2188,621.5156 387.7656,621.875 Z " fill="#000000"/><text fill="#000000" font-family="sans-serif" font-size="14" lengthAdjust="spacing" textLength="82.4619" x="399" y="631.7285">GameActivity</text><line style="stroke:#181818;stroke-width:0.5;" x1="371" x2="483.4619" y1="642" y2="642"/><line style="stroke:#181818;stroke-width:0.5;" x1="371" x2="483.4619" y1="650" y2="650"/></g><!--class Grid--><g class="entity" data-qualified-name="Grid" data-source-line="40" id="ent0006"><rect fill="#F1F1F1" height="48" rx="2.5" ry="2.5" style="stroke:#181818;stroke-width:0.5;" width="58.4482" x="325" y="806"/><ellipse cx="340" cy="822" fill="#ADD1B2" rx="11" ry="11" style="stroke:#181818;stroke-width:1;"/><path d="M342.7656,817.875 Q342.9219,817.6563 343.1094,817.5469 Q343.2969,817.4375 343.5156,817.4375 Q343.8906,817.4375 344.125,817.7031 Q344.3594,817.9531 344.3594,818.5625 L344.3594,820.0156 Q344.3594,820.625 344.125,820.8906 Q343.8906,821.1563 343.5156,821.1563 Q343.1719,821.1563 342.9688,820.9531 Q342.7656,820.7656 342.6563,820.25 Q342.6094,819.8906 342.4219,819.7031 Q342.0938,819.3281 341.4844,819.1094 Q340.875,818.8906 340.25,818.8906 Q339.4844,818.8906 338.8438,819.2188 Q338.2188,819.5469 337.7188,820.2969 Q337.2344,821.0469 337.2344,822.0781 L337.2344,823.1719 Q337.2344,824.4063 338.125,825.2344 Q339.0156,826.0469 340.6094,826.0469 Q341.5469,826.0469 342.2031,825.7969 Q342.5938,825.6406 343.0156,825.2031 Q343.2813,824.9375 343.4219,824.8594 Q343.5781,824.7813 343.7813,824.7813 Q344.1094,824.7813 344.3594,825.0469 Q344.625,825.2969 344.625,825.6406 Q344.625,825.9844 344.2813,826.3906 Q343.7813,826.9688 342.9844,827.2969 Q341.9063,827.75 340.6094,827.75 Q339.0938,827.75 337.8906,827.125 Q336.9063,826.625 336.2188,825.5625 Q335.5313,824.4844 335.5313,823.2031 L335.5313,822.0469 Q335.5313,820.7188 336.1406,819.5781 Q336.7656,818.4219 337.8594,817.8125 Q338.9531,817.1875 340.1875,817.1875 Q340.9219,817.1875 341.5625,817.3594 Q342.2188,817.5156 342.7656,817.875 Z " fill="#000000"/><text fill="#000000" font-family="sans-serif" font-size="14" lengthAdjust="spacing" textLength="26.4482" x="354" y="827.7285">Grid</text><line style="stroke:#181818;stroke-width:0.5;" x1="326" x2="382.4482" y1="838" y2="838"/><line style="stroke:#181818;stroke-width:0.5;" x1="326" x2="382.4482" y1="846" y2="846"/></g><!--link GameTouchController to GameLoop--><g class="link" data-entity-1="ent0003" data-entity-2="ent0002" data-link-type="dependency" data-source-line="42" id="lnk7"><path codeLine="42" d="M344.57,196.19 C354.2,215.56 361.7077,230.678 371.4877,250.338" fill="none" id="GameTouchController-to-GameLoop" style="stroke:#181818;stroke-width:1;stroke-dasharray:7,7;"/><polygon fill="#181818" points="374.16,255.71,373.7328,245.8704,371.933,251.2333,366.5701,249.4335,374.16,255.71" style="stroke:#181818;stroke-width:1;"/></g><!--link GameTouchController to GameView--><g class="link" data-entity-1="ent0003" data-entity-2="ent0004" data-link-type="dependency" data-source-line="43" id="lnk8"><path codeLine="43" d="M236.14,196.26 C225.89,215.38 216.5,235.83 210,256 C182.14,342.43 173.1886,439.2333 170.6586,515.6333" fill="none" id="GameTouchController-to-GameView" style="stroke:#181818;stroke-width:1;stroke-dasharray:7,7;"/><polygon fill="#181818" points="170.46,521.63,174.7557,512.7673,170.6255,516.6327,166.7601,512.5025,170.46,521.63" style="stroke:#181818;stroke-width:1;"/></g><!--link GameLoop to Grid--><g class="link" data-entity-1="ent0002" data-entity-2="ent0006" data-link-type="dependency" data-source-line="44" id="lnk9"><path codeLine="44" d="M482.22,462.37 C519.62,544.14 552.94,659.03 502,746 C476.39,789.72 424.152,810.5216 388.852,820.5416" fill="none" id="GameLoop-to-Grid" style="stroke:#181818;stroke-width:1;stroke-dasharray:7,7;"/><polygon fill="#181818" points="383.08,822.18,392.8302,823.5704,387.89,820.8147,390.6457,815.8744,383.08,822.18" style="stroke:#181818;stroke-width:1;"/></g><!--link GameLoop to GameView--><g class="link" data-entity-1="ent0002" data-entity-2="ent0004" data-link-type="dependency" data-source-line="45" id="lnk10"><path codeLine="45" d="M330.06,462.04 C311.88,481.58 296.8569,497.7271 278.4269,517.5371" fill="none" id="GameLoop-to-GameView" style="stroke:#181818;stroke-width:1;stroke-dasharray:7,7;"/><polygon fill="#181818" points="274.34,521.93,283.3989,518.0652,277.7457,518.2693,277.5417,512.6161,274.34,521.93" style="stroke:#181818;stroke-width:1;"/></g><!--link GameLoop to GameActivity--><g class="link" data-entity-1="ent0002" data-entity-2="ent0005" data-link-type="dependency" data-source-line="46" id="lnk11"><path codeLine="46" d="M425.75,462.04 C426.14,515.81 426.5458,571.2002 426.7858,603.8002" fill="none" id="GameLoop-to-GameActivity" style="stroke:#181818;stroke-width:1;stroke-dasharray:7,7;"/><polygon fill="#181818" points="426.83,609.8,430.7636,600.7708,426.7932,604.8001,422.7639,600.8297,426.83,609.8" style="stroke:#181818;stroke-width:1;"/></g><!--link GameView to Grid--><g class="link" data-entity-1="ent0004" data-entity-2="ent0006" data-link-type="dependency" data-source-line="47" id="lnk12"><path codeLine="47" d="M275.86,746.16 C297.26,768.85 313.5519,786.1264 328.1419,801.5864" fill="none" id="GameView-to-Grid" style="stroke:#181818;stroke-width:1;stroke-dasharray:7,7;"/><polygon fill="#181818" points="332.26,805.95,328.992,796.6591,328.8283,802.3136,323.1738,802.1499,332.26,805.95" style="stroke:#181818;stroke-width:1;"/></g><?plantuml-src VPDDRy8m38Rl_8eSY_ZGpXmc8JO1qj0cXgRj659JB4ACahHqJFllYqifxLPsg5e_VXr_n7KxD0TfvLueBPqRUszndNgOApAlU09nr-aK7Z6LUtWYEeYlZX23n68iHc8QNcnc24SsW-OjV3AIocE6_hF4uz9abmL7EaEJh59hWdzDf44QTcsbZHSKGuFs80SLYc9vX6v65azalDHNLL-WYI4F08tlYnYTbqR1sUxo6KgQ1MMmf6DawJY_ghlDNALkGZhTcqYHlYr5jwnt4jNTt_MvhIXLsqaesPBMOCyZR9bPSfdng1etuz2BzUy1RZH9Nv6FEj6aTX2FStJdKgyiTFmRXUOgr2DJb1Tb0N4XVG4P61-i1NaayyZMpTOuedKbziHpQIG_ethoGMnbyhpPEF0lc8EkTmJMact45wHHUuZZV54jTxVa3zN9VD-NnL2NwBwWlsaliO-SQ8R9LeUdFRwGXaLk9EesPrFjV8buCfssVHWExwyN_f-WM9JgJome7zeaxRfwFTN5LIVy0000?></g></svg>