<?plantuml 1.2026.2?><svg xmlns="http://www.w3.org/2000/svg" xmlns:xlink="http://www.w3.org/1999/xlink" contentStyleType="text/css" data-diagram-type="CLASS" height="770px" preserveAspectRatio="none" style="width:515px;height:770px;background:#FFFFFF;" version="1.1" viewBox="0 0 515 770" width="515px" zoomAndPan="magnify"><defs/><g><!--class Box--><g class="entity" data-qualified-name="Box" data-source-line="3" id="ent0002"><rect fill="#F1F1F1" height="188.875" rx="2.5" ry="2.5" style="stroke:#181818;stroke-width:0.5;" width="231.0713" x="39.98" y="575"/><ellipse cx="139.2036" cy="591" fill="#ADD1B2" rx="11" ry="11" style="stroke:#181818;stroke-width:1;"/><path d="M141.9693,586.875 Q142.1255,586.6563 142.313,586.5469 Q142.5005,586.4375 142.7193,586.4375 Q143.0943,586.4375 143.3286,586.7031 Q143.563,586.9531 143.563,587.5625 L143.563,589.0156 Q143.563,589.625 143.3286,589.8906 Q143.0943,590.1563 142.7193,590.1563 Q142.3755,590.1563 142.1724,589.9531 Q141.9693,589.7656 141.8599,589.25 Q141.813,588.8906 141.6255,588.7031 Q141.2974,588.3281 140.688,588.1094 Q140.0786,587.8906 139.4536,587.8906 Q138.688,587.8906 138.0474,588.2188 Q137.4224,588.5469 136.9224,589.2969 Q136.438,590.0469 136.438,591.0781 L136.438,592.1719 Q136.438,593.4063 137.3286,594.2344 Q138.2193,595.0469 139.813,595.0469 Q140.7505,595.0469 141.4068,594.7969 Q141.7974,594.6406 142.2193,594.2031 Q142.4849,593.9375 142.6255,593.8594 Q142.7818,593.7813 142.9849,593.7813 Q143.313,593.7813 143.563,594.0469 Q143.8286,594.2969 143.8286,594.6406 Q143.8286,594.9844 143.4849,595.3906 Q142.9849,595.9688 142.188,596.2969 Q141.1099,596.75 139.813,596.75 Q138.2974,596.75 137.0943,596.125 Q136.1099,595.625 135.4224,594.5625 Q134.7349,593.4844 134.7349,592.2031 L134.7349,591.0469 Q134.7349,589.7188 135.3443,588.5781 Q135.9693,587.4219 137.063,586.8125 Q138.1568,586.1875 139.3911,586.1875 Q140.1255,586.1875 140.7661,586.3594 Q141.4224,586.5156 141.9693,586.875 Z " fill="#000000"/><text fill="#000000" font-family="sans-serif" font-size="14" lengthAdjust="spacing" textLength="24.124" x="159.7036" y="596.7285">Box</text><line style="stroke:#181818;stroke-width:0.5;" x1="40.98" x2="270.0513" y1="607" y2="607"/><text fill="#000000" font-family="sans-serif" font-size="14" lengthAdjust="spacing" textLength="38.1172" x="45.98" y="625.5332">-x : int</text><text fill="#000000" font-family="sans-serif" font-size="14" lengthAdjust="spacing" textLength="38.1172" x="45.98" y="643.1426">-y : int</text><text fill="#000000" font-family="sans-serif" font-size="14" lengthAdjust="spacing" textLength="61.4619" x="45.98" y="660.752">-color : int</text><text fill="#000000" font-family="sans-serif" font-size="14" lengthAdjust="spacing" textLength="121.4199" x="45.98" y="678.3613">-available : boolean</text><line style="stroke:#181818;stroke-width:0.5;" x1="40.98" x2="270.0513" y1="685.4375" y2="685.4375"/><text fill="#000000" font-family="sans-serif" font-size="14" lengthAdjust="spacing" textLength="96.8721" x="45.98" y="703.9707">+getColor() : int</text><text fill="#000000" font-family="sans-serif" font-size="14" lengthAdjust="spacing" textLength="126.4307" x="45.98" y="721.5801">+setColor(color : int)</text><text fill="#000000" font-family="sans-serif" font-size="14" lengthAdjust="spacing" textLength="145.9199" x="45.98" y="739.1895">+isAvailable() : boolean</text><text fill="#000000" font-family="sans-serif" font-size="14" lengthAdjust="spacing" textLength="219.0713" x="45.98" y="756.7988">+setAvailability(available : boolean)</text></g><!--class Grid--><g class="entity" data-qualified-name="Grid" data-source-line="14" id="ent0003"><rect fill="#F1F1F1" height="329.75" rx="2.5" ry="2.5" style="stroke:#181818;stroke-width:0.5;" width="207.7197" x="51.48" y="7"/><ellipse cx="137.8657" cy="23" fill="#ADD1B2" rx="11" ry="11" style="stroke:#181818;stroke-width:1;"/><path d="M140.6314,18.875 Q140.7876,18.6563 140.9751,18.5469 Q141.1626,18.4375 141.3814,18.4375 Q141.7564,18.4375 141.9907,18.7031 Q142.2251,18.9531 142.2251,19.5625 L142.2251,21.0156 Q142.2251,21.625 141.9907,21.8906 Q141.7564,22.1563 141.3814,22.1563 Q141.0376,22.1563 140.8345,21.9531 Q140.6314,21.7656 140.522,21.25 Q140.4751,20.8906 140.2876,20.7031 Q139.9595,20.3281 139.3501,20.1094 Q138.7407,19.8906 138.1157,19.8906 Q137.3501,19.8906 136.7095,20.2188 Q136.0845,20.5469 135.5845,21.2969 Q135.1001,22.0469 135.1001,23.0781 L135.1001,24.1719 Q135.1001,25.4063 135.9907,26.2344 Q136.8814,27.0469 138.4751,27.0469 Q139.4126,27.0469 140.0689,26.7969 Q140.4595,26.6406 140.8814,26.2031 Q141.147,25.9375 141.2876,25.8594 Q141.4439,25.7813 141.647,25.7813 Q141.9751,25.7813 142.2251,26.0469 Q142.4907,26.2969 142.4907,26.6406 Q142.4907,26.9844 142.147,27.3906 Q141.647,27.9688 140.8501,28.2969 Q139.772,28.75 138.4751,28.75 Q136.9595,28.75 135.7564,28.125 Q134.772,27.625 134.0845,26.5625 Q133.397,25.4844 133.397,24.2031 L133.397,23.0469 Q133.397,21.7188 134.0064,20.5781 Q134.6314,19.4219 135.7251,18.8125 Q136.8189,18.1875 138.0532,18.1875 Q138.7876,18.1875 139.4282,18.3594 Q140.0845,18.5156 140.6314,18.875 Z " fill="#000000"/><text fill="#000000" font-family="sans-serif" font-size="14" lengthAdjust="spacing" textLength="26.4482" x="158.3657" y="28.7285">Grid</text><line style="stroke:#181818;stroke-width:0.5;" x1="52.48" x2="258.1997" y1="39" y2="39"/><text fill="#000000" font-family="sans-serif" font-size="14" lengthAdjust="spacing" textLength="108.5342" x="57.48" y="57.5332">+GRID_SIZE : int</text><text fill="#000000" font-family="sans-serif" font-size="14" lengthAdjust="spacing" textLength="141.9756" x="57.48" y="75.1426">+COLOR_COUNT : int</text><text fill="#000000" font-family="sans-serif" font-size="14" lengthAdjust="spacing" textLength="86.3721" x="57.48" y="92.752">-table : Box[][]</text><text fill="#000000" font-family="sans-serif" font-size="14" lengthAdjust="spacing" textLength="73.1582" x="57.48" y="110.3613">-seed : long</text><text fill="#000000" font-family="sans-serif" font-size="14" lengthAdjust="spacing" textLength="160.3027" x="57.48" y="127.9707">-invertedGravity : boolean</text><text fill="#000000" font-family="sans-serif" font-size="14" lengthAdjust="spacing" textLength="137.6963" x="57.48" y="145.5801">-physics : GridPhysics</text><line style="stroke:#181818;stroke-width:0.5;" x1="52.48" x2="258.1997" y1="152.6563" y2="152.6563"/><text fill="#000000" font-family="sans-serif" font-size="14" lengthAdjust="spacing" textLength="43.9482" x="57.48" y="171.1895">+Grid()</text><text fill="#000000" font-family="sans-serif" font-size="14" lengthAdjust="spacing" textLength="112.4443" x="57.48" y="188.7988">+Grid(seed : long)</text><text fill="#000000" font-family="sans-serif" font-size="14" lengthAdjust="spacing" textLength="195.7197" x="57.48" y="206.4082">+hasPossibleMoves() : boolean</text><text fill="#000000" font-family="sans-serif" font-size="14" lengthAdjust="spacing" textLength="168.4443" x="57.48" y="224.0176">+resolveTurnDetails() : int[]</text><text fill="#000000" font-family="sans-serif" font-size="14" lengthAdjust="spacing" textLength="180.1201" x="57.48" y="241.627">+moveLeft(row : int, dist : int)</text><text fill="#000000" font-family="sans-serif" font-size="14" lengthAdjust="spacing" textLength="189.4512" x="57.48" y="259.2363">+moveRight(row : int, dist : int)</text><text fill="#000000" font-family="sans-serif" font-size="14" lengthAdjust="spacing" textLength="170.0029" x="57.48" y="276.8457">+moveUp(col : int, dist : int)</text><text fill="#000000" font-family="sans-serif" font-size="14" lengthAdjust="spacing" textLength="187.8994" x="57.48" y="294.4551">+moveDown(col : int, dist : int)</text><text fill="#000000" font-family="sans-serif" font-size="14" lengthAdjust="spacing" textLength="119.4375" x="57.48" y="312.0645">+lockRandomBox()</text><text fill="#000000" font-family="sans-serif" font-size="14" lengthAdjust="spacing" textLength="105.4307" x="57.48" y="329.6738">+restoreState(...)</text></g><!--class GridPhysics--><g class="entity" data-qualified-name="GridPhysics" data-source-line="33" id="ent0004"><rect fill="#F1F1F1" height="118.4375" rx="2.5" ry="2.5" style="stroke:#181818;stroke-width:0.5;" width="218.6094" x="45.98" y="397"/><ellipse cx="113.6934" cy="413" fill="#ADD1B2" rx="11" ry="11" style="stroke:#181818;stroke-width:1;"/><path d="M116.459,408.875 Q116.6153,408.6563 116.8028,408.5469 Q116.9903,408.4375 117.209,408.4375 Q117.584,408.4375 117.8184,408.7031 Q118.0528,408.9531 118.0528,409.5625 L118.0528,411.0156 Q118.0528,411.625 117.8184,411.8906 Q117.584,412.1563 117.209,412.1563 Q116.8653,412.1563 116.6621,411.9531 Q116.459,411.7656 116.3496,411.25 Q116.3028,410.8906 116.1153,410.7031 Q115.7871,410.3281 115.1778,410.1094 Q114.5684,409.8906 113.9434,409.8906 Q113.1778,409.8906 112.5371,410.2188 Q111.9121,410.5469 111.4121,411.2969 Q110.9278,412.0469 110.9278,413.0781 L110.9278,414.1719 Q110.9278,415.4063 111.8184,416.2344 Q112.709,417.0469 114.3028,417.0469 Q115.2403,417.0469 115.8965,416.7969 Q116.2871,416.6406 116.709,416.2031 Q116.9746,415.9375 117.1153,415.8594 Q117.2715,415.7813 117.4746,415.7813 Q117.8028,415.7813 118.0528,416.0469 Q118.3184,416.2969 118.3184,416.6406 Q118.3184,416.9844 117.9746,417.3906 Q117.4746,417.9688 116.6778,418.2969 Q115.5996,418.75 114.3028,418.75 Q112.7871,418.75 111.584,418.125 Q110.5996,417.625 109.9121,416.5625 Q109.2246,415.4844 109.2246,414.2031 L109.2246,413.0469 Q109.2246,411.7188 109.834,410.5781 Q110.459,409.4219 111.5528,408.8125 Q112.6465,408.1875 113.8809,408.1875 Q114.6153,408.1875 115.2559,408.3594 Q115.9121,408.5156 116.459,408.875 Z " fill="#000000"/><text fill="#000000" font-family="sans-serif" font-size="14" lengthAdjust="spacing" textLength="74.6826" x="134.1934" y="418.7285">GridPhysics</text><line style="stroke:#181818;stroke-width:0.5;" x1="46.98" x2="263.5894" y1="429" y2="429"/><text fill="#000000" font-family="sans-serif" font-size="14" lengthAdjust="spacing" textLength="86.3721" x="51.98" y="447.5332">-table : Box[][]</text><text fill="#000000" font-family="sans-serif" font-size="14" lengthAdjust="spacing" textLength="56.0137" x="51.98" y="465.1426">-size : int</text><line style="stroke:#181818;stroke-width:0.5;" x1="46.98" x2="263.5894" y1="472.2188" y2="472.2188"/><text fill="#000000" font-family="sans-serif" font-size="14" lengthAdjust="spacing" textLength="206.6094" x="51.98" y="490.752">+applyGravity(inverted : boolean)</text><text fill="#000000" font-family="sans-serif" font-size="14" lengthAdjust="spacing" textLength="117.0928" x="51.98" y="508.3613">+fillEmptySpaces()</text></g><!--class GridMoveAnalyst--><g class="entity" data-qualified-name="GridMoveAnalyst" data-source-line="40" id="ent0005"><rect fill="#F1F1F1" height="100.8281" rx="2.5" ry="2.5" style="stroke:#181818;stroke-width:0.5;" width="207.7197" x="300.48" y="405.5"/><ellipse cx="346.7935" cy="421.5" fill="#ADD1B2" rx="11" ry="11" style="stroke:#181818;stroke-width:1;"/><path d="M349.5591,417.375 Q349.7154,417.1563 349.9029,417.0469 Q350.0904,416.9375 350.3091,416.9375 Q350.6841,416.9375 350.9185,417.2031 Q351.1529,417.4531 351.1529,418.0625 L351.1529,419.5156 Q351.1529,420.125 350.9185,420.3906 Q350.6841,420.6563 350.3091,420.6563 Q349.9654,420.6563 349.7622,420.4531 Q349.5591,420.2656 349.4497,419.75 Q349.4029,419.3906 349.2154,419.2031 Q348.8872,418.8281 348.2779,418.6094 Q347.6685,418.3906 347.0435,418.3906 Q346.2779,418.3906 345.6372,418.7188 Q345.0122,419.0469 344.5122,419.7969 Q344.0279,420.5469 344.0279,421.5781 L344.0279,422.6719 Q344.0279,423.9063 344.9185,424.7344 Q345.8091,425.5469 347.4029,425.5469 Q348.3404,425.5469 348.9966,425.2969 Q349.3872,425.1406 349.8091,424.7031 Q350.0747,424.4375 350.2154,424.3594 Q350.3716,424.2813 350.5747,424.2813 Q350.9029,424.2813 351.1529,424.5469 Q351.4185,424.7969 351.4185,425.1406 Q351.4185,425.4844 351.0747,425.8906 Q350.5747,426.4688 349.7779,426.7969 Q348.6997,427.25 347.4029,427.25 Q345.8872,427.25 344.6841,426.625 Q343.6997,426.125 343.0122,425.0625 Q342.3247,423.9844 342.3247,422.7031 L342.3247,421.5469 Q342.3247,420.2188 342.9341,419.0781 Q343.5591,417.9219 344.6529,417.3125 Q345.7466,416.6875 346.981,416.6875 Q347.7154,416.6875 348.356,416.8594 Q349.0122,417.0156 349.5591,417.375 Z " fill="#000000"/><text fill="#000000" font-family="sans-serif" font-size="14" lengthAdjust="spacing" textLength="106.5928" x="367.2935" y="427.2285">GridMoveAnalyst</text><line style="stroke:#181818;stroke-width:0.5;" x1="301.48" x2="507.1997" y1="437.5" y2="437.5"/><text fill="#000000" font-family="sans-serif" font-size="14" lengthAdjust="spacing" textLength="86.3721" x="306.48" y="456.0332">-table : Box[][]</text><text fill="#000000" font-family="sans-serif" font-size="14" lengthAdjust="spacing" textLength="56.0137" x="306.48" y="473.6426">-size : int</text><line style="stroke:#181818;stroke-width:0.5;" x1="301.48" x2="507.1997" y1="480.7188" y2="480.7188"/><text fill="#000000" font-family="sans-serif" font-size="14" lengthAdjust="spacing" textLength="195.7197" x="306.48" y="499.252">+hasPossibleMoves() : boolean</text></g><!--reverse link Grid to Box--><g class="link" data-entity-1="ent0003" data-entity-2="ent0002" data-link-type="composition" data-source-line="46" id="lnk6"><path codeLine="46" d="M46.1818,335.5496 C18.0318,394.8196 6,452.58 28.48,515 C36.1,536.15 48.03,556.46 61.6,574.99" fill="none" id="Grid-backto-Box" style="stroke:#181818;stroke-width:1;"/><polygon fill="#181818" points="51.33,324.71,45.1427,328.4137,46.1818,335.5496,52.3691,331.8458,51.33,324.71" style="stroke:#181818;stroke-width:1;"/><text fill="#000000" font-family="sans-serif" font-size="13" lengthAdjust="spacing" textLength="7.23" x="36.1076" y="333.3075">1</text><text fill="#000000" font-family="sans-serif" font-size="13" lengthAdjust="spacing" textLength="14.46" x="39.262" y="564.0157">36</text></g><!--reverse link Grid to GridPhysics--><g class="link" data-entity-1="ent0003" data-entity-2="ent0004" data-link-type="composition" data-source-line="47" id="lnk7"><path codeLine="47" d="M155.48,349.04 C155.48,370.37 155.48,378.97 155.48,396.83" fill="none" id="Grid-backto-GridPhysics" style="stroke:#181818;stroke-width:1;"/><polygon fill="#181818" points="155.48,337.04,151.48,343.04,155.48,349.04,159.48,343.04,155.48,337.04" style="stroke:#181818;stroke-width:1;"/><text fill="#000000" font-family="sans-serif" font-size="13" lengthAdjust="spacing" textLength="7.23" x="148.333" y="358.3896">1</text><text fill="#000000" font-family="sans-serif" font-size="13" lengthAdjust="spacing" textLength="7.23" x="148.0913" y="386.1335">1</text></g><!--link Grid to GridMoveAnalyst--><g class="link" data-entity-1="ent0003" data-entity-2="ent0005" data-link-type="dependency" data-source-line="48" id="lnk8"><path codeLine="48" d="M259.63,290.96 C294.95,330.96 328.5391,368.992 356.5591,400.732" fill="none" id="Grid-to-GridMoveAnalyst" style="stroke:#181818;stroke-width:1;stroke-dasharray:7,7;"/><polygon fill="#181818" points="360.53,405.23,357.5724,395.8357,357.221,401.4816,351.575,401.1302,360.53,405.23" style="stroke:#181818;stroke-width:1;"/></g><!--link GridPhysics to Box--><g class="link" data-entity-1="ent0004" data-entity-2="ent0002" data-link-type="dependency" data-source-line="49" id="lnk9"><path codeLine="49" d="M155.48,515.07 C155.48,533.54 155.48,548.46 155.48,568.78" fill="none" id="GridPhysics-to-Box" style="stroke:#181818;stroke-width:1;stroke-dasharray:7,7;"/><polygon fill="#181818" points="155.48,574.78,159.48,565.78,155.48,569.78,151.48,565.78,155.48,574.78" style="stroke:#181818;stroke-width:1;"/></g><!--link GridMoveAnalyst to Box--><g class="link" data-entity-1="ent0005" data-entity-2="ent0002" data-link-type="dependency" data-source-line="50" id="lnk10"><path codeLine="50" d="M346.1,506.59 C322.09,526.98 298.0431,547.4058 270.3631,570.9158" fill="none" id="GridMoveAnalyst-to-Box" style="stroke:#181818;stroke-width:1;stroke-dasharray:7,7;"/><polygon fill="#181818" points="265.79,574.8,275.2391,572.0225,269.6009,571.5632,270.0602,565.925,265.79,574.8" style="stroke:#181818;stroke-width:1;"/></g><?plantuml-src ZL9TQy8m57tlhmW-rNMMZS4UzZ1mAYAuALPV9YAnZHgCIKbYjHlxxxj9MrkBk3qrzzpJSy_zK3lAOopn7eKCAzNMMjBLGPD1A7X0lmXwS1oRGM_YXBuTX5edz88er-QPbizGC27B42UOChnY1A2L48nW3h2t8RfZY6xpJFLKWLKacYP1LRjGiVoA3loJvoYZEdMlb6iwFuNrlgIHzUxr9uFkCXXyzihodT5mD5bsHhEFQMbVvrhGz7mnNnX84H81mWJVc93oX4XDehx42JYuiDUAjwcYeGBGb1vdaQqFeTiylogQ5jnYDHPAKIZ-BXAYwcrBeWHBoFGWUPTeQ5aLWxGUlJtyD2HhxKfnpF1x556bAqCrb0dTRF_Yp6ApZnk4hZZo6nGcmjq4yqZiOOPPo-1U2qa2ZJLnVT-lRIWVKtParnPWpl6yDXp7BCs7xnRBg6uVE6lAM6yVwpI8SMYcULdGZBZDCKl1-F-AtjmFQDj3Qpmsq5shXHfFpmqZLKFXMpqAc_JzrxeZfpeIao-KgguB_1S0?></g></svg>